<svg id="effect" height="512" viewBox="0 0 36 36" width="512" xmlns="http://www.w3.org/2000/svg"><path d="m8.114 5.564c-1.805 6.677-6.504 10.327-7.374 13.545s-.847 10.475 13.955 14.477 19.432-4.501 20.388-8.041c4.481-16.572-23.772-31.807-26.969-19.981z" fill="#efefef"/><path d="m21.5 14c0 .23-.02.48-.05.73-.02.13-.04.26-.06.39-.02.12-.05.26-.08.39-.86 3.71-4.43 8.48-6.24 10.72-.17.2-.31.37-.44.53-.07.08-.13.15-.18.22-.29.33-.45.52-.45.52s-.16-.19-.45-.52c-.05-.07-.11-.14-.18-.22-.13-.15-.28-.33-.44-.53-1.81-2.24-5.38-7.01-6.24-10.72-.03-.13-.06-.26-.08-.39s-.04-.26-.06-.39c-.03-.25-.05-.49-.05-.73 0-4.14 3.36-7.5 7.5-7.5s7.5 3.36 7.5 7.5z" fill="#f3f3f1"/><g fill="#2fdf84"><circle cx="14" cy="14" r="3.5"/><path d="m19.943 28.737c2.038 1.017 4.076 1.017 6.114 0 .275-.137.443-.43.443-.737 0-1.933-1.567-3.5-3.5-3.5-1.933 0-3.5 1.567-3.5 3.5 0 .307.168.6.443.737z"/><path d="m22.007 20.12c.214 1.087-.044 2.126-.578 2.32-.533.194-1.14-.53-1.354-1.617s.044-2.126.578-2.32 1.14.53 1.354 1.617z"/><path d="m24.075 20.12c-.214 1.087.044 2.126.578 2.32.533.194 1.14-.53 1.354-1.617s-.044-2.126-.578-2.32-1.139.53-1.354 1.617z"/><ellipse cx="17.646" cy="23.108" rx="1" ry="1.5" transform="matrix(.866 -.5 .5 .866 -9.19 11.919)"/><ellipse cx="28.354" cy="23.108" rx="1.5" ry="1" transform="matrix(.5 -.866 .866 .5 -5.835 36.109)"/></g><path d="m15 17.35c-.32.1-.65.15-1 .15-1.93 0-3.5-1.57-3.5-3.5s1.57-3.5 3.5-3.5c.35 0 .68.05 1 .15-1.44.43-2.5 1.77-2.5 3.35s1.06 2.92 2.5 3.35z" fill="#00b871"/><path d="m21.94 28.74c.69.34 1.37.56 2.06.67-1.35.23-2.71 0-4.06-.67-.27-.14-.44-.43-.44-.74 0-.96.39-1.84 1.03-2.47.63-.64 1.51-1.03 2.47-1.03.35 0 .68.05 1 .15-.56.16-1.07.47-1.47.88-.64.63-1.03 1.51-1.03 2.47 0 .31.17.6.44.74z" fill="#00b871"/><path d="m14.93 26.23c.03.03.05.06.07.09-.14.16-.26.31-.37.44-.07.08-.13.15-.18.22-.29.33-.45.52-.45.52s-.16-.19-.45-.52c-.05-.07-.11-.14-.18-.22-.13-.15-.28-.33-.44-.53-1.81-2.24-5.38-7.01-6.24-10.72-.03-.13-.06-.26-.08-.39s-.04-.26-.06-.39c-.03-.25-.05-.49-.05-.73 0-4.14 3.36-7.5 7.5-7.5.34 0 .67.02 1 .07-3.67.49-6.5 3.63-6.5 7.43 0 .24.02.48.05.73.02.13.04.26.06.39s.05.26.08.39c.86 3.71 4.43 8.48 6.24 10.72z" fill="#d5dbe1"/><path d="m23 30.25c-1.134 0-2.267-.281-3.392-.842-.521-.261-.858-.813-.858-1.408 0-2.343 1.906-4.25 4.25-4.25s4.25 1.907 4.25 4.25c0 .595-.337 1.147-.858 1.408-1.125.562-2.259.842-3.392.842zm-2.722-2.184c1.832.914 3.611.914 5.443 0 .029-1.582-1.204-2.816-2.721-2.816s-2.75 1.234-2.75 2.75l-.307.737z"/><path d="m21.254 23.222c-.229 0-.458-.062-.674-.183-.586-.33-1.05-1.104-1.24-2.069-.255-1.292.027-2.796 1.057-3.17.359-.131.753-.092 1.108.107.585.331 1.048 1.104 1.238 2.07.255 1.292-.026 2.794-1.058 3.169-.139.05-.285.076-.431.076zm-.391-3.924c-.079.203-.185.706-.052 1.381.101.509.284.821.407.965.077-.206.184-.715.053-1.378 0 0-.001 0-.001-.001-.1-.511-.284-.824-.407-.967z"/><path d="m24.829 23.222c-.146 0-.292-.025-.433-.077-1.029-.374-1.312-1.877-1.058-3.169h.001c.19-.966.654-1.739 1.239-2.069.354-.201.748-.237 1.106-.107 1.031.376 1.313 1.879 1.057 3.171-.189.965-.652 1.739-1.238 2.069-.215.12-.445.182-.674.182zm-.018-2.956c-.125.638-.032 1.134.065 1.365.122-.149.298-.458.395-.952.127-.638.033-1.134-.063-1.365-.124.149-.3.457-.397.952z"/><path d="m18.038 25.25c-.699 0-1.445-.467-1.908-1.267-.631-1.093-.459-2.333.391-2.824.851-.491 2.01-.019 2.641 1.074.631 1.092.459 2.333-.391 2.823-.228.132-.477.194-.733.194zm-.609-2.018c.228.392.545.53.61.518.017-.046.049-.376-.177-.767-.227-.393-.521-.536-.611-.517-.016.045-.048.376.178.766z"/><path d="m27.962 25.25c-.256 0-.505-.063-.732-.194-.85-.491-1.021-1.731-.391-2.823.631-1.093 1.789-1.563 2.641-1.074.85.491 1.021 1.731.391 2.824-.464.8-1.21 1.267-1.909 1.267zm.752-2.805c-.048.009-.351.146-.576.538-.226.391-.193.721-.143.787.048-.009.351-.147.576-.538s.194-.721.143-.787z"/><path d="m14 28.25c-.215 0-.42-.092-.563-.254-.313-.355-7.687-8.772-7.687-13.996 0-4.549 3.701-8.25 8.25-8.25s8.25 3.701 8.25 8.25c0 .5-.07 1.064-.209 1.676l-1.463-.332c.114-.503.172-.955.172-1.344 0-3.722-3.028-6.75-6.75-6.75s-6.75 3.028-6.75 6.75c0 3.89 5.039 10.283 6.751 12.343.143-.169.307-.367.49-.589l1.158.953c-.659.801-1.085 1.287-1.085 1.287-.142.163-.347.256-.563.256 0 0 0 0-.001 0z"/><path d="m14 18.25c-2.344 0-4.25-1.907-4.25-4.25s1.906-4.25 4.25-4.25 4.25 1.907 4.25 4.25-1.906 4.25-4.25 4.25zm0-7c-1.517 0-2.75 1.233-2.75 2.75s1.233 2.75 2.75 2.75 2.75-1.233 2.75-2.75-1.233-2.75-2.75-2.75z"/><path d="m22.957 3.474h1v2h-1z" fill="#a4afc1" transform="matrix(.707 -.707 .707 .707 3.707 17.897)"/><path d="m27.023 7.539h1v2h-1z" fill="#a4afc1" transform="matrix(.707 -.707 .707 .707 2.027 21.972)"/><path d="m26.523 3.797h2v1h-2z" fill="#a4afc1" transform="matrix(.707 -.707 .707 .707 5.023 20.72)"/></svg>