<svg id="effect" height="512" viewBox="0 0 36 36" width="512" xmlns="http://www.w3.org/2000/svg"><path d="m34.928 20.591c-3.693-5.848-3.199-11.778-4.979-14.596s-7.138-7.714-20.103.473-9.84 17.35-7.882 20.45c9.166 14.515 39.504 4.031 32.964-6.327z" fill="#efefef"/><path d="m20.5 13.66v-6.16c0-.55-.45-1-1-1h-3c-.55 0-1 .45-1 1v6.16l-5.34-3.08c-.48-.27-1.09-.11-1.37.37l-1.5 2.6c-.28.48-.11 1.09.37 1.37l5.33 3.08-5.33 3.08c-.48.28-.65.89-.37 1.37l1.5 2.6c.28.48.89.64 1.37.37l5.34-3.08v6.16c0 .55.45 1 1 1h3c.55 0 1-.45 1-1v-6.16l5.34 3.08c.48.27 1.09.11 1.37-.37l1.5-2.6c.28-.48.11-1.09-.37-1.37l-5.33-3.08 5.33-3.08c.48-.28.65-.89.37-1.37l-1.5-2.6c-.28-.48-.89-.64-1.37-.37z" fill="#f3f3f1"/><path d="m9.29 22.45 1.5 2.6-.63.37c-.48.27-1.09.11-1.37-.37l-1.5-2.6c-.28-.48-.11-1.09.37-1.37l5.33-3.08-5.33-3.08c-.48-.28-.65-.89-.37-1.37l1.5-2.6c.28-.48.89-.64 1.37-.37l.63.37-1.5 2.6c-.28.48-.11 1.09.37 1.37l5.33 3.08-5.33 3.08c-.48.28-.65.89-.37 1.37z" fill="#d5dbe1"/><path d="m19.5 30.25h-3c-.965 0-1.75-.785-1.75-1.75v-4.862l-4.215 2.432c-.842.471-1.912.183-2.393-.642l-1.501-2.603c-.236-.404-.298-.878-.174-1.333.123-.449.412-.825.816-1.061l4.208-2.431-4.207-2.431c-.406-.237-.696-.613-.818-1.062-.124-.455-.062-.929.176-1.336l1.498-2.596c.483-.828 1.553-1.118 2.387-.649l4.222 2.436v-4.862c0-.965.785-1.75 1.75-1.75h3c.965 0 1.75.785 1.75 1.75v4.862l4.215-2.432c.839-.473 1.912-.184 2.393.642l1.501 2.603c.236.404.298.878.174 1.333-.123.449-.412.825-.816 1.061l-4.207 2.431 4.207 2.431c.406.237.696.613.818 1.062.124.455.062.929-.176 1.336l-1.498 2.596c-.483.829-1.554 1.119-2.387.649l-4.222-2.436v4.862c-.001.965-.786 1.75-1.751 1.75zm-4-8.66c.129 0 .259.034.375.101.232.134.375.381.375.649v6.16c0 .136.114.25.25.25h3c.136 0 .25-.114.25-.25v-6.16c0-.268.143-.516.375-.649.231-.134.518-.134.75 0l5.34 3.08c.119.068.275.026.348-.098l1.499-2.597c.044-.075.038-.143.026-.188-.011-.039-.041-.111-.125-.16l-5.328-3.079c-.232-.134-.375-.381-.375-.649s.143-.515.375-.649l5.33-3.08c.082-.047.111-.12.122-.158.012-.044.018-.112-.024-.184l-1.502-2.603c-.071-.122-.228-.163-.353-.091l-5.333 3.076c-.231.134-.518.133-.75 0-.232-.134-.375-.381-.375-.649v-6.162c0-.136-.114-.25-.25-.25h-3c-.136 0-.25.114-.25.25v6.16c0 .268-.143.516-.375.649-.231.134-.518.134-.75 0l-5.34-3.08c-.12-.069-.276-.026-.348.098l-1.499 2.597c-.042.076-.037.144-.024.188.011.039.041.111.125.16l5.328 3.079c.231.134.375.381.375.649s-.143.515-.375.649l-5.33 3.08c-.082.047-.111.12-.122.158-.014.045-.019.113.023.185l1.502 2.603c.071.121.226.163.353.091l5.333-3.076c.115-.067.245-.1.374-.1z"/><path d="m29.25 7.425c-.827 0-1.5-.673-1.5-1.5s.673-1.5 1.5-1.5 1.5.673 1.5 1.5-.673 1.5-1.5 1.5zm0-2c-.276 0-.5.224-.5.5s.224.5.5.5.5-.224.5-.5-.224-.5-.5-.5z" fill="#a4afc1"/></svg>