<svg id="effect" height="512" viewBox="0 0 36 36" width="512" xmlns="http://www.w3.org/2000/svg"><path d="m1.063 15.31c3.655 5.872 3.123 11.798 4.885 14.628s7.088 7.76 20.105-.343 9.951-17.286 8.014-20.399c-9.072-14.574-39.477-4.285-33.004 6.114z" fill="#efefef"/><path d="m20.5 25.17c0 .37-.09.71-.25 1.01-.4.78-1.26 1.32-2.25 1.32s-1.85-.54-2.25-1.32c-.16-.3-.25-.64-.25-1.01 0-.24.04-.46.1-.67l.96-3c.19-.58.76-1 1.44-1s1.25.42 1.44 1l.96 3c.06.21.1.43.1.67z" fill="#2fdf84"/><path d="m9.5 15.56c-1.1 0-2 .9-2 2s.9 2 2 2c.08 0 .16 0 .24-.01z" fill="#f3f3f1"/><path d="m26.5 15.56c1.1 0 2 .9 2 2s-.9 2-2 2c-.08 0-.16 0-.24-.01z" fill="#f3f3f1"/><path d="m26.5 13.01v2.49l-2.8-.4c-1.36-.2-2.68-.61-3.89-1.22-1.22-.6-2.33-1.4-3.31-2.38-1.28 1.92-3.27 3.25-5.54 3.71l-1.46.29c0-1.22 0-2.49 0-2.49 0-4.65 4.66-6.51 8.5-6.51s8.5 1.86 8.5 6.51z" fill="#2fdf84"/><path d="m26.5 15.5v2.17c0 .66-.07 1.3-.21 1.92-.62 2.59-2.68 5.64-6.04 6.59.16-.3.25-.64.25-1.01 0-.24-.04-.46-.1-.67l-.96-3c-.19-.58-.76-1-1.44-1s-1.25.42-1.44 1l-.96 3c-.06.21-.1.43-.1.67 0 .37.09.71.25 1.01-3.13-.91-5.34-3.65-6.04-6.59-.14-.62-.21-1.26-.21-1.92v-2.17l1.46-.29c2.27-.46 4.26-1.79 5.54-3.71.98.98 2.09 1.78 3.31 2.38 1.21.61 2.53 1.02 3.89 1.22z" fill="#f3f3f1"/><path d="m19 6.55c-3.6.29-7.5 2.21-7.5 6.46v2.07c-.18.05-.36.09-.54.13l-1.46.29c0-1.22 0-2.49 0-2.49 0-4.65 4.66-6.51 8.5-6.51.33 0 .66.01 1 .05z" fill="#00b871"/><path d="m19 27.3c-.3.13-.64.2-1 .2-.99 0-1.85-.54-2.25-1.32-.16-.3-.25-.64-.25-1.01 0-.24.04-.46.1-.67l.96-3c.19-.58.76-1 1.44-1 .39 0 .74.14 1 .36-.21.17-.36.39-.44.64l-.96 3c-.06.21-.1.43-.1.67 0 .37.09.71.25 1.01.26.5.7.9 1.25 1.12z" fill="#00b871"/><path d="m15.5 25.13c-1.93-1.3-3.27-3.37-3.79-5.54-.14-.62-.21-1.26-.21-1.92v-2.597c-.179.048-.357.1-.54.137l-1.46.29v2.17c0 .66.07 1.3.21 1.92.7 2.94 2.91 5.68 6.04 6.59-.16-.3-.25-.64-.25-1.01z" fill="#d5dbe1"/><path d="m9.5 20.31c-1.517 0-2.75-1.233-2.75-2.75s1.233-2.75 2.75-2.75v1.5c-.689 0-1.25.561-1.25 1.25 0 .708.596 1.244 1.306 1.25.031 0 .063 0 .094-.004l.182 1.488c-.111.014-.222.016-.332.016z"/><path d="m26.5 20.31c-.11 0-.221-.002-.331-.016l.182-1.488c.049.006.099.004.149.004.689 0 1.25-.561 1.25-1.25s-.561-1.25-1.25-1.25v-1.5c1.517 0 2.75 1.233 2.75 2.75s-1.233 2.75-2.75 2.75z"/><path d="m20.454 26.901-.408-1.443c3.014-.852 4.941-3.648 5.515-6.043.125-.555.189-1.146.189-1.745v-4.66c0-3.957-4.018-5.76-7.75-5.76s-7.75 1.803-7.75 5.76v4.66c0 .6.064 1.19.191 1.755.688 2.888 2.854 5.26 5.518 6.035l-.418 1.439c-3.173-.922-5.748-3.724-6.561-7.136-.153-.682-.23-1.383-.23-2.094v-4.66c0-4.988 4.795-7.26 9.25-7.26s9.25 2.271 9.25 7.26v4.66c0 .711-.077 1.412-.229 2.085-.627 2.624-2.722 6.061-6.567 7.147z"/><path d="m26.394 16.242-2.8-.4c-2.58-.367-5.031-1.501-6.99-3.218-1.383 1.714-3.304 2.881-5.491 3.318l-1.465.293-.295-1.471 1.465-.293c2.084-.417 3.881-1.62 5.059-3.388.125-.187.326-.309.55-.33.232-.028.445.057.604.216 1.821 1.821 4.228 3.024 6.775 3.388l2.801.4z"/><path d="m14.25 19.078c-.729 0-1.417-.43-1.886-1.181l-.397-.636 1.271-.795.397.636c.379.605.85.605 1.229 0l.397-.636 1.271.795-.397.636c-.468.751-1.156 1.181-1.885 1.181z"/><path d="m21.75 19.078c-.729 0-1.417-.43-1.886-1.181l-.397-.636 1.271-.795.397.636c.379.605.85.605 1.229 0l.397-.636 1.271.795-.397.636c-.468.751-1.156 1.181-1.885 1.181z"/><path d="m18 28.25c-1.792 0-3.25-1.383-3.25-3.083 0-.306.047-.607.139-.896l.959-3c.291-.909 1.155-1.521 2.152-1.521s1.861.611 2.152 1.521l.959 3c.092.289.139.591.139.896 0 1.7-1.458 3.083-3.25 3.083zm0-7c-.336 0-.634.196-.723.478l-.959 3c-.046.141-.068.289-.068.439 0 .873.785 1.583 1.75 1.583s1.75-.71 1.75-1.583c0-.15-.022-.299-.068-.439l-.959-3c-.089-.282-.387-.478-.723-.478z"/><path d="m17.25 24.75h1.5v5.5h-1.5z"/><path d="m4.167 6.804c-.827 0-1.5-.673-1.5-1.5s.673-1.5 1.5-1.5 1.5.673 1.5 1.5-.673 1.5-1.5 1.5zm0-2c-.275 0-.5.225-.5.5s.225.5.5.5.5-.225.5-.5-.225-.5-.5-.5z" fill="#a4afc1"/></svg>