<svg id="effect" height="512" viewBox="0 0 36 36" width="512" xmlns="http://www.w3.org/2000/svg"><path d="m27.417 3.914c-6.915.129-11.732-3.365-15.064-3.302s-10.296 2.109-10.009 17.44 9.744 17.404 13.41 17.336c17.163-.321 23.911-31.703 11.663-31.474z" fill="#efefef"/><path d="m18 26.5c3.59 0 6.5-2.91 6.5-6.5v-6.5c0-1.105-.895-2-2-2h-9c-1.105 0-2 .895-2 2v6.5c0 3.59 2.91 6.5 6.5 6.5z" fill="#f3f3f1"/><path d="m19.5 8.5h-3c-.552 0-1 .448-1 1v2h5v-2c0-.552-.448-1-1-1z" fill="#2fdf84"/><path d="m18.5 26.5v1.5c0 .828.672 1.5 1.5 1.5s1.5-.672 1.5-1.5v-2.5z" fill="#2fdf84"/><path d="m18.5 8.5c-.55 0-1 .45-1 1v2h-2v-2c0-.55.45-1 1-1z" fill="#00b871"/><path d="m20.5 26.5v1.5c0 .44.19.84.5 1.11-.26.24-.61.39-1 .39-.83 0-1.5-.67-1.5-1.5v-1.5l3-1v.67z" fill="#00b871"/><path d="m19 26.42c-.32.05-.66.08-1 .08-3.59 0-6.5-2.91-6.5-6.5v-6.5c0-1.1.9-2 2-2h2c-1.1 0-2 .9-2 2v6.5c0 3.25 2.38 5.94 5.5 6.42z" fill="#d5dbe1"/><path d="m18 27.25c-3.998 0-7.25-3.252-7.25-7.25v-6.5c0-1.517 1.233-2.75 2.75-2.75h9c1.517 0 2.75 1.233 2.75 2.75v6.5c0 3.998-3.252 7.25-7.25 7.25zm-4.5-15c-.689 0-1.25.561-1.25 1.25v6.5c0 3.17 2.58 5.75 5.75 5.75s5.75-2.58 5.75-5.75v-6.5c0-.689-.561-1.25-1.25-1.25z"/><path d="m21.25 11.5h-1.5v-2c0-.138-.112-.25-.25-.25h-3c-.138 0-.25.112-.25.25v2h-1.5v-2c0-.965.785-1.75 1.75-1.75h3c.965 0 1.75.785 1.75 1.75z"/><path d="m17.25 6.5h1.5v2h-1.5z"/><path d="m20 30.25c-1.241 0-2.25-1.009-2.25-2.25v-1.5h1.5v1.5c0 .414.336.75.75.75s.75-.336.75-.75v-2.5h1.5v2.5c0 1.241-1.009 2.25-2.25 2.25z"/><path d="m14.75 25.965h1.5v3.535h-1.5z"/><path d="m17.25 15.965h1.5v5.035h-1.5z"/><path d="m15.482 17.732h5.035v1.5h-5.035z"/><path d="m29 8.249c-.827 0-1.5-.673-1.5-1.5s.673-1.5 1.5-1.5 1.5.673 1.5 1.5-.673 1.5-1.5 1.5zm0-2c-.276 0-.5.224-.5.5s.224.5.5.5.5-.224.5-.5-.224-.5-.5-.5z" fill="#a4afc1"/></svg>