<svg id="effect" height="512" viewBox="0 0 36 36" width="512" xmlns="http://www.w3.org/2000/svg"><path d="m4.167 27.623c0-6.917-3.583-11.667-3.583-15s1.916-10.333 17.249-10.333 17.583 9.417 17.583 13.083c.001 17.167-31.249 24.5-31.249 12.25z" fill="#efefef"/><g fill="#f3f3f1"><path d="m24.934 23.64c-1.534-1.55-3.001-3.09-4.349-4.58l-2.585 3.42 5.126 6.78c.099.14.274.24.471.24.241 0 .449-.14.515-.34l1.282-3.56c.241-.68.066-1.43-.46-1.96z"/><path d="m18 16.01-2.51 2.95c-.02.03-.05.07-.08.1l-2.27-3.01c-1.6-2.12-1.55-4.94.15-7.01l.45-.54c.18.82.51 1.68.96 2.59.77 1.53 1.91 3.19 3.3 4.92z"/><path d="m22.86 16.05-9.98 13.21c-.1.14-.28.24-.48.24-.24 0-.44-.14-.52-.34l-1.27-3.56c-.25-.68-.07-1.43.46-1.96 1.53-1.55 3-3.09 4.34-4.58.03-.03.06-.07.08-.1.91-1 1.76-1.99 2.51-2.95 1.4-1.74 2.53-3.39 3.3-4.92.46-.91.79-1.77.96-2.59l.45.54c1.7 2.07 1.76 4.89.15 7.01z"/></g><path d="m22.26 8.5c-.17.82-.5 1.68-.96 2.59-2.43-2.12-4.16-2.12-6.6 0-.45-.91-.78-1.77-.96-2.59 2.84-2.67 5.68-2.67 8.52 0z" fill="#2fdf84"/><path d="m15.74 8.5c.11.49.27.99.48 1.51-.48.25-.98.61-1.52 1.08-.45-.91-.78-1.77-.96-2.59 1.75-1.65 3.51-2.28 5.26-1.89-1.09.24-2.17.87-3.26 1.89z" fill="#00b871"/><path d="m24.41 28.31-.3.85c-.06.2-.27.34-.51.34-.2 0-.38-.1-.47-.24l-5.13-6.78 2.59-3.42c.36.4.72.79 1.09 1.2l-1.68 2.22z" fill="#d5dbe1"/><path d="m16.47 17.81-.98 1.15c-.02.03-.05.07-.08.1l-2.27-3.01c-1.6-2.12-1.55-4.94.15-7.01l.45-.54c.14.63.37 1.29.68 1.98-.77 1.82-.53 3.91.72 5.57z" fill="#d5dbe1"/><path d="m23.58 10.5c-.08.19-.18.39-.28.59-.77 1.53-1.9 3.18-3.3 4.92-.75.96-1.6 1.95-2.51 2.95-.02.03-.05.07-.08.1-1.34 1.49-2.81 3.03-4.34 4.58-.53.53-.71 1.28-.46 1.96l.97 2.73-.7.93c-.1.14-.28.24-.48.24-.24 0-.44-.14-.52-.34l-1.27-3.56c-.25-.68-.07-1.43.46-1.96 1.53-1.55 3-3.09 4.34-4.58.03-.03.06-.07.08-.1.91-1 1.76-1.99 2.51-2.95 1.4-1.74 2.53-3.39 3.3-4.92.46-.91.79-1.77.96-2.59l.45.54c.37.45.67.95.87 1.46z" fill="#d5dbe1"/><path d="m23.598 30.25c-.434 0-.839-.209-1.085-.559l-5.111-6.759 1.197-.904 4.935 6.527 1.154-3.209c.144-.403.034-.855-.286-1.177-1.606-1.625-3.077-3.174-4.373-4.606l1.113-1.006c1.28 1.415 2.735 2.948 4.325 4.556.729.733.973 1.783.634 2.738l-1.282 3.563c-.162.492-.655.836-1.221.836zm-.193-1.34c-.002.006-.004.011-.006.017zm.314-.11.006.008c-.002-.003-.004-.006-.006-.008z"/><path d="m14.817 19.513-2.278-3.01c-1.818-2.408-1.749-5.598.171-7.938l.453-.544c.182-.221.479-.319.755-.249.279.069.494.291.555.571.409 1.902 1.754 4.257 4.112 7.198l-1.17.938c-1.963-2.448-3.272-4.546-3.97-6.367-1.043 1.711-.953 3.838.29 5.486l2.277 3.009z"/><path d="m12.404 30.25c-.554 0-1.047-.338-1.227-.842l-1.275-3.553c-.341-.951-.1-2.002.629-2.742 4.946-5.022 10.121-10.704 10.998-14.771.061-.281.277-.503.557-.571.282-.068.574.03.757.253l.446.544c1.924 2.34 1.991 5.53.169 7.938l-9.984 13.201c-.21.325-.62.543-1.07.543zm-.136-1.432c-.007.008-.014.018-.021.027zm10.286-18.702c-1.603 4.173-6.171 9.193-10.954 14.049-.325.331-.433.773-.285 1.183l1.151 3.208 9.796-12.955c1.247-1.646 1.338-3.772.292-5.485z"/><path d="m14.253 9.047-1.027-1.094c3.125-2.932 6.426-2.933 9.551 0l-1.027 1.094c-2.558-2.401-4.94-2.401-7.497 0z"/><path d="m15.192 11.656-.984-1.132c2.734-2.376 4.86-2.376 7.585.001l-.986 1.13c-2.146-1.871-3.457-1.873-5.615.001z"/><path d="m27.773 6.144h2.001v1h-2.001z" fill="#a4afc1" transform="matrix(.707 -.707 .707 .707 3.73 22.292)"/><path d="m24.207 5.467h1v2h-1z" fill="#a4afc1" transform="matrix(.707 -.707 .707 .707 2.661 19.361)"/><path d="m28.273 9.533h1v2.001h-1z" fill="#a4afc1" transform="matrix(.707 -.707 .707 .707 .982 23.435)"/></svg>