<svg id="effect" height="512" viewBox="0 0 36 36" width="512" xmlns="http://www.w3.org/2000/svg"><path d="m4.167 27.623c0-6.917-3.583-11.667-3.583-15s1.916-10.333 17.249-10.333 17.583 9.417 17.583 13.083c.001 17.167-31.249 24.5-31.249 12.25z" fill="#efefef"/><path d="m16.5 17.5-2.5 2.5c-.552.552-.552 1.448 0 2s1.448.552 2 0l2.5-2.5z" fill="#2fdf84"/><path d="m26.5 19.5-2.59 2.59c-.78.78-2.04.78-2.82 0l-7.18-7.18c-.78-.78-.78-2.04 0-2.82l2.59-2.59 2.88 2.88c-.54.54-.88 1.29-.88 2.12 0 1.66 1.34 3 3 3 .83 0 1.58-.34 2.12-.88z" fill="#f3f3f1"/><path d="m24.5 14.5c0 .83-.34 1.58-.88 2.12s-1.29.88-2.12.88c-1.66 0-3-1.34-3-3 0-.83.34-1.58.88-2.12s1.29-.88 2.12-.88c1.66 0 3 1.34 3 3z" fill="#2fdf84"/><path d="m28.5 10.5-4 4c0-1.66-1.34-3-3-3l4-4z" fill="#f3f3f1"/><path d="m16 20c-.55.55-.55 1.45 0 2-.55.55-1.45.55-2 0s-.55-1.45 0-2l2.5-2.5 1 1z" fill="#00b871"/><path d="m22.5 17.32c-.31.12-.65.18-1 .18-1.66 0-3-1.34-3-3 0-.83.34-1.58.88-2.12s1.29-.88 2.12-.88c.35 0 .69.06 1 .18-.43.14-.81.39-1.12.7-.54.54-.88 1.29-.88 2.12 0 1.31.83 2.42 2 2.82z" fill="#00b871"/><path d="m23.5 22.4c-.76.45-1.76.34-2.41-.31l-7.18-7.18c-.78-.78-.78-2.04 0-2.82l2.59-2.59 1 1-1.59 1.59c-.78.78-.78 2.04 0 2.82l7.18 7.18c.13.13.26.23.41.31z" fill="#d5dbe1"/><path d="m26.06 12.94-1.56 1.56c0-1.66-1.34-3-3-3l4-4 1 1-3 3c1.09 0 2.04.57 2.56 1.44z" fill="#d5dbe1"/><path d="m4.197 25h12.106v1.5h-12.106z" transform="matrix(.707 -.707 .707 .707 -15.206 14.79)"/><path d="m15 23.164c-.578 0-1.121-.225-1.53-.634s-.634-.952-.634-1.53.225-1.121.634-1.53l2.5-2.5 1.061 1.061-2.5 2.5c-.259.259-.259.681 0 .939.26.26.68.26.939 0l2.5-2.5 1.061 1.061-2.5 2.5c-.41.408-.953.633-1.531.633z"/><path d="m22.5 23.423c-.703 0-1.405-.268-1.94-.803l-7.18-7.18c-1.07-1.07-1.07-2.811 0-3.881l2.59-2.59c.293-.293.768-.293 1.061 0l2.88 2.88-1.061 1.061-2.35-2.35-2.06 2.06c-.235.235-.365.548-.365.88s.13.645.365.88l7.18 7.18c.471.471 1.289.471 1.76 0l2.06-2.06-2.35-2.35 1.061-1.061 2.88 2.88c.293.293.293.768 0 1.061l-2.59 2.59c-.536.535-1.238.803-1.941.803z"/><path d="m21.5 18.25c-2.067 0-3.75-1.683-3.75-3.75s1.683-3.75 3.75-3.75 3.75 1.683 3.75 3.75-1.683 3.75-3.75 3.75zm0-6c-1.24 0-2.25 1.01-2.25 2.25s1.01 2.25 2.25 2.25 2.25-1.01 2.25-2.25-1.01-2.25-2.25-2.25z"/><path d="m20.672 8.75h5.657v1.5h-5.657z" transform="matrix(.707 -.707 .707 .707 .166 19.4)"/><path d="m23.672 11.75h5.657v1.5h-5.657z" transform="matrix(.707 -.707 .707 .707 -1.077 22.4)"/><path d="m26.25 4.715h1.5v8.571h-1.5z" transform="matrix(.707 -.707 .707 .707 1.544 21.728)"/><path d="m11.5 6.563c-.827 0-1.5-.673-1.5-1.5s.673-1.5 1.5-1.5 1.5.673 1.5 1.5-.673 1.5-1.5 1.5zm0-2c-.275 0-.5.225-.5.5s.225.5.5.5.5-.225.5-.5-.225-.5-.5-.5z" fill="#a4afc1"/></svg>