<svg id="effect" height="512" viewBox="0 0 36 36" width="512" xmlns="http://www.w3.org/2000/svg"><path d="m13.411 34.999c6.298-2.859 12.105-1.559 15.14-2.936 3.035-1.378 8.617-6.016 2.28-19.978s-15.841-12.12-19.18-10.605c-15.632 7.095-9.395 38.582 1.76 33.519z" fill="#efefef"/><path d="m21.268 12.645-14.477 14.544c-.392.394-.387 1.033.011 1.421l.621.606c.392.382 1.017.378 1.405-.008l14.528-14.476z" fill="#f3f3f1"/><path d="m29.5 9.5c0 1.16-.66 2.17-1.63 2.67l-4.51 2.56-2.09-2.09 2.56-4.51c.5-.97 1.51-1.63 2.67-1.63 1.66 0 3 1.34 3 3z" fill="#2fdf84"/><path d="m27.5 6.68c-.72.25-1.32.77-1.67 1.45l-2.56 4.51 1.37 1.37-1.28.72-2.09-2.09 2.56-4.51c.5-.97 1.51-1.63 2.67-1.63.35 0 .69.06 1 .18z" fill="#00b871"/><path d="m8.8 28.61.32.31-.29.29c-.39.38-1.02.39-1.41.01l-.62-.61c-.4-.39-.4-1.03-.01-1.42l14.48-14.55 1 1-13.48 13.55c-.39.39-.39 1.03.01 1.42z" fill="#d5dbe1"/><path d="m8.122 30.248c-.442 0-.884-.165-1.222-.495l-.622-.606c-.336-.328-.524-.768-.528-1.238-.003-.471.177-.914.509-1.248l14.477-14.545 1.063 1.059-14.476 14.543c-.064.063-.073.139-.073.178s.011.114.075.177l.622.606c.097.096.254.094.351-.001l14.528-14.477 1.059 1.063-14.528 14.475c-.339.339-.787.509-1.235.509z"/><path d="m23.356 15.482c-.194 0-.386-.075-.531-.22l-2.088-2.088c-.239-.238-.289-.607-.122-.9l2.563-4.514c.631-1.229 1.91-2.011 3.322-2.011 2.068 0 3.75 1.683 3.75 3.75 0 1.407-.775 2.682-2.024 3.33l-4.5 2.555c-.116.066-.244.098-.37.098zm-1.154-2.964 1.28 1.28 4.017-2.28c.009-.005.018-.01.028-.015.754-.388 1.223-1.155 1.223-2.003 0-1.24-1.009-2.25-2.25-2.25-.848 0-1.615.469-2.003 1.224z"/><path d="m32 21c-.827 0-1.5-.673-1.5-1.5s.673-1.5 1.5-1.5 1.5.673 1.5 1.5-.673 1.5-1.5 1.5zm0-2c-.276 0-.5.225-.5.5s.224.5.5.5.5-.225.5-.5-.224-.5-.5-.5z" fill="#a4afc1"/></svg>