<svg id="effect" height="512" viewBox="0 0 36 36" width="512" xmlns="http://www.w3.org/2000/svg"><path d="m8.377 4.167c6.917 0 11.667-3.583 15-3.583s10.333 1.916 10.333 17.249-9.417 17.583-13.083 17.583c-17.167.001-24.5-31.249-12.25-31.249z" fill="#efefef"/><path d="m29.5 29.5h-11.5l3.94-6.39c.17.19.37.34.62.44l4.4 1.47c.96.32 1.7 1.11 1.94 2.1z" fill="#2fdf84"/><path d="m18 29.5h-11.5l.6-2.38c.24-.99.98-1.78 1.94-2.1l4.4-1.47c.25-.1.45-.25.62-.44z" fill="#2fdf84"/><path d="m23.66 14.63c0 .74-.5 1.98-.5 1.98s-.5.13-.5.99c0 .87-.87 1.89-1.58 2.48 0 .41 0 2.13.86 3.03l-3.94 6.39-3.94-6.39c.86-.9.86-2.62.86-3.03-.71-.59-1.58-1.61-1.58-2.48 0-.86-.5-.99-.5-.99s-.5-1.24-.5-1.98c0 0 .13-.5.5-.5 0-.52.1-1.51.1-2.97 0-1.78 2.24-4.66 5.06-4.66 2.77 0 3.87 1.6 3.87 2.18 0 .3 1.24.08 1.24 2.48v2.97c.37 0 .55.5.55.5z" fill="#f3f3f1"/><circle cx="18" cy="11.5" fill="#2fdf84" r="2"/><g fill="#00b871"><path d="m23.48 23.86-3.48 5.64h-2l3.94-6.39c.17.19.37.34.62.44z"/><path d="m14.52 23.86-3.48 1.16c-.96.32-1.7 1.11-1.94 2.1l-.6 2.38h-2l.6-2.38c.24-.99.98-1.78 1.94-2.1l4.4-1.47c.25-.1.45-.25.62-.44z"/><path d="m19 13.23c-.29.17-.64.27-1 .27-1.1 0-2-.9-2-2s.9-2 2-2c.36 0 .71.1 1 .27-.6.35-1 .99-1 1.73s.4 1.38 1 1.73z"/></g><path d="m16.06 23.11 2.94 4.77-1 1.62-3.94-6.39c.86-.9.86-2.62.86-3.03-.71-.59-1.58-1.61-1.58-2.48 0-.86-.5-.99-.5-.99s-.5-1.24-.5-1.98c0 0 .13-.5.5-.5 0-.52.1-1.51.1-2.97 0-1.78 2.24-4.66 5.06-4.66.41 0 .79.04 1.12.1-2.39.5-4.18 2.97-4.18 4.56 0 1.46-.1 2.45-.1 2.97-.37 0-.5.5-.5.5 0 .74.5 1.98.5 1.98s.5.13.5.99c0 .87.87 1.89 1.58 2.48 0 .41 0 2.13-.86 3.03z" fill="#d5dbe1"/><path d="m20 10.75h3v1.5h-3z"/><path d="m13 10.75h3v1.5h-3z"/><path d="m18 14.25c-1.517 0-2.75-1.233-2.75-2.75s1.233-2.75 2.75-2.75 2.75 1.233 2.75 2.75-1.233 2.75-2.75 2.75zm0-4c-.689 0-1.25.561-1.25 1.25s.561 1.25 1.25 1.25 1.25-.561 1.25-1.25-.561-1.25-1.25-1.25z"/><path d="m29.5 30.25h-23c-.231 0-.449-.106-.591-.289-.143-.182-.192-.419-.137-.644l.596-2.382c.31-1.241 1.22-2.224 2.435-2.629l4.399-1.466c.543-.229.91-1.131.964-2.426-.548-.51-1.58-1.629-1.58-2.811 0-.169-.028-.265-.048-.305-.178-.078-.32-.224-.394-.407-.057-.141-.55-1.398-.55-2.262 0-.062.008-.123.022-.182.074-.295.24-.592.488-.797.005-.106.011-.222.018-.346.028-.537.066-1.252.066-2.145 0-2.128 2.495-5.41 5.811-5.41 2.824 0 4.246 1.488 4.556 2.523.669.392 1.307 1.086 1.307 2.887v2.494c.245.198.413.476.502.73.027.079.041.162.041.246 0 .863-.493 2.121-.55 2.262-.073.184-.216.329-.394.407-.02.04-.048.136-.048.305 0 1.182-1.032 2.3-1.58 2.811.054 1.296.425 2.199 1.015 2.445l4.349 1.447c1.215.405 2.125 1.388 2.435 2.63l.596 2.381c.056.224.006.461-.137.644-.142.183-.36.289-.591.289zm-22.039-1.5h21.078l-.362-1.45c-.186-.742-.729-1.329-1.454-1.571l-4.399-1.466c-1.306-.542-1.996-2.02-1.996-4.181 0-.224.1-.436.272-.578.749-.619 1.314-1.436 1.314-1.9 0-.785.313-1.254.637-1.504.134-.373.287-.879.337-1.25-.305-.095-.525-.38-.525-.716v-2.974c0-1.31-.388-1.506-.619-1.623-.17-.086-.622-.315-.622-.855-.057-.294-.945-1.432-3.122-1.432-2.447 0-4.311 2.605-4.311 3.91 0 .926-.039 1.667-.068 2.224-.017.313-.03.563-.03.75 0 .319-.2.592-.481.7.048.374.204.888.339 1.265.324.25.638.719.638 1.504 0 .464.565 1.281 1.314 1.9.173.143.272.354.272.578 0 2.161-.69 3.639-1.945 4.162l-4.45 1.485c-.726.242-1.269.829-1.454 1.57zm15.882-11.411s-.001 0-.002 0c.001.001.002 0 .002 0zm-10.686 0h.002c-.001.001-.002 0-.002 0zm10.689 0c-.001 0-.001 0-.002 0zm-10.692 0h.002c-.001 0-.001 0-.002 0z"/><path d="m18 30.25c-.261 0-.502-.135-.639-.357l-4-6.5 1.277-.786 3.362 5.462 3.361-5.462 1.277.786-4 6.5c-.136.222-.377.357-.638.357z"/><path d="m26.967 3.805h1v2h-1z" fill="#a4afc1" transform="matrix(.707 -.707 .707 .707 4.644 20.826)"/><path d="m31.033 7.871h1v2h-1z" fill="#a4afc1" transform="matrix(.707 -.707 .707 .707 2.96 24.891)"/><path d="m30.533 4.129h2v1h-2z" fill="#a4afc1" transform="matrix(.707 -.707 .707 .707 5.963 23.653)"/></svg>