<svg id="effect" height="512" viewBox="0 0 36 36" width="512" xmlns="http://www.w3.org/2000/svg"><path d="m8.377 4.167c6.917 0 11.667-3.583 15-3.583s10.333 1.916 10.333 17.249-9.417 17.583-13.083 17.583c-17.167.001-24.5-31.249-12.25-31.249z" fill="#efefef"/><path d="m25.5 16.5c-2.209 0-4-1.791-4-4v-5c0-.552.448-1 1-1h6c.552 0 1 .448 1 1v5c0 2.209-1.791 4-4 4z" fill="#2fdf84"/><path d="m18 19.5h-8c-.552 0-1-.448-1-1v-3c0-2.761 2.239-5 5-5 2.761 0 5 2.239 5 5v3c0 .552-.448 1-1 1z" fill="#f3f3f1"/><path d="m21.5 25.5v4h-15v-4c0-1.66 1.34-3 3-3h9c1.66 0 3 1.34 3 3z" fill="#f3f3f1"/><path d="m17 16.5c-2 0-3-1.5-3-3 0 1.5-1 3-3 3 0 1.66 1.34 3 3 3s3-1.34 3-3z" fill="#2fdf84"/><path d="m26.5 16.37c-.32.09-.65.13-1 .13-2.21 0-4-1.79-4-4v-5c0-.55.45-1 1-1h2c-.55 0-1 .45-1 1v5c0 1.86 1.27 3.43 3 3.87z" fill="#00b871"/><path d="m13.113 15.684c-.497.487-1.194.816-2.113.816 0 1.66 1.34 3 3 3 .35 0 .69-.06 1-.18-1.406-.481-2.314-1.989-1.887-3.636z" fill="#00b871"/><path d="m11.5 22.5c-1.66 0-3 1.34-3 3v4h-2v-4c0-1.66 1.34-3 3-3z" fill="#d5dbe1"/><path d="m11 15.5v3c0 .55.45 1 1 1h-2c-.55 0-1-.45-1-1v-3c0-2.76 2.24-5 5-5 .34 0 .67.03.99.1-2.27.47-3.99 2.48-3.99 4.9z" fill="#d5dbe1"/><path d="m21.5 30.25h-15c-.414 0-.75-.336-.75-.75v-4c0-2.067 1.683-3.75 3.75-3.75h9c2.067 0 3.75 1.683 3.75 3.75v4c0 .414-.336.75-.75.75zm-14.25-1.5h13.5v-3.25c0-1.24-1.01-2.25-2.25-2.25h-9c-1.24 0-2.25 1.01-2.25 2.25z"/><path d="m14 20.25c-2.067 0-3.75-1.683-3.75-3.75 0-.414.336-.75.75-.75 1.555 0 2.25-1.13 2.25-2.25 0-.414.336-.75.75-.75s.75.336.75.75c0 1.12.695 2.25 2.25 2.25.414 0 .75.336.75.75 0 2.067-1.683 3.75-3.75 3.75zm-2.148-3.081c.285.915 1.141 1.581 2.148 1.581s1.863-.666 2.148-1.581c-.943-.188-1.662-.688-2.148-1.343-.486.655-1.205 1.154-2.148 1.343z"/><path d="m18 20.25h-8c-.965 0-1.75-.785-1.75-1.75v-3c0-3.171 2.579-5.75 5.75-5.75s5.75 2.579 5.75 5.75v3c0 .965-.785 1.75-1.75 1.75zm-4-9c-2.344 0-4.25 1.906-4.25 4.25v3c0 .138.112.25.25.25h8c.138 0 .25-.112.25-.25v-3c0-2.344-1.906-4.25-4.25-4.25z"/><path d="m25.5 17.25c-2.619 0-4.75-2.131-4.75-4.75v-5c0-.965.785-1.75 1.75-1.75h6c.965 0 1.75.785 1.75 1.75v5c0 2.619-2.131 4.75-4.75 4.75zm-3-10c-.138 0-.25.112-.25.25v5c0 1.792 1.458 3.25 3.25 3.25s3.25-1.458 3.25-3.25v-5c0-.138-.112-.25-.25-.25z"/><path d="m23.5 27.25h-2v-1.5h2c.689 0 1.25-.561 1.25-1.25v-8h1.5v8c0 1.517-1.233 2.75-2.75 2.75z"/><path d="m24.75 8.75h1.5v4.5h-1.5z"/><path d="m23.25 10.25h4.5v1.5h-4.5z"/><path d="m12.069 6.625c-.827 0-1.5-.673-1.5-1.5s.673-1.5 1.5-1.5 1.5.673 1.5 1.5-.673 1.5-1.5 1.5zm0-2c-.275 0-.5.225-.5.5s.225.5.5.5.5-.225.5-.5-.224-.5-.5-.5z" fill="#a4afc1"/></svg>