<svg id="effect" height="512" viewBox="0 0 36 36" width="512" xmlns="http://www.w3.org/2000/svg"><path d="m8.377 31.833c6.917 0 11.667 3.583 15 3.583s10.333-1.916 10.333-17.249-9.417-17.584-13.083-17.584c-17.167 0-24.5 31.25-12.25 31.25z" fill="#efefef"/><path d="m22.5 17.5h-9c-.552 0-1-.448-1-1v-4.5c0-3.038 2.462-5.5 5.5-5.5 3.038 0 5.5 2.462 5.5 5.5v4.5c0 .552-.448 1-1 1z" fill="#f3f3f1"/><path d="m27.5 24.5v4c0 .55-.45 1-1 1h-6c0-2.21-1.79-4-4-4h-3.39l.89 4h-4.5c-.55 0-1-.45-1-1v-4c0-2.04 1.53-3.73 3.51-3.97.16-.02.32-.03.49-.03h11c2.21 0 4 1.79 4 4z" fill="#f3f3f1"/><path d="m21.5 14c-2.333 0-3.5-1.75-3.5-3.5 0 1.75-1.167 3.5-3.5 3.5 0 1.937 1.563 3.5 3.5 3.5s3.5-1.563 3.5-3.5z" fill="#2fdf84"/><path d="m20.5 29.5h-6.5l-.89-4h3.39c2.21 0 4 1.79 4 4z" fill="#2fdf84"/><path d="m16.555 13.397c-.537.369-1.221.603-2.055.603 0 1.94 1.56 3.5 3.5 3.5.35 0 .69-.05 1-.15-1.63-.472-2.749-2.108-2.445-3.953z" fill="#00b871"/><path d="m16 29.5h-2l-.89-4h2z" fill="#00b871"/><path d="m14.5 12v4.5c0 .55.45 1 1 1h-2c-.55 0-1-.45-1-1v-4.5c0-3.04 2.46-5.5 5.5-5.5.34 0 .68.03 1 .09-2.56.47-4.5 2.71-4.5 5.41z" fill="#d5dbe1"/><path d="m14.5 20.5c-.17 0-.33.01-.49.03-1.98.24-3.51 1.93-3.51 3.97v4c0 .55.45 1 1 1h-2c-.55 0-1-.45-1-1v-4c0-2.04 1.53-3.73 3.51-3.97.16-.02.32-.03.49-.03z" fill="#d5dbe1"/><path d="m26.5 30.25h-17c-.965 0-1.75-.785-1.75-1.75v-4c0-2.619 2.131-4.75 4.75-4.75h11c2.619 0 4.75 2.131 4.75 4.75v4c0 .965-.785 1.75-1.75 1.75zm-14-9c-1.792 0-3.25 1.458-3.25 3.25v4c0 .138.112.25.25.25h17c.138 0 .25-.112.25-.25v-4c0-1.792-1.458-3.25-3.25-3.25z"/><path d="m18 18.25c-2.343 0-4.25-1.906-4.25-4.25 0-.414.336-.75.75-.75 1.9 0 2.75-1.381 2.75-2.75 0-.414.336-.75.75-.75s.75.336.75.75c0 1.369.85 2.75 2.75 2.75.414 0 .75.336.75.75 0 2.344-1.907 4.25-4.25 4.25zm-2.665-3.568c.305 1.187 1.384 2.068 2.665 2.068s2.36-.881 2.665-2.068c-1.201-.203-2.094-.845-2.665-1.687-.571.842-1.464 1.484-2.665 1.687z"/><path d="m22.5 18.25h-9c-.965 0-1.75-.785-1.75-1.75v-4.5c0-3.446 2.804-6.25 6.25-6.25s6.25 2.804 6.25 6.25v4.5c0 .965-.785 1.75-1.75 1.75zm-4.5-11c-2.619 0-4.75 2.131-4.75 4.75v4.5c0 .138.112.25.25.25h9c.138 0 .25-.112.25-.25v-4.5c0-2.619-2.131-4.75-4.75-4.75z"/><path d="m20.5 30.25h-7v-1.5h6.163c-.339-1.432-1.628-2.5-3.163-2.5h-5v-1.5h5c2.619 0 4.75 2.131 4.75 4.75 0 .414-.336.75-.75.75z"/><path d="m12.25 20.39h1.5v9.22h-1.5z" transform="matrix(.976 -.217 .217 .976 -5.114 3.415)"/><path d="m15.45 22.25h5.099v1.5h-5.099z" transform="matrix(.197 -.981 .981 .197 -8.09 36.127)"/><path d="m30.5 8.699c-.827 0-1.5-.673-1.5-1.5s.673-1.5 1.5-1.5 1.5.673 1.5 1.5-.673 1.5-1.5 1.5zm0-2c-.276 0-.5.225-.5.5s.224.5.5.5.5-.225.5-.5-.224-.5-.5-.5z" fill="#a4afc1"/></svg>