<svg id="effect" height="512" viewBox="0 0 36 36" width="512" xmlns="http://www.w3.org/2000/svg"><path d="m13.411 34.999c6.298-2.859 12.105-1.559 15.14-2.936 3.035-1.378 8.617-6.016 2.28-19.978s-15.841-12.12-19.18-10.605c-15.632 7.095-9.395 38.582 1.76 33.519z" fill="#efefef"/><path d="m8.5 18.56c-1.1 0-2 .9-2 2s.9 2 2 2c.08 0 .16 0 .24-.01z" fill="#f3f3f1"/><path d="m25.5 18.56c1.1 0 2 .9 2 2s-.9 2-2 2c-.08 0-.16 0-.24-.01z" fill="#f3f3f1"/><path d="m25.5 16.01v2.49l-2.8-.4c-1.36-.2-2.68-.61-3.89-1.22-1.22-.6-2.33-1.4-3.31-2.38-1.28 1.92-3.27 3.25-5.54 3.71l-1.46.29c0-1.22 0-2.49 0-2.49 0-4.65 4.66-6.51 8.5-6.51s8.5 1.86 8.5 6.51z" fill="#2fdf84"/><path d="m22.7 18.1c-1.36-.2-2.68-.61-3.89-1.22-1.22-.6-2.33-1.4-3.31-2.38-1.28 1.92-3.27 3.25-5.54 3.71l-1.46.29v2.17c0 .66.07 1.3.21 1.92.7 2.94 2.91 5.68 6.04 6.59h4.5c3.36-.95 5.42-4 6.04-6.59.14-.62.21-1.26.21-1.92v-2.17z" fill="#f3f3f1"/><path d="m18 9.55c-3.6.29-7.5 2.21-7.5 6.46v2.07c-.18.05-.36.09-.54.13l-1.46.29c0-1.22 0-2.49 0-2.49 0-4.65 4.66-6.51 8.5-6.51.33 0 .66.01 1 .05z" fill="#00b871"/><path d="m10.71 22.59c-.14-.62-.21-1.26-.21-1.92v-2.597c-.179.048-.357.1-.54.137l-1.46.29v2.17c0 .66.07 1.3.21 1.92.7 2.94 2.91 5.68 6.04 6.59l2.187.06c-3.233-.855-5.51-3.657-6.227-6.65z" fill="#d5dbe1"/><path d="m8.5 23.31c-1.517 0-2.75-1.233-2.75-2.75s1.233-2.75 2.75-2.75v1.5c-.689 0-1.25.561-1.25 1.25 0 .708.6 1.263 1.306 1.25.031 0 .063 0 .094-.004l.182 1.488c-.111.014-.222.016-.332.016z"/><path d="m25.5 23.31c-.11 0-.221-.002-.331-.016l.182-1.488c.049.006.099.004.149.004.689 0 1.25-.561 1.25-1.25s-.561-1.25-1.25-1.25v-1.5c1.517 0 2.75 1.233 2.75 2.75s-1.233 2.75-2.75 2.75z"/><path d="m17 30.25c-4.968 0-8.158-3.881-9.02-7.486-.153-.682-.23-1.383-.23-2.094v-4.66c0-4.988 4.795-7.26 9.25-7.26.322 0 .657.011 1 .043l-.141 1.494c-.296-.028-.582-.037-.859-.037-3.732 0-7.75 1.803-7.75 5.76v4.66c0 .6.064 1.19.191 1.755.727 3.042 3.404 6.325 7.559 6.325 4.151 0 6.829-3.284 7.561-6.335.125-.555.189-1.146.189-1.745v-4.66c0-.641-.1-1.241-.296-1.786l1.412-.508c.255.708.384 1.479.384 2.294v4.66c0 .711-.077 1.412-.229 2.085-.866 3.615-4.056 7.495-9.021 7.495z"/><path d="m25.394 19.242-2.8-.4c-2.58-.367-5.031-1.501-6.99-3.218-1.383 1.714-3.304 2.881-5.491 3.318l-1.465.293-.295-1.471 1.465-.293c2.084-.417 3.881-1.62 5.059-3.388.125-.187.326-.309.55-.33.23-.026.445.057.604.216 1.821 1.821 4.228 3.024 6.775 3.388l2.801.4z"/><path d="m12.75 18.336h1.5v4.328h-1.5z" transform="matrix(.707 -.707 .707 .707 -10.542 15.55)"/><path d="m11.336 19.75h4.328v1.5h-4.328z" transform="matrix(.707 -.707 .707 .707 -10.542 15.55)"/><path d="m19.75 18.336h1.5v4.328h-1.5z" transform="matrix(.707 -.707 .707 .707 -8.491 20.5)"/><path d="m18.336 19.75h4.328v1.5h-4.328z" transform="matrix(.707 -.707 .707 .707 -8.491 20.5)"/><path d="m17 26.156c-.591 0-1.143-.247-1.554-.697-.246-.27-.646-.27-.893 0l-.5.547-1.107-1.012.5-.547c.822-.9 2.285-.9 3.107 0 .246.27.646.27.893 0 .822-.9 2.285-.9 3.107 0l.5.547-1.107 1.012-.5-.547c-.246-.27-.646-.27-.893 0-.41.45-.962.697-1.553.697z"/><path d="m24.609 12.552-.911-1.192.804-.613c.251-.192.255-.463.245-.57-.01-.105-.062-.367-.337-.507-.653-.333-1.084-.972-1.151-1.709-.067-.74.242-1.45.829-1.897l.803-.614.911 1.192-.804.613c-.251.192-.255.463-.245.57.01.105.062.367.337.507.653.333 1.084.972 1.151 1.709.067.74-.242 1.45-.829 1.897z"/><path d="m20.609 12.552-.911-1.192.804-.613c.251-.192.255-.463.245-.57-.01-.105-.062-.367-.337-.507-.653-.333-1.084-.972-1.151-1.709-.067-.74.242-1.45.829-1.897l.803-.614.911 1.192-.804.613c-.251.192-.255.463-.245.57.01.105.062.367.337.507.653.333 1.084.972 1.151 1.709.067.74-.242 1.45-.829 1.897z"/><path d="m28.609 12.552-.911-1.192.804-.613c.251-.192.255-.463.245-.57-.01-.105-.062-.367-.337-.507-.653-.333-1.084-.972-1.151-1.709-.067-.74.242-1.45.829-1.897l.803-.614.911 1.192-.804.613c-.251.192-.255.463-.245.57.01.105.062.367.337.507.653.333 1.084.972 1.151 1.709.067.74-.242 1.45-.829 1.897z"/><path d="m8.5 5.803c-.384 0-.769-.146-1.061-.438-.585-.585-.585-1.536 0-2.121.584-.584 1.537-.584 2.121 0 .585.585.585 1.536 0 2.121-.291.291-.676.438-1.06.438zm0-1.999c-.128 0-.256.049-.354.146-.195.195-.195.512 0 .707s.512.195.707 0 .195-.512 0-.707c-.097-.097-.225-.146-.353-.146z" fill="#a4afc1"/></svg>