<svg id="effect" height="512" viewBox="0 0 36 36" width="512" xmlns="http://www.w3.org/2000/svg"><path d="m3.442 23.883c6.061 3.333 8.497 8.761 11.417 10.367 2.921 1.606 9.978 3.299 17.366-10.137s.221-19.945-2.992-21.712c-15.042-8.27-36.525 15.58-25.791 21.482z" fill="#efefef"/><path d="m9.5 15.56c-1.1 0-2 .9-2 2s.9 2 2 2c.08 0 .16 0 .24-.01z" fill="#f3f3f1"/><path d="m26.5 15.56c1.1 0 2 .9 2 2s-.9 2-2 2c-.08 0-.16 0-.24-.01z" fill="#f3f3f1"/><path d="m26.5 13.01v2.49l-2.8-.4c-1.36-.2-2.68-.61-3.89-1.22-1.22-.6-2.33-1.4-3.31-2.38-1.28 1.92-3.27 3.25-5.54 3.71l-1.46.29c0-1.22 0-2.49 0-2.49 0-4.65 4.66-6.51 8.5-6.51s8.5 1.86 8.5 6.51z" fill="#2fdf84"/><path d="m23.7 15.1c-1.36-.2-2.68-.61-3.89-1.22-1.22-.6-2.33-1.4-3.31-2.38-1.28 1.92-3.27 3.25-5.54 3.71l-1.46.29v2.17c0 .66.07 1.3.21 1.92.7 2.94 2.91 5.68 6.04 6.59h4.5c3.36-.95 5.42-4 6.04-6.59.14-.62.21-1.26.21-1.92v-2.17z" fill="#f3f3f1"/><path d="m14.165 29.5 4.799-5.436c.754-.854.707-2.135-.107-2.934-.582-.572-1.445-.771-2.23-.53-4.214 1.294-7.007 3.292-8.127 6.119 2.733-.315 4.707.9 5.665 2.781z" fill="#2fdf84"/><path d="m19 6.55c-3.6.29-7.5 2.21-7.5 6.46v2.07c-.18.05-.36.09-.54.13l-1.46.29c0-1.22 0-2.49 0-2.49 0-4.65 4.66-6.51 8.5-6.51.33 0 .66.01 1 .05z" fill="#00b871"/><path d="m15.27 28.24-1.11 1.26c-.95-1.88-2.93-3.1-5.66-2.78 1.12-2.83 3.91-4.83 8.13-6.12.22-.07.44-.1.67-.1.33 0 .66.07.96.22-4.01 1.29-6.67 3.25-7.76 6 2.05-.24 3.68.39 4.77 1.52z" fill="#00b871"/><path d="m10.96 15.21-1.46.29v2.17c0 .66.07 1.3.21 1.92.298 1.251.883 2.456 1.682 3.508l1.366-.95c-.471-.808-.836-1.671-1.049-2.558-.14-.62-.21-1.26-.21-1.92v-2.597c-.178.048-.356.1-.539.137z" fill="#d5dbe1"/><path d="m9.5 20.31c-1.516 0-2.75-1.233-2.75-2.75s1.234-2.75 2.75-2.75v1.5c-.689 0-1.25.561-1.25 1.25 0 .708.58 1.244 1.306 1.25.031 0 .062 0 .093-.004l.182 1.488c-.11.014-.221.016-.331.016z"/><path d="m26.5 20.31c-.11 0-.221-.002-.331-.016l.182-1.488c.05.006.1.004.149.004.689 0 1.25-.561 1.25-1.25s-.561-1.25-1.25-1.25v-1.5c1.516 0 2.75 1.233 2.75 2.75s-1.234 2.75-2.75 2.75z"/><path d="m18 27.25c-.423 0-.841-.033-1.243-.1l.245-1.48c.32.054.656.08.998.08 4.152 0 6.83-3.284 7.561-6.335.125-.553.189-1.144.189-1.745v-4.66c0-3.957-4.018-5.76-7.75-5.76s-7.75 1.803-7.75 5.76v4.66c0 .602.064 1.192.191 1.755.275 1.147.807 2.265 1.535 3.221l-1.193.908c-.854-1.12-1.477-2.43-1.803-3.789-.154-.68-.23-1.382-.23-2.095v-4.66c0-4.988 4.795-7.26 9.25-7.26s9.25 2.271 9.25 7.26v4.66c0 .713-.077 1.415-.229 2.085-.866 3.615-4.057 7.495-9.021 7.495z"/><path d="m26.394 16.242-2.8-.4c-2.581-.367-5.032-1.501-6.99-3.218-1.384 1.714-3.305 2.881-5.493 3.318l-1.464.293-.294-1.471 1.464-.293c2.083-.417 3.88-1.62 5.059-3.388.125-.187.327-.309.55-.33.22-.029.445.057.604.216 1.821 1.821 4.228 3.024 6.776 3.388l2.8.4z"/><path d="m13.835 19.171-.671-1.342.658-.329-.658-.329.671-1.342 2 1c.254.127.415.387.415.671s-.161.544-.415.671z"/><path d="m22.165 19.171-2-1c-.254-.127-.415-.387-.415-.671s.161-.544.415-.671l2-1 .671 1.342-.659.329.658.329z"/><path d="m14.165 30.25c-.031 0-.063-.002-.094-.006-.247-.031-.461-.183-.574-.403-.899-1.768-2.688-2.638-4.91-2.376-.264.026-.521-.08-.682-.288-.16-.21-.199-.488-.102-.733 1.172-2.96 4.067-5.167 8.604-6.56 1.06-.324 2.198-.053 2.976.711 1.095 1.075 1.158 2.817.144 3.966l-4.799 5.436c-.144.162-.349.253-.563.253zm-4.43-4.318c1.875.103 3.476.92 4.532 2.319l4.135-4.683c.486-.551.455-1.388-.07-1.903-.384-.377-.954-.511-1.484-.348-3.484 1.07-5.87 2.62-7.113 4.615z"/><g fill="#a4afc1"><path d="m9.533 4.415h2v1h-2z" transform="matrix(.707 -.707 .707 .707 -.39 8.888)"/><path d="m5.467 8.481h2v1h-2z" transform="matrix(.707 -.707 .707 .707 -4.457 7.204)"/><path d="m5.967 3.738h1v2h-1z" transform="matrix(.707 -.707 .707 .707 -1.456 5.962)"/></g></svg>