<svg id="effect" height="512" viewBox="0 0 36 36" width="512" xmlns="http://www.w3.org/2000/svg"><path d="m34.904 20.355c-3.782-5.791-3.38-11.727-5.203-14.518s-7.256-7.603-20.093.782-9.572 17.5-7.566 20.569c9.388 14.372 39.561 3.423 32.862-6.833z" fill="#efefef"/><path d="m8.5 18.56c-1.1 0-2 .9-2 2s.9 2 2 2c.08 0 .16 0 .24-.01z" fill="#f3f3f1"/><path d="m25.5 18.56c1.1 0 2 .9 2 2s-.9 2-2 2c-.08 0-.16 0-.24-.01z" fill="#f3f3f1"/><path d="m25.5 16.01v2.49l-2.8-.4c-1.36-.2-2.68-.61-3.89-1.22-1.22-.6-2.33-1.4-3.31-2.38-1.28 1.92-3.27 3.25-5.54 3.71l-1.46.29c0-1.22 0-2.49 0-2.49 0-4.65 4.66-6.51 8.5-6.51s8.5 1.86 8.5 6.51z" fill="#2fdf84"/><path d="m22.7 18.1c-1.36-.2-2.68-.61-3.89-1.22-1.22-.6-2.33-1.4-3.31-2.38-1.28 1.92-3.27 3.25-5.54 3.71l-1.46.29v2.17c0 .66.07 1.3.21 1.92.7 2.94 2.91 5.68 6.04 6.59h4.5c3.36-.95 5.42-4 6.04-6.59.14-.62.21-1.26.21-1.92v-2.17z" fill="#f3f3f1"/><g fill="#2fdf84"><path d="m29.5 6.5-5 3 2 2.5-2 3.5 5-3-2-2.5z"/><circle cx="13.5" cy="20.56" r=".94"/><circle cx="20.5" cy="20.56" r=".94"/></g><path d="m18 9.55c-3.6.29-7.5 2.21-7.5 6.46v2.07c-.18.05-.36.09-.54.13l-1.46.29c0-1.22 0-2.49 0-2.49 0-4.65 4.66-6.51 8.5-6.51.33 0 .66.01 1 .05z" fill="#00b871"/><path d="m26.5 9.5 2 2.5-.96 1.67-3.04 1.83 2-3.5-2-2.5 5-3-1.04 1.83z" fill="#00b871"/><path d="m10.71 22.59c-.14-.62-.21-1.26-.21-1.92v-2.17l1.46-.29c1.84-.37 3.49-1.31 4.72-2.68-.41-.31-.81-.66-1.18-1.03-1.28 1.92-3.27 3.25-5.54 3.71l-1.46.29v2.17c0 .66.07 1.3.21 1.92.7 2.94 2.91 5.68 6.04 6.59l2.187.06c-3.233-.855-5.51-3.657-6.227-6.65z" fill="#d5dbe1"/><path d="m24.5 16.25c-.191 0-.381-.073-.525-.214-.244-.239-.295-.612-.126-.908l1.747-3.058-1.681-2.102c-.136-.168-.191-.388-.153-.601.039-.213.167-.399.353-.511l5-3c.292-.173.667-.131.911.107.244.239.295.612.126.908l-1.748 3.059 1.681 2.102c.135.169.191.389.153.602-.039.213-.167.399-.353.511l-5 3c-.119.07-.252.105-.385.105zm1.122-6.549 1.464 1.83c.192.24.218.573.066.841l-.576 1.008 1.803-1.081-1.464-1.83c-.192-.24-.218-.573-.066-.841l.576-1.008z"/><path d="m13.5 22.25c-.965 0-1.75-.785-1.75-1.75s.785-1.75 1.75-1.75 1.75.785 1.75 1.75-.785 1.75-1.75 1.75zm0-2c-.138 0-.25.112-.25.25 0 .275.5.275.5 0 0-.138-.112-.25-.25-.25z"/><path d="m20.5 22.25c-.965 0-1.75-.785-1.75-1.75s.785-1.75 1.75-1.75 1.75.785 1.75 1.75-.785 1.75-1.75 1.75zm0-2c-.138 0-.25.112-.25.25 0 .275.5.275.5 0 0-.138-.112-.25-.25-.25z"/><path d="m8.5 23.31c-1.516 0-2.75-1.233-2.75-2.75s1.234-2.75 2.75-2.75v1.5c-.689 0-1.25.561-1.25 1.25 0 .708.576 1.263 1.306 1.25.031 0 .062 0 .093-.004l.182 1.488c-.11.014-.221.016-.331.016z"/><path d="m25.5 23.31c-.11 0-.221-.002-.331-.016l.182-1.488c.051.007.1.004.149.004.689 0 1.25-.561 1.25-1.25s-.561-1.25-1.25-1.25v-1.5c1.516 0 2.75 1.233 2.75 2.75s-1.234 2.75-2.75 2.75z"/><path d="m19.032 27.086c-1.387-1.109-2.677-1.109-4.063 0l-.937-1.172c1.941-1.553 3.995-1.553 5.937 0z"/><path d="m17 30.25c-4.969 0-8.159-3.881-9.02-7.486-.154-.679-.23-1.381-.23-2.094v-4.66c0-4.988 4.795-7.26 9.25-7.26 1.757 0 3.526.365 4.981 1.027l-.622 1.365c-1.264-.575-2.812-.892-4.359-.892-3.732 0-7.75 1.803-7.75 5.76v4.66c0 .602.064 1.192.191 1.755.727 3.042 3.403 6.325 7.559 6.325 4.152 0 6.83-3.284 7.561-6.335.125-.553.189-1.144.189-1.745v-2.35h1.5v2.35c0 .713-.077 1.415-.229 2.085-.866 3.615-4.057 7.495-9.021 7.495z"/><path d="m25.394 19.242-2.8-.4c-2.581-.367-5.032-1.501-6.99-3.218-1.384 1.714-3.305 2.881-5.493 3.318l-1.464.293-.294-1.471 1.464-.293c2.083-.417 3.88-1.62 5.059-3.388.125-.187.327-.309.55-.33.222-.025.445.057.604.216 1.821 1.821 4.228 3.024 6.776 3.388l2.8.4z"/><path d="m25.5 5.053c-.827 0-1.5-.673-1.5-1.5s.673-1.5 1.5-1.5 1.5.673 1.5 1.5-.673 1.5-1.5 1.5zm0-2c-.276 0-.5.225-.5.5s.224.5.5.5.5-.225.5-.5-.224-.5-.5-.5z" fill="#a4afc1"/></svg>