<svg id="effect" height="512" viewBox="0 0 36 36" width="512" xmlns="http://www.w3.org/2000/svg"><path d="m13.411 34.999c6.298-2.859 12.105-1.559 15.14-2.936 3.035-1.378 8.617-6.016 2.28-19.978s-15.841-12.12-19.18-10.605c-15.632 7.095-9.395 38.582 1.76 33.519z" fill="#efefef"/><path d="m17.5 12.5h1c.552 0 1 .448 1 1v3h3c.552 0 1 .448 1 1v1c0 .552-.448 1-1 1h-3v3c0 .552-.448 1-1 1h-1c-.552 0-1-.448-1-1v-3h-3c-.552 0-1-.448-1-1v-1c0-.552.448-1 1-1h3v-3c0-.552.448-1 1-1z" fill="#2fdf84"/><path d="m15.5 19.5h-2c-.55 0-1-.45-1-1v-1c0-.55.45-1 1-1h2c-.55 0-1 .45-1 1v1c0 .55.45 1 1 1z" fill="#00b871"/><path d="m6.039 20.665c-.192-.85-.289-1.746-.289-2.665 0-6.755 5.495-12.25 12.25-12.25 3.879 0 7.563 1.868 9.855 4.997l-1.21.887c-2.01-2.745-5.242-4.384-8.645-4.384-5.928 0-10.75 4.822-10.75 10.75 0 .808.084 1.594.251 2.335z"/><path d="m18 30.25c-3.879 0-7.563-1.868-9.855-4.997l1.21-.887c2.01 2.745 5.242 4.383 8.645 4.383 5.928 0 10.75-4.822 10.75-10.75 0-.819-.087-1.602-.259-2.327l1.459-.347c.199.838.3 1.738.3 2.673 0 6.757-5.495 12.252-12.25 12.252z"/><path d="m7.813 28.263-.063-3.75c-.003-.201.074-.395.215-.539s.334-.224.535-.224h3.75v1.5h-2.987l.05 2.987z"/><path d="m27.5 12.25h-3.75v-1.5h3v-3h1.5v3.75c0 .414-.336.75-.75.75z"/><path d="m18.5 24.25h-1c-.965 0-1.75-.785-1.75-1.75v-2.25h-2.25c-.965 0-1.75-.785-1.75-1.75v-1c0-.965.785-1.75 1.75-1.75h2.25v-2.25c0-.965.785-1.75 1.75-1.75h1c.965 0 1.75.785 1.75 1.75v2.25h2.25c.965 0 1.75.785 1.75 1.75v1c0 .965-.785 1.75-1.75 1.75h-2.25v2.25c0 .965-.785 1.75-1.75 1.75zm-5-7c-.138 0-.25.112-.25.25v1c0 .138.112.25.25.25h3c.414 0 .75.336.75.75v3c0 .138.112.25.25.25h1c.138 0 .25-.112.25-.25v-3c0-.414.336-.75.75-.75h3c.138 0 .25-.112.25-.25v-1c0-.138-.112-.25-.25-.25h-3c-.414 0-.75-.336-.75-.75v-3c0-.138-.112-.25-.25-.25h-1c-.138 0-.25.112-.25.25v3c0 .414-.336.75-.75.75z"/><path d="m29.812 5.178c-.827 0-1.5-.673-1.5-1.5s.673-1.5 1.5-1.5 1.5.673 1.5 1.5-.673 1.5-1.5 1.5zm0-2c-.276 0-.5.224-.5.5s.224.5.5.5.5-.224.5-.5-.224-.5-.5-.5z" fill="#a4afc1"/></svg>