<svg id="effect" height="512" viewBox="0 0 36 36" width="512" xmlns="http://www.w3.org/2000/svg"><path d="m8.377 4.167c6.917 0 11.667-3.583 15-3.583s10.333 1.916 10.333 17.249-9.417 17.583-13.083 17.583c-17.167.001-24.5-31.249-12.25-31.249z" fill="#efefef"/><circle cx="24" cy="28" fill="#2fdf84" r="1.5"/><circle cx="12" cy="28" fill="#2fdf84" r="1.5"/><path d="m6.5 19.5h23v-1c0-1.105-.895-2-2-2h-19c-1.105 0-2 .895-2 2z" fill="#f3f3f1"/><circle cx="9.5" cy="12.5" fill="#2fdf84" r="2"/><path d="m28.388 13.053-.213-.407c-.69-1.319-2.056-2.146-3.544-2.146h-8.131c-1.105 0-2 .895-2 2v2h12.953c.777 0 1.283-.782.935-1.447z" fill="#f3f3f1"/><path d="m10.5 14.23c-.29.17-.64.27-1 .27-1.1 0-2-.9-2-2s.9-2 2-2c.36 0 .71.1 1 .27-.6.35-1 .99-1 1.73s.4 1.38 1 1.73z" fill="#00b871"/><path d="m10.5 16.5c-1.1 0-2 .9-2 2v1h-2v-1c0-1.1.9-2 2-2z" fill="#d5dbe1"/><path d="m18.5 10.5c-1.1 0-2 .9-2 2v2h-2v-2c0-1.1.9-2 2-2z" fill="#d5dbe1"/><path d="m16.64 16.713h1.501v13.213h-1.501z" transform="matrix(.578 -.816 .816 .578 -11.691 24.025)"/><path d="m24 30.25c-1.24 0-2.25-1.01-2.25-2.25s1.01-2.25 2.25-2.25 2.25 1.01 2.25 2.25-1.01 2.25-2.25 2.25zm0-3c-.413 0-.75.337-.75.75s.337.75.75.75.75-.337.75-.75-.337-.75-.75-.75z"/><path d="m12.003 22.57h13.213v1.501h-13.213z" transform="matrix(.816 -.578 .578 .816 -10.054 15.043)"/><path d="m12 30.25c-1.24 0-2.25-1.01-2.25-2.25s1.01-2.25 2.25-2.25 2.25 1.01 2.25 2.25-1.01 2.25-2.25 2.25zm0-3c-.413 0-.75.337-.75.75s.337.75.75.75.75-.337.75-.75-.337-.75-.75-.75z"/><path d="m29.5 20.25h-23c-.414 0-.75-.336-.75-.75v-1c0-1.517 1.233-2.75 2.75-2.75h19c1.517 0 2.75 1.233 2.75 2.75v1c0 .414-.336.75-.75.75zm-22.25-1.5h21.5v-.25c0-.689-.561-1.25-1.25-1.25h-19c-.689 0-1.25.561-1.25 1.25z"/><path d="m9.5 15.25c-1.517 0-2.75-1.233-2.75-2.75s1.233-2.75 2.75-2.75 2.75 1.233 2.75 2.75-1.233 2.75-2.75 2.75zm0-4c-.689 0-1.25.561-1.25 1.25s.561 1.25 1.25 1.25 1.25-.561 1.25-1.25-.561-1.25-1.25-1.25z"/><path d="m27.452 15.25h-12.952c-.414 0-.75-.336-.75-.75v-2c0-1.517 1.233-2.75 2.75-2.75h8.131c1.773 0 3.387.977 4.209 2.549l.213.406h.001c.28.536.26 1.166-.054 1.684-.326.539-.905.861-1.548.861zm-12.202-1.5h12.202c.163 0 .239-.097.265-.138.042-.069.045-.141.008-.212l-.213-.406c-.563-1.076-1.667-1.744-2.881-1.744h-8.131c-.689 0-1.25.561-1.25 1.25z"/><path d="m27 7.625c-.827 0-1.5-.673-1.5-1.5s.673-1.5 1.5-1.5 1.5.673 1.5 1.5-.673 1.5-1.5 1.5zm0-2c-.275 0-.5.225-.5.5s.225.5.5.5.5-.225.5-.5-.225-.5-.5-.5z" fill="#a4afc1"/></svg>