<svg id="effect" height="512" viewBox="0 0 36 36" width="512" xmlns="http://www.w3.org/2000/svg"><path d="m4.167 27.623c0-6.917-3.583-11.667-3.583-15s1.916-10.333 17.249-10.333 17.583 9.417 17.583 13.083c.001 17.167-31.249 24.5-31.249 12.25z" fill="#efefef"/><circle cx="24" cy="24" fill="#2fdf84" r="1.5"/><circle cx="12" cy="24" fill="#2fdf84" r="1.5"/><path d="m29.5 13.5v1c0 1.1-.9 2-2 2h-19c-1.1 0-2-.9-2-2v-1z" fill="#f3f3f1"/><path d="m10.5 16.5h-2c-1.1 0-2-.9-2-2v-1h2v1c0 1.1.9 2 2 2z" fill="#d5dbe1"/><path d="m16.64 13.489h1.5v12.661h-1.5z" transform="matrix(.524 -.852 .852 .524 -8.605 24.233)"/><path d="m24 26.25c-1.24 0-2.25-1.01-2.25-2.25s1.01-2.25 2.25-2.25 2.25 1.01 2.25 2.25-1.01 2.25-2.25 2.25zm0-3c-.413 0-.75.337-.75.75s.337.75.75.75.75-.337.75-.75-.337-.75-.75-.75z"/><path d="m12.279 19.07h12.661v1.5h-12.661z" transform="matrix(.851 -.525 .525 .851 -7.631 12.709)"/><path d="m12 26.25c-1.24 0-2.25-1.01-2.25-2.25s1.01-2.25 2.25-2.25 2.25 1.01 2.25 2.25-1.01 2.25-2.25 2.25zm0-3c-.413 0-.75.337-.75.75s.337.75.75.75.75-.337.75-.75-.337-.75-.75-.75z"/><path d="m6.5 12.75h23v1.5h-23z"/><path d="m27.5 17.25h-19c-1.517 0-2.75-1.233-2.75-2.75v-3c0-.965.785-1.75 1.75-1.75h10c.965 0 1.75.785 1.75 1.75v2.75h-1.5v-2.75c0-.138-.112-.25-.25-.25h-10c-.138 0-.25.112-.25.25v3c0 .689.561 1.25 1.25 1.25h19c.689 0 1.25-.561 1.25-1.25v-4.75h1.5v4.75c0 1.517-1.233 2.75-2.75 2.75z"/><path d="m9.75 10.5h1.5v3h-1.5z"/><path d="m13.75 10.5h1.5v3h-1.5z"/><path d="m32.5 5.625c-.827 0-1.5-.673-1.5-1.5s.673-1.5 1.5-1.5 1.5.673 1.5 1.5-.673 1.5-1.5 1.5zm0-2c-.275 0-.5.225-.5.5s.225.5.5.5.5-.225.5-.5-.225-.5-.5-.5z" fill="#a4afc1"/></svg>