<svg id="effect" height="512" viewBox="0 0 36 36" width="512" xmlns="http://www.w3.org/2000/svg"><path d="m34.904 20.355c-3.782-5.791-3.38-11.727-5.203-14.518s-7.256-7.603-20.093.782-9.572 17.5-7.566 20.569c9.388 14.372 39.561 3.423 32.862-6.833z" fill="#efefef"/><circle cx="27.5" cy="26.5" fill="#2fdf84" r="1"/><circle cx="8.5" cy="26.5" fill="#2fdf84" r="1"/><path d="m6.5 18.5h23v-1c0-1.105-.895-2-2-2h-19c-1.105 0-2 .895-2 2z" fill="#f3f3f1"/><circle cx="9.5" cy="11.5" fill="#2fdf84" r="2"/><path d="m28.388 12.053-.213-.407c-.69-1.319-2.055-2.146-3.544-2.146h-8.131c-1.105 0-2 .895-2 2v2h12.953c.777 0 1.283-.782.935-1.447z" fill="#f3f3f1"/><path d="m10.5 13.23c-.29.17-.64.27-1 .27-1.1 0-2-.9-2-2s.9-2 2-2c.36 0 .71.1 1 .27-.6.35-1 .99-1 1.73s.4 1.38 1 1.73z" fill="#00b871"/><path d="m10.5 15.5c-1.1 0-2 .9-2 2v1h-2v-1c0-1.1.9-2 2-2z" fill="#d5dbe1"/><path d="m18.5 9.5c-1.1 0-2 .9-2 2v2h-2v-2c0-1.1.9-2 2-2z" fill="#d5dbe1"/><path d="m7.75 18.5h1.5v7h-1.5z"/><path d="m27.5 28.25c-.965 0-1.75-.785-1.75-1.75s.785-1.75 1.75-1.75 1.75.785 1.75 1.75-.785 1.75-1.75 1.75zm0-2c-.138 0-.25.112-.25.25 0 .275.5.275.5 0 0-.138-.112-.25-.25-.25z"/><path d="m8.5 28.25c-.965 0-1.75-.785-1.75-1.75s.785-1.75 1.75-1.75 1.75.785 1.75 1.75-.785 1.75-1.75 1.75zm0-2c-.138 0-.25.112-.25.25 0 .275.5.275.5 0 0-.138-.112-.25-.25-.25z"/><path d="m29.5 19.25h-23c-.414 0-.75-.336-.75-.75v-1c0-1.517 1.233-2.75 2.75-2.75h19c1.517 0 2.75 1.233 2.75 2.75v1c0 .414-.336.75-.75.75zm-22.25-1.5h21.5v-.25c0-.689-.561-1.25-1.25-1.25h-19c-.689 0-1.25.561-1.25 1.25z"/><path d="m8.5 21.75h19v1.5h-19z"/><path d="m9.5 14.25c-1.517 0-2.75-1.233-2.75-2.75s1.233-2.75 2.75-2.75 2.75 1.233 2.75 2.75-1.233 2.75-2.75 2.75zm0-4c-.689 0-1.25.561-1.25 1.25s.561 1.25 1.25 1.25 1.25-.561 1.25-1.25-.561-1.25-1.25-1.25z"/><path d="m27.453 14.25h-12.953c-.414 0-.75-.336-.75-.75v-2c0-1.517 1.234-2.75 2.75-2.75h8.131c1.774 0 3.387.977 4.209 2.549l.213.406c.28.536.261 1.166-.053 1.684-.327.539-.905.861-1.547.861zm-12.203-1.5h12.203c.163 0 .239-.097.264-.138.042-.069.044-.141.007-.212l-.213-.406c-.563-1.076-1.666-1.744-2.88-1.744h-8.131c-.689 0-1.25.561-1.25 1.25z"/><path d="m26.75 18.5h1.5v7h-1.5z"/><path d="m9 7c-.827 0-1.5-.673-1.5-1.5s.673-1.5 1.5-1.5 1.5.673 1.5 1.5-.673 1.5-1.5 1.5zm0-2c-.276 0-.5.225-.5.5s.224.5.5.5.5-.225.5-.5-.224-.5-.5-.5z" fill="#a4afc1"/></svg>