<svg id="effect" height="512" viewBox="0 0 36 36" width="512" xmlns="http://www.w3.org/2000/svg"><path d="m8.114 5.564c-1.805 6.677-6.504 10.327-7.374 13.545s-.847 10.475 13.955 14.477 19.432-4.501 20.388-8.041c4.481-16.572-23.772-31.807-26.969-19.981z" fill="#efefef"/><g fill="#f3f3f1"><path d="m23.5 29.5h-11v-21c0-1.105.895-2 2-2h7c1.105 0 2 .895 2 2z"/><path d="m28.394 16.947-4.894-2.447v15h5c.552 0 1-.448 1-1v-9.764c0-.757-.428-1.45-1.106-1.789z"/><path d="m6.5 18.736v9.764c0 .552.448 1 1 1h5v-15l-4.894 2.447c-.678.339-1.106 1.032-1.106 1.789z"/></g><path d="m18 23.5c-1.381 0-2.5 1.119-2.5 2.5v3.5h5v-3.5c0-1.381-1.119-2.5-2.5-2.5z" fill="#2fdf84"/><path d="m19 23.71c-.88.38-1.5 1.26-1.5 2.29v3.5h-2v-3.5c0-1.38 1.12-2.5 2.5-2.5.35 0 .69.07 1 .21z" fill="#00b871"/><path d="m16.5 6.5c-1.1 0-2 .9-2 2v21h-2v-21c0-1.1.9-2 2-2z" fill="#d5dbe1"/><path d="m25.5 15.5v14h-2v-15z" fill="#d5dbe1"/><path d="m12.5 14.5v1l-2.89 1.45c-.68.34-1.11 1.03-1.11 1.79v9.76c0 .55.45 1 1 1h-2c-.55 0-1-.45-1-1v-9.76c0-.76.43-1.45 1.11-1.79z" fill="#d5dbe1"/><path d="m23.5 30.25h-11c-.414 0-.75-.336-.75-.75v-21c0-1.517 1.233-2.75 2.75-2.75h7c1.517 0 2.75 1.233 2.75 2.75v21c0 .414-.336.75-.75.75zm-10.25-1.5h9.5v-20.25c0-.689-.561-1.25-1.25-1.25h-7c-.689 0-1.25.561-1.25 1.25z"/><path d="m28.5 30.25h-5v-1.5h5c.138 0 .25-.112.25-.25v-9.764c0-.476-.265-.905-.691-1.118l-4.895-2.447.671-1.342 4.895 2.447c.938.469 1.52 1.412 1.52 2.459v9.765c0 .965-.785 1.75-1.75 1.75z"/><path d="m12.5 30.25h-5c-.965 0-1.75-.785-1.75-1.75v-9.764c0-1.048.583-1.99 1.52-2.459l4.895-2.447.671 1.342-4.895 2.447c-.426.212-.691.641-.691 1.117v9.764c0 .138.112.25.25.25h5z"/><path d="m15.75 9.5h1.5v4h-1.5z"/><path d="m18.75 9.5h1.5v4h-1.5z"/><path d="m16.5 10.75h3v1.5h-3z"/><path d="m21.25 29.5h-1.5v-3.5c0-.965-.785-1.75-1.75-1.75s-1.75.785-1.75 1.75v3.5h-1.5v-3.5c0-1.792 1.458-3.25 3.25-3.25s3.25 1.458 3.25 3.25z"/><path d="m15.5 15.75h5v1.5h-5z"/><path d="m15.5 18.75h5v1.5h-5z"/><path d="m8.5 25.75h2v1.5h-2z"/><path d="m8.5 22.75h2v1.5h-2z"/><path d="m8.5 19.75h2v1.5h-2z"/><path d="m25.5 25.75h2v1.5h-2z"/><path d="m25.5 22.75h2v1.5h-2z"/><path d="m25.5 19.75h2v1.5h-2z"/><path d="m6.49 5.782h2v1h-2z" fill="#a4afc1" transform="matrix(.707 -.707 .707 .707 -2.248 7.136)"/><path d="m2.424 9.847h2v1h-2z" fill="#a4afc1" transform="matrix(.707 -.707 .707 .707 -6.314 5.452)"/><path d="m2.924 5.105h1v2h-1z" fill="#a4afc1" transform="matrix(.707 -.707 .707 .707 -3.313 4.208)"/></svg>