<svg id="effect" height="512" viewBox="0 0 36 36" width="512" xmlns="http://www.w3.org/2000/svg"><path d="m34.904 20.355c-3.782-5.791-3.38-11.727-5.203-14.518s-7.256-7.603-20.093.782-9.572 17.5-7.566 20.569c9.388 14.372 39.561 3.423 32.862-6.833z" fill="#efefef"/><circle cx="18" cy="18" fill="#f3f3f1" r="11.5"/><path d="m17 10.5h2c.552 0 1 .448 1 1v4.5h4.5c.552 0 1 .448 1 1v2c0 .552-.448 1-1 1h-4.5v4.5c0 .552-.448 1-1 1h-2c-.552 0-1-.448-1-1v-4.5h-4.5c-.552 0-1-.448-1-1v-2c0-.552.448-1 1-1h4.5v-4.5c0-.552.448-1 1-1z" fill="#2fdf84"/><path d="m13.5 20h-2c-.55 0-1-.45-1-1v-2c0-.55.45-1 1-1h2c-.55 0-1 .45-1 1v2c0 .55.45 1 1 1z" fill="#00b871"/><path d="m19 29.46c-.33.03-.66.04-1 .04-6.35 0-11.5-5.15-11.5-11.5s5.15-11.5 11.5-11.5c.34 0 .67.01 1 .04-5.88.51-10.5 5.45-10.5 11.46s4.62 10.95 10.5 11.46z" fill="#d5dbe1"/><path d="m19 26.25h-2c-.965 0-1.75-.785-1.75-1.75v-3.75h-3.75c-.965 0-1.75-.785-1.75-1.75v-2c0-.965.785-1.75 1.75-1.75h3.75v-3.75c0-.965.785-1.75 1.75-1.75h2c.965 0 1.75.785 1.75 1.75v3.75h3.75c.965 0 1.75.785 1.75 1.75v2c0 .965-.785 1.75-1.75 1.75h-3.75v3.75c0 .965-.785 1.75-1.75 1.75zm-7.5-9.5c-.138 0-.25.112-.25.25v2c0 .138.112.25.25.25h4.5c.414 0 .75.336.75.75v4.5c0 .138.112.25.25.25h2c.138 0 .25-.112.25-.25v-4.5c0-.414.336-.75.75-.75h4.5c.138 0 .25-.112.25-.25v-2c0-.138-.112-.25-.25-.25h-4.5c-.414 0-.75-.336-.75-.75v-4.5c0-.138-.112-.25-.25-.25h-2c-.138 0-.25.112-.25.25v4.5c0 .414-.336.75-.75.75z"/><path d="m18 30.25c-6.755 0-12.25-5.495-12.25-12.25s5.495-12.25 12.25-12.25 12.25 5.495 12.25 12.25-5.495 12.25-12.25 12.25zm0-23c-5.928 0-10.75 4.822-10.75 10.75s4.822 10.75 10.75 10.75 10.75-4.822 10.75-10.75-4.822-10.75-10.75-10.75z"/><path d="m31 6.425c-.827 0-1.5-.673-1.5-1.5s.673-1.5 1.5-1.5 1.5.673 1.5 1.5-.673 1.5-1.5 1.5zm0-2c-.276 0-.5.224-.5.5s.224.5.5.5.5-.224.5-.5-.224-.5-.5-.5z" fill="#a4afc1"/></svg>