<svg id="effect" height="512" viewBox="0 0 36 36" width="512" xmlns="http://www.w3.org/2000/svg"><path d="m11.532 34.802c6.645-1.919 12.203.206 15.405-.719s9.396-4.708 5.142-19.44-13.924-14.28-17.447-13.263c-16.493 4.763-14.869 36.821-3.1 33.422z" fill="#efefef"/><path d="m24.5 9.5h-2-9-2c-1.1 0-2 .9-2 2v16c0 1.1.9 2 2 2h13c1.105 0 2-.895 2-2v-16c0-1.1-.9-2-2-2z" fill="#f3f3f1"/><path d="m22.5 8.5v2c0 .552-.448 1-1 1h-7c-.552 0-1-.448-1-1v-2h2.5c0-1.1.9-2 2-2s2 .9 2 2z" fill="#2fdf84"/><path d="m17.5 15.5h1c.552 0 1 .448 1 1v3h3c.552 0 1 .448 1 1v1c0 .552-.448 1-1 1h-3v3c0 .552-.448 1-1 1h-1c-.552 0-1-.448-1-1v-3h-3c-.552 0-1-.448-1-1v-1c0-.552.448-1 1-1h3v-3c0-.552.448-1 1-1z" fill="#2fdf84"/><path d="m16.5 11.5h-2c-.55 0-1-.45-1-1v-2h2v2c0 .55.45 1 1 1z" fill="#00b871"/><path d="m15.5 22.5h-2c-.55 0-1-.45-1-1v-1c0-.55.45-1 1-1h2c-.55 0-1 .45-1 1v1c0 .55.45 1 1 1z" fill="#00b871"/><path d="m13.5 29.5h-2c-1.1 0-2-.9-2-2v-16c0-1.1.9-2 2-2h2c-1.1 0-2 .9-2 2v16c0 1.1.9 2 2 2z" fill="#d5dbe1"/><path d="m24.5 30.25h-13c-1.517 0-2.75-1.233-2.75-2.75v-16c0-1.517 1.233-2.75 2.75-2.75h2v1.5h-2c-.689 0-1.25.561-1.25 1.25v16c0 .689.561 1.25 1.25 1.25h13c.689 0 1.25-.561 1.25-1.25v-16c0-.689-.561-1.25-1.25-1.25h-2v-1.5h2c1.517 0 2.75 1.233 2.75 2.75v16c0 1.517-1.233 2.75-2.75 2.75z"/><path d="m21.5 12.25h-7c-.965 0-1.75-.785-1.75-1.75v-2c0-.414.336-.75.75-.75h1.854c.328-1.153 1.39-2 2.646-2s2.318.847 2.646 2h1.854c.414 0 .75.336.75.75v2c0 .965-.785 1.75-1.75 1.75zm-7.25-3v1.25c0 .138.112.25.25.25h7c.138 0 .25-.112.25-.25v-1.25h-1.75c-.414 0-.75-.336-.75-.75 0-.689-.561-1.25-1.25-1.25s-1.25.561-1.25 1.25c0 .414-.336.75-.75.75z"/><path d="m18.5 27.25h-1c-.965 0-1.75-.785-1.75-1.75v-2.25h-2.25c-.965 0-1.75-.785-1.75-1.75v-1c0-.965.785-1.75 1.75-1.75h2.25v-2.25c0-.965.785-1.75 1.75-1.75h1c.965 0 1.75.785 1.75 1.75v2.25h2.25c.965 0 1.75.785 1.75 1.75v1c0 .965-.785 1.75-1.75 1.75h-2.25v2.25c0 .965-.785 1.75-1.75 1.75zm-5-7c-.138 0-.25.112-.25.25v1c0 .138.112.25.25.25h3c.414 0 .75.336.75.75v3c0 .138.112.25.25.25h1c.138 0 .25-.112.25-.25v-3c0-.414.336-.75.75-.75h3c.138 0 .25-.112.25-.25v-1c0-.138-.112-.25-.25-.25h-3c-.414 0-.75-.336-.75-.75v-3c0-.138-.112-.25-.25-.25h-1c-.138 0-.25.112-.25.25v3c0 .414-.336.75-.75.75z"/><g fill="#a4afc1"><path d="m31.773 6.835h1v2h-1z" transform="matrix(.707 -.707 .707 .707 3.918 25.125)"/><path d="m27.707 2.77h1v2h-1z" transform="matrix(.707 -.707 .707 .707 5.596 21.05)"/><path d="m31.449 3.27h2v1h-2z" transform="matrix(.707 -.707 .707 .707 6.839 24.05)"/></g></svg>