<svg id="effect" height="512" viewBox="0 0 36 36" width="512" xmlns="http://www.w3.org/2000/svg"><path d="m26.982 3.914c-6.916.129-11.732-3.365-15.065-3.302s-10.296 2.109-10.009 17.44 9.744 17.404 13.41 17.336c17.164-.321 23.911-31.703 11.664-31.474z" fill="#efefef"/><path d="m17.5 12.5h1c.552 0 1 .448 1 1v3h3c.552 0 1 .448 1 1v1c0 .552-.448 1-1 1h-3v3c0 .552-.448 1-1 1h-1c-.552 0-1-.448-1-1v-3h-3c-.552 0-1-.448-1-1v-1c0-.552.448-1 1-1h3v-3c0-.552.448-1 1-1z" fill="#2fdf84"/><path d="m15.5 19.5h-2c-.55 0-1-.45-1-1v-1c0-.55.45-1 1-1h2c-.55 0-1 .45-1 1v1c0 .55.45 1 1 1z" fill="#00b871"/><path d="m18 30.25c-.18 0-.358-.003-.537-.011l.064-1.499c1.288.054 2.584-.118 3.803-.515l.465 1.426c-1.221.397-2.498.599-3.795.599zm-3.772-.592c-1.4-.453-2.696-1.149-3.853-2.069l.934-1.174c1.016.808 2.152 1.419 3.38 1.816zm10.527-1.437-.828-1.251c1.078-.714 2.011-1.607 2.773-2.654l1.213.883c-.868 1.192-1.931 2.209-3.158 3.022zm-16.654-3.004c-.871-1.193-1.513-2.518-1.906-3.937l1.445-.401c.346 1.245.908 2.407 1.672 3.453zm21.371-2.913-1.404-.528c.453-1.204.683-2.475.683-3.776l1.26-.038.239.003c0 1.517-.262 2.966-.778 4.339zm-23.722-4.282v-.022c0-1.473.259-2.913.769-4.281l1.406.524c-.448 1.2-.675 2.464-.675 3.757zm22.605-2.921c-.347-1.243-.911-2.403-1.678-3.45l1.209-.887c.874 1.193 1.519 2.516 1.914 3.933zm-19.067-3.4-1.215-.88c.864-1.193 1.925-2.212 3.152-3.029l.83 1.249c-1.077.717-2.008 1.612-2.767 2.66zm15.386-2.129c-1.016-.806-2.154-1.415-3.383-1.81l.459-1.428c1.401.45 2.698 1.144 3.855 2.063zm-10.025-1.79-.467-1.426c1.391-.455 2.872-.651 4.33-.596l-.059 1.499c-1.28-.047-2.583.123-3.804.523z"/><path d="m18.5 24.25h-1c-.965 0-1.75-.785-1.75-1.75v-2.25h-2.25c-.965 0-1.75-.785-1.75-1.75v-1c0-.965.785-1.75 1.75-1.75h2.25v-2.25c0-.965.785-1.75 1.75-1.75h1c.965 0 1.75.785 1.75 1.75v2.25h2.25c.965 0 1.75.785 1.75 1.75v1c0 .965-.785 1.75-1.75 1.75h-2.25v2.25c0 .965-.785 1.75-1.75 1.75zm-5-7c-.138 0-.25.112-.25.25v1c0 .138.112.25.25.25h3c.414 0 .75.336.75.75v3c0 .138.112.25.25.25h1c.138 0 .25-.112.25-.25v-3c0-.414.336-.75.75-.75h3c.138 0 .25-.112.25-.25v-1c0-.138-.112-.25-.25-.25h-3c-.414 0-.75-.336-.75-.75v-3c0-.138-.112-.25-.25-.25h-1c-.138 0-.25.112-.25.25v3c0 .414-.336.75-.75.75z"/><path d="m6.625 8.481c-.827 0-1.5-.673-1.5-1.5s.673-1.5 1.5-1.5 1.5.673 1.5 1.5-.673 1.5-1.5 1.5zm0-2c-.275 0-.5.224-.5.5s.225.5.5.5.5-.224.5-.5-.225-.5-.5-.5z" fill="#a4afc1"/></svg>