<svg id="effect" height="512" viewBox="0 0 36 36" width="512" xmlns="http://www.w3.org/2000/svg"><path d="m27.417 3.914c-6.915.129-11.732-3.365-15.064-3.302s-10.296 2.109-10.009 17.44 9.744 17.404 13.41 17.336c17.163-.321 23.911-31.703 11.663-31.474z" fill="#efefef"/><path d="m29.5 23.5v2c0 .55-.45 1-1 1h-21c-.55 0-1-.45-1-1v-2z" fill="#2fdf84"/><path d="m29.5 11.5v12h-23v-12c0-.55.45-1 1-1h21c.55 0 1 .45 1 1z" fill="#f3f3f1"/><path d="m20 26.5s0 1.5 1.5 3h-7c1.5-1.5 1.48-3 1.48-3z" fill="#2fdf84"/><path d="m17.5 6.5h1c.552 0 1 .448 1 1v3h3c.552 0 1 .448 1 1v1c0 .552-.448 1-1 1h-3v3c0 .552-.448 1-1 1h-1c-.552 0-1-.448-1-1v-3h-3c-.552 0-1-.448-1-1v-1c0-.552.448-1 1-1h3v-3c0-.552.448-1 1-1z" fill="#2fdf84"/><g fill="#00b871"><path d="m9.5 26.5h-2c-.55 0-1-.45-1-1v-2h2v2c0 .55.45 1 1 1z"/><path d="m17.98 26.5c0 .08-.02 1.54-1.48 3h-2c1.46-1.46 1.48-2.92 1.48-3z"/><path d="m15.5 13.5h-2c-.55 0-1-.45-1-1v-1c0-.55.45-1 1-1h2c-.55 0-1 .45-1 1v1c0 .55.45 1 1 1z"/></g><path d="m9.5 10.5c-.55 0-1 .45-1 1v12h-2v-12c0-.55.45-1 1-1z" fill="#d5dbe1"/><path d="m28.5 27.25h-21c-.965 0-1.75-.785-1.75-1.75v-14c0-.965.785-1.75 1.75-1.75h2v1.5h-2c-.138 0-.25.112-.25.25v14c0 .138.112.25.25.25h21c.138 0 .25-.112.25-.25v-14c0-.138-.112-.25-.25-.25h-2v-1.5h2c.965 0 1.75.785 1.75 1.75v14c0 .965-.785 1.75-1.75 1.75z"/><path d="m21.5 30.25h-7c-.303 0-.577-.183-.693-.463s-.052-.603.163-.817c1.234-1.233 1.26-2.418 1.26-2.468.004-.412.339-.752.75-.752h4.02c.412 0 .746.332.75.743.001.063.05 1.246 1.28 2.477.214.215.279.537.163.817s-.39.463-.693.463zm-5.474-1.5h3.945c-.339-.575-.519-1.102-.613-1.5h-2.728c-.093.4-.269.926-.604 1.5z"/><path d="m6.5 22.75h23v1.5h-23z"/><path d="m18.5 18.25h-1c-.965 0-1.75-.785-1.75-1.75v-2.25h-2.25c-.965 0-1.75-.785-1.75-1.75v-1c0-.965.785-1.75 1.75-1.75h2.25v-2.25c0-.965.785-1.75 1.75-1.75h1c.965 0 1.75.785 1.75 1.75v2.25h2.25c.965 0 1.75.785 1.75 1.75v1c0 .965-.785 1.75-1.75 1.75h-2.25v2.25c0 .965-.785 1.75-1.75 1.75zm-5-7c-.138 0-.25.112-.25.25v1c0 .138.112.25.25.25h3c.414 0 .75.336.75.75v3c0 .138.112.25.25.25h1c.138 0 .25-.112.25-.25v-3c0-.414.336-.75.75-.75h3c.138 0 .25-.112.25-.25v-1c0-.138-.112-.25-.25-.25h-3c-.414 0-.75-.336-.75-.75v-3c0-.138-.112-.25-.25-.25h-1c-.138 0-.25.112-.25.25v3c0 .414-.336.75-.75.75z"/><path d="m29.5 9c-.827 0-1.5-.673-1.5-1.5s.673-1.5 1.5-1.5 1.5.673 1.5 1.5-.673 1.5-1.5 1.5zm0-2c-.276 0-.5.224-.5.5s.224.5.5.5.5-.224.5-.5-.224-.5-.5-.5z" fill="#a4afc1"/></svg>