<svg id="effect" height="512" viewBox="0 0 36 36" width="512" xmlns="http://www.w3.org/2000/svg"><path d="m8.377 31.833c6.917 0 11.667 3.583 15 3.583s10.333-1.916 10.333-17.249-9.417-17.584-13.083-17.584c-17.167 0-24.5 31.25-12.25 31.25z" fill="#efefef"/><path d="m24.5 29.5h-13c-1.105 0-2-.895-2-2v-19c0-1.105.895-2 2-2h13c1.105 0 2 .895 2 2v19c0 1.105-.895 2-2 2z" fill="#f3f3f1"/><path d="m17.5 12.5h1c.552 0 1 .448 1 1v3h3c.552 0 1 .448 1 1v1c0 .552-.448 1-1 1h-3v3c0 .552-.448 1-1 1h-1c-.552 0-1-.448-1-1v-3h-3c-.552 0-1-.448-1-1v-1c0-.552.448-1 1-1h3v-3c0-.552.448-1 1-1z" fill="#2fdf84"/><path d="m15.5 19.5h-2c-.55 0-1-.45-1-1v-1c0-.55.45-1 1-1h2c-.55 0-1 .45-1 1v1c0 .55.45 1 1 1z" fill="#00b871"/><path d="m13.5 29.5h-2c-1.1 0-2-.9-2-2v-19c0-1.1.9-2 2-2h2c-1.1 0-2 .9-2 2v19c0 1.1.9 2 2 2z" fill="#d5dbe1"/><path d="m24.5 30.25h-13c-1.517 0-2.75-1.233-2.75-2.75v-19c0-1.517 1.233-2.75 2.75-2.75h13c1.517 0 2.75 1.233 2.75 2.75v19c0 1.517-1.233 2.75-2.75 2.75zm-13-23c-.689 0-1.25.561-1.25 1.25v19c0 .689.561 1.25 1.25 1.25h13c.689 0 1.25-.561 1.25-1.25v-19c0-.689-.561-1.25-1.25-1.25z"/><path d="m18.5 24.25h-1c-.965 0-1.75-.785-1.75-1.75v-2.25h-2.25c-.965 0-1.75-.785-1.75-1.75v-1c0-.965.785-1.75 1.75-1.75h2.25v-2.25c0-.965.785-1.75 1.75-1.75h1c.965 0 1.75.785 1.75 1.75v2.25h2.25c.965 0 1.75.785 1.75 1.75v1c0 .965-.785 1.75-1.75 1.75h-2.25v2.25c0 .965-.785 1.75-1.75 1.75zm-5-7c-.138 0-.25.112-.25.25v1c0 .138.112.25.25.25h3c.414 0 .75.336.75.75v3c0 .138.112.25.25.25h1c.138 0 .25-.112.25-.25v-3c0-.414.336-.75.75-.75h3c.138 0 .25-.112.25-.25v-1c0-.138-.112-.25-.25-.25h-3c-.414 0-.75-.336-.75-.75v-3c0-.138-.112-.25-.25-.25h-1c-.138 0-.25.112-.25.25v3c0 .414-.336.75-.75.75z"/><path d="m32 12.5c-.827 0-1.5-.673-1.5-1.5s.673-1.5 1.5-1.5 1.5.673 1.5 1.5-.673 1.5-1.5 1.5zm0-2c-.276 0-.5.225-.5.5s.224.5.5.5.5-.225.5-.5-.224-.5-.5-.5z" fill="#a4afc1"/></svg>