<svg id="effect" height="512" viewBox="0 0 36 36" width="512" xmlns="http://www.w3.org/2000/svg"><path d="m27.417 3.914c-6.915.129-11.732-3.365-15.064-3.302s-10.296 2.109-10.009 17.44 9.744 17.404 13.41 17.336c17.163-.321 23.911-31.703 11.663-31.474z" fill="#efefef"/><path d="m22.5 8.5v17h-15v-17c0-1.1.9-2 2-2h11c1.1 0 2 .9 2 2z" fill="#f3f3f1"/><path d="m22.5 25.5v2c0 1.1-.9 2-2 2h-11c-1.1 0-2-.9-2-2v-2z" fill="#2fdf84"/><path d="m22.5 11.5h1c.552 0 1 .448 1 1v3h3c.552 0 1 .448 1 1v1c0 .552-.448 1-1 1h-3v3c0 .552-.448 1-1 1h-1c-.552 0-1-.448-1-1v-3h-3c-.552 0-1-.448-1-1v-1c0-.552.448-1 1-1h3v-3c0-.552.448-1 1-1z" fill="#2fdf84"/><path d="m11.5 29.5h-2c-1.1 0-2-.9-2-2v-2h2v2c0 1.1.9 2 2 2z" fill="#00b871"/><path d="m20.5 18.5h-2c-.55 0-1-.45-1-1v-1c0-.55.45-1 1-1h2c-.55 0-1 .45-1 1v1c0 .55.45 1 1 1z" fill="#00b871"/><path d="m11.5 6.5c-1.1 0-2 .9-2 2v17h-2v-17c0-1.1.9-2 2-2z" fill="#d5dbe1"/><path d="m20.5 30.25h-11c-1.517 0-2.75-1.233-2.75-2.75v-19c0-1.517 1.233-2.75 2.75-2.75h11c1.517 0 2.75 1.233 2.75 2.75h-1.5c0-.689-.561-1.25-1.25-1.25h-11c-.689 0-1.25.561-1.25 1.25v16.25h14.25c.414 0 .75.336.75.75v2c0 1.517-1.233 2.75-2.75 2.75zm-12.25-4v1.25c0 .689.561 1.25 1.25 1.25h11c.689 0 1.25-.561 1.25-1.25v-1.25z"/><path d="m23.5 23.25h-1c-.965 0-1.75-.785-1.75-1.75v-2.25h-2.25c-.965 0-1.75-.785-1.75-1.75v-1c0-.965.785-1.75 1.75-1.75h2.25v-2.25c0-.965.785-1.75 1.75-1.75h1c.965 0 1.75.785 1.75 1.75v2.25h2.25c.965 0 1.75.785 1.75 1.75v1c0 .965-.785 1.75-1.75 1.75h-2.25v2.25c0 .965-.785 1.75-1.75 1.75zm-5-7c-.138 0-.25.112-.25.25v1c0 .138.112.25.25.25h3c.414 0 .75.336.75.75v3c0 .138.112.25.25.25h1c.138 0 .25-.112.25-.25v-3c0-.414.336-.75.75-.75h3c.138 0 .25-.112.25-.25v-1c0-.138-.112-.25-.25-.25h-3c-.414 0-.75-.336-.75-.75v-3c0-.138-.112-.25-.25-.25h-1c-.138 0-.25.112-.25.25v3c0 .414-.336.75-.75.75z"/><path d="m30.864 5.47c-.827 0-1.5-.673-1.5-1.5s.673-1.5 1.5-1.5 1.5.673 1.5 1.5-.673 1.5-1.5 1.5zm0-2c-.276 0-.5.224-.5.5s.224.5.5.5.5-.224.5-.5-.224-.5-.5-.5z" fill="#a4afc1"/></svg>