<svg id="effect" height="512" viewBox="0 0 36 36" width="512" xmlns="http://www.w3.org/2000/svg"><path d="m8.114 5.564c-1.805 6.677-6.504 10.327-7.374 13.545s-.847 10.475 13.955 14.477 19.432-4.501 20.388-8.041c4.481-16.572-23.772-31.807-26.969-19.981z" fill="#efefef"/><path d="m29.5 11.5v13c0 .55-.45 1-1 1h-21c-.55 0-1-.45-1-1v-13c0-.55.45-1 1-1h21c.55 0 1 .45 1 1z" fill="#f3f3f1"/><path d="m16.5 25.5h3v4h-3z" fill="#2fdf84"/><path d="m17.5 6.5h1c.552 0 1 .448 1 1v3h3c.552 0 1 .448 1 1v1c0 .552-.448 1-1 1h-3v3c0 .552-.448 1-1 1h-1c-.552 0-1-.448-1-1v-3h-3c-.552 0-1-.448-1-1v-1c0-.552.448-1 1-1h3v-3c0-.552.448-1 1-1z" fill="#2fdf84"/><path d="m16.5 25.5h2v4h-2z" fill="#00b871"/><path d="m15.5 13.5h-2c-.55 0-1-.45-1-1v-1c0-.55.45-1 1-1h2c-.55 0-1 .45-1 1v1c0 .55.45 1 1 1z" fill="#00b871"/><path d="m9.5 25.5h-2c-.55 0-1-.45-1-1v-13c0-.55.45-1 1-1h2c-.55 0-1 .45-1 1v13c0 .55.45 1 1 1z" fill="#d5dbe1"/><path d="m28.5 26.25h-21c-.965 0-1.75-.785-1.75-1.75v-13c0-.965.785-1.75 1.75-1.75h2v1.5h-2c-.138 0-.25.112-.25.25v13c0 .138.112.25.25.25h21c.138 0 .25-.112.25-.25v-13c0-.138-.112-.25-.25-.25h-2v-1.5h2c.965 0 1.75.785 1.75 1.75v13c0 .965-.785 1.75-1.75 1.75z"/><path d="m12.75 28.75h10.5v1.5h-10.5z"/><path d="m15.75 25.5h1.5v4h-1.5z"/><path d="m18.75 25.5h1.5v4h-1.5z"/><path d="m18.5 18.25h-1c-.965 0-1.75-.785-1.75-1.75v-2.25h-2.25c-.965 0-1.75-.785-1.75-1.75v-1c0-.965.785-1.75 1.75-1.75h2.25v-2.25c0-.965.785-1.75 1.75-1.75h1c.965 0 1.75.785 1.75 1.75v2.25h2.25c.965 0 1.75.785 1.75 1.75v1c0 .965-.785 1.75-1.75 1.75h-2.25v2.25c0 .965-.785 1.75-1.75 1.75zm-5-7c-.138 0-.25.112-.25.25v1c0 .138.112.25.25.25h3c.414 0 .75.336.75.75v3c0 .138.112.25.25.25h1c.138 0 .25-.112.25-.25v-3c0-.414.336-.75.75-.75h3c.138 0 .25-.112.25-.25v-1c0-.138-.112-.25-.25-.25h-3c-.414 0-.75-.336-.75-.75v-3c0-.138-.112-.25-.25-.25h-1c-.138 0-.25.112-.25.25v3c0 .414-.336.75-.75.75z"/><path d="m2.875 12c-.827 0-1.5-.673-1.5-1.5s.673-1.5 1.5-1.5 1.5.673 1.5 1.5-.673 1.5-1.5 1.5zm0-2c-.275 0-.5.224-.5.5s.225.5.5.5.5-.224.5-.5-.225-.5-.5-.5z" fill="#a4afc1"/></svg>