<svg id="effect" height="512" viewBox="0 0 36 36" width="512" xmlns="http://www.w3.org/2000/svg"><path d="m13.411 34.999c6.298-2.859 12.105-1.559 15.14-2.936 3.035-1.378 8.617-6.016 2.28-19.978s-15.841-12.12-19.18-10.605c-15.632 7.095-9.395 38.582 1.76 33.519z" fill="#efefef"/><path d="m24.5 24.728v3.637c0 .674-.587 1.183-1.264 1.131-8.41-.652-15.125-7.347-15.734-15.722-.048-.667.458-1.244 1.131-1.249l3.552-.026c.524 0 .981.354 1.108.859l.742 2.947c.111.443-.055.909-.423 1.183l-1.815 1.352c1.359 2.722 3.575 4.934 6.282 6.318l1.395-1.848c.276-.365.745-.531 1.191-.42l2.968.737c.511.127.867.581.867 1.101z" fill="#f3f3f1"/><path d="m22.5 6.5h1c.552 0 1 .448 1 1v3h3c.552 0 1 .448 1 1v1c0 .552-.448 1-1 1h-3v3c0 .552-.448 1-1 1h-1c-.552 0-1-.448-1-1v-3h-3c-.552 0-1-.448-1-1v-1c0-.552.448-1 1-1h3v-3c0-.552.448-1 1-1z" fill="#2fdf84"/><path d="m20.5 13.5h-2c-.55 0-1-.45-1-1v-1c0-.55.45-1 1-1h2c-.55 0-1 .45-1 1v1c0 .55.45 1 1 1z" fill="#00b871"/><path d="m23.92 29.34c-.2.12-.43.18-.68.16-8.41-.66-15.13-7.35-15.74-15.73-.05-.66.46-1.24 1.13-1.24l3.56-.03c.05 0 .1 0 .15.02l-1.71.01c-.67 0-1.18.58-1.13 1.24.58 7.94 6.64 14.36 14.42 15.57z" fill="#d5dbe1"/><path d="m23.331 30.25c-.051 0-.102-.002-.152-.006-8.732-.676-15.793-7.733-16.423-16.415-.039-.532.145-1.06.503-1.448.356-.387.843-.602 1.37-.605l3.552-.025c.875 0 1.629.586 1.841 1.426l.742 2.948c.187.739-.089 1.511-.702 1.967l-1.299.967c1.19 2.122 2.974 3.915 5.108 5.134l1.007-1.333c.458-.606 1.228-.881 1.97-.696l2.968.737c.845.21 1.435.962 1.435 1.829v3.637c0 .526-.213 1.013-.601 1.372-.357.328-.831.511-1.319.511zm-11.145-17-3.547.025c-.138.001-.228.067-.278.123-.08.086-.118.201-.109.322.577 7.948 7.044 14.409 15.043 15.028.125.011.249-.031.336-.112.054-.05.119-.138.119-.271v-3.637c0-.176-.122-.33-.296-.373l-2.968-.737c-.154-.039-.316.018-.411.144l-1.396 1.848c-.22.29-.616.38-.94.216-2.85-1.457-5.198-3.819-6.612-6.651-.163-.325-.068-.719.223-.937l1.815-1.352c.125-.093.181-.249.144-.397l-.742-2.948c-.043-.17-.2-.291-.381-.291z"/><path d="m23.5 18.25h-1c-.965 0-1.75-.785-1.75-1.75v-2.25h-2.25c-.965 0-1.75-.785-1.75-1.75v-1c0-.965.785-1.75 1.75-1.75h2.25v-2.25c0-.965.785-1.75 1.75-1.75h1c.965 0 1.75.785 1.75 1.75v2.25h2.25c.965 0 1.75.785 1.75 1.75v1c0 .965-.785 1.75-1.75 1.75h-2.25v2.25c0 .965-.785 1.75-1.75 1.75zm-5-7c-.138 0-.25.112-.25.25v1c0 .138.112.25.25.25h3c.414 0 .75.336.75.75v3c0 .138.112.25.25.25h1c.138 0 .25-.112.25-.25v-3c0-.414.336-.75.75-.75h3c.138 0 .25-.112.25-.25v-1c0-.138-.112-.25-.25-.25h-3c-.414 0-.75-.336-.75-.75v-3c0-.138-.112-.25-.25-.25h-1c-.138 0-.25.112-.25.25v3c0 .414-.336.75-.75.75z"/><path d="m30.25 6.717c-.827 0-1.5-.673-1.5-1.5s.673-1.5 1.5-1.5 1.5.673 1.5 1.5-.673 1.5-1.5 1.5zm0-2c-.276 0-.5.224-.5.5s.224.5.5.5.5-.224.5-.5-.224-.5-.5-.5z" fill="#a4afc1"/></svg>