<svg id="effect" height="512" viewBox="0 0 36 36" width="512" xmlns="http://www.w3.org/2000/svg"><path d="m8.377 4.167c6.917 0 11.667-3.583 15-3.583s10.333 1.916 10.333 17.249-9.417 17.583-13.083 17.583c-17.167.001-24.5-31.249-12.25-31.249z" fill="#efefef"/><path d="m11.5 19.61-.18.71-1.54 6.06-.28 1.12h-3v-9c3.29 0 5 1.11 5 1.11z" fill="#2fdf84"/><path d="m29.5 25.5s-7.5 4-10.5 4c-2.39 0-7.31-2.22-9.22-3.12l1.54-6.06 9.65 2.33c.9.21 1.53 1.02 1.53 1.94v.5c1.54-.44 3.18-1.09 4.5-1.09 2 0 2.5 1.5 2.5 1.5z" fill="#f3f3f1"/><path d="m23.5 6.5h1c.552 0 1 .448 1 1v3h3c.552 0 1 .448 1 1v1c0 .552-.448 1-1 1h-3v3c0 .552-.448 1-1 1h-1c-.552 0-1-.448-1-1v-3h-3c-.552 0-1-.448-1-1v-1c0-.552.448-1 1-1h3v-3c0-.552.448-1 1-1z" fill="#2fdf84"/><path d="m8.5 18.65v8.85h-2v-9c.75 0 1.42.06 2 .15z" fill="#00b871"/><path d="m21.5 13.5h-2c-.55 0-1-.45-1-1v-1c0-.55.45-1 1-1h2c-.55 0-1 .45-1 1v1c0 .55.45 1 1 1z" fill="#00b871"/><path d="m19.97 29.4c-.36.06-.68.1-.97.1-2.39 0-7.31-2.22-9.22-3.12l1.54-6.06 1.88.45-1.42 5.61c1.67.79 5.63 2.58 8.19 3.02z" fill="#d5dbe1"/><path d="m9.5 28.25h-3c-.414 0-.75-.336-.75-.75v-9c0-.414.336-.75.75-.75 3.475 0 5.332 1.186 5.41 1.236.269.175.396.502.316.813l-2 7.886c-.083.332-.383.565-.726.565zm-2.25-1.5h1.666l1.71-6.74c-.587-.256-1.725-.645-3.376-.738z"/><path d="m19 30.25c-2.409 0-7.011-2-9.539-3.191l.639-1.357c4.11 1.938 7.354 3.049 8.9 3.049 2.071 0 6.959-2.276 9.412-3.529-.269-.239-.71-.471-1.412-.471-.885 0-2.036.363-3.149.715-1.222.386-2.485.785-3.601.785-2.107 0-4.889-1.003-5.006-1.045l.512-1.41c.026.01 2.652.955 4.494.955.885 0 2.036-.363 3.149-.715 1.222-.386 2.485-.785 3.601-.785 2.512 0 3.185 1.931 3.212 2.013.115.347-.036.727-.359.899-.313.166-7.702 4.087-10.853 4.087z"/><path d="m23.25 25.09h-1.5v-.5c0-.581-.391-1.078-.95-1.209l-9.655-2.331.352-1.459 9.649 2.33c1.237.289 2.104 1.387 2.104 2.669z"/><path d="m24.5 18.25h-1c-.965 0-1.75-.785-1.75-1.75v-2.25h-2.25c-.965 0-1.75-.785-1.75-1.75v-1c0-.965.785-1.75 1.75-1.75h2.25v-2.25c0-.965.785-1.75 1.75-1.75h1c.965 0 1.75.785 1.75 1.75v2.25h2.25c.965 0 1.75.785 1.75 1.75v1c0 .965-.785 1.75-1.75 1.75h-2.25v2.25c0 .965-.785 1.75-1.75 1.75zm-5-7c-.138 0-.25.112-.25.25v1c0 .138.112.25.25.25h3c.414 0 .75.336.75.75v3c0 .138.112.25.25.25h1c.138 0 .25-.112.25-.25v-3c0-.414.336-.75.75-.75h3c.138 0 .25-.112.25-.25v-1c0-.138-.112-.25-.25-.25h-3c-.414 0-.75-.336-.75-.75v-3c0-.138-.112-.25-.25-.25h-1c-.138 0-.25.112-.25.25v3c0 .414-.336.75-.75.75z"/><path d="m11.5 12c-.827 0-1.5-.673-1.5-1.5s.673-1.5 1.5-1.5 1.5.673 1.5 1.5-.673 1.5-1.5 1.5zm0-2c-.275 0-.5.224-.5.5s.225.5.5.5.5-.224.5-.5-.225-.5-.5-.5z" fill="#a4afc1"/></svg>