<svg id="effect" height="512" viewBox="0 0 36 36" width="512" xmlns="http://www.w3.org/2000/svg"><path d="m27.417 3.914c-6.915.129-11.732-3.365-15.064-3.302s-10.296 2.109-10.009 17.44 9.744 17.404 13.41 17.336c17.163-.321 23.911-31.703 11.663-31.474z" fill="#efefef"/><path d="m22.5 12.5v11c0 1.1-.9 2-2 2h-10c-1.1 0-2-.9-2-2v-11c0-1.1.9-2 2-2h10c1.1 0 2 .9 2 2z" fill="#f3f3f1"/><g fill="#2fdf84"><path d="m20.09 7.4c-.05-.51-.48-.9-.99-.9h-7.2c-.51 0-.94.39-.99.9l-.31 3.1 9.798.022z"/><path d="m10.6 25.5.31 3.1c.05.51.48.9.99.9h7.2c.51 0 .94-.39.99-.9l.313-3.093z"/><path d="m21.5 12.5h1c.552 0 1 .448 1 1v3h3c.552 0 1 .448 1 1v1c0 .552-.448 1-1 1h-3v3c0 .552-.448 1-1 1h-1c-.552 0-1-.448-1-1v-3h-3c-.552 0-1-.448-1-1v-1c0-.552.448-1 1-1h3v-3c0-.552.448-1 1-1z"/></g><path d="m13.9 6.5c-.51 0-.94.39-.99.9l-.31 3.1h-2l.31-3.1c.05-.51.48-.9.99-.9z" fill="#00b871"/><path d="m13.9 29.5h-2c-.51 0-.94-.39-.99-.9l-.31-3.1h2l.31 3.1c.05.51.48.9.99.9z" fill="#00b871"/><path d="m19.5 19.5h-2c-.55 0-1-.45-1-1v-1c0-.55.45-1 1-1h2c-.55 0-1 .45-1 1v1c0 .55.45 1 1 1z" fill="#00b871"/><path d="m12.5 25.5h-2c-1.1 0-2-.9-2-2v-11c0-1.1.9-2 2-2h2c-1.1 0-2 .9-2 2v11c0 1.1.9 2 2 2z" fill="#d5dbe1"/><path d="m18.27 26.25h-7.77c-1.516 0-2.75-1.233-2.75-2.75v-11c0-1.517 1.234-2.75 2.75-2.75h7.77v1.5h-7.77c-.689 0-1.25.561-1.25 1.25v11c0 .689.561 1.25 1.25 1.25h7.77z"/><path d="m11.346 10.574-1.492-.148.31-3.1c.087-.898.834-1.576 1.736-1.576h7.2c.902 0 1.648.678 1.736 1.577l.209 2.108-1.492.148-.21-2.109c-.012-.126-.119-.224-.243-.224h-7.2c-.124 0-.231.098-.243.224z"/><path d="m19.1 30.25h-7.2c-.902 0-1.648-.678-1.736-1.577l-.31-3.099 1.492-.148.31 3.1c.013.127.12.225.244.225h7.2c.124 0 .231-.098.243-.224l.21-2.11 1.492.148-.21 2.109c-.086.898-.833 1.576-1.735 1.576z"/><path d="m22.5 24.25h-1c-.965 0-1.75-.785-1.75-1.75v-2.25h-2.25c-.965 0-1.75-.785-1.75-1.75v-1c0-.965.785-1.75 1.75-1.75h2.25v-2.25c0-.965.785-1.75 1.75-1.75h1c.965 0 1.75.785 1.75 1.75v2.25h2.25c.965 0 1.75.785 1.75 1.75v1c0 .965-.785 1.75-1.75 1.75h-2.25v2.25c0 .965-.785 1.75-1.75 1.75zm-5-7c-.138 0-.25.112-.25.25v1c0 .138.112.25.25.25h3c.414 0 .75.336.75.75v3c0 .138.112.25.25.25h1c.138 0 .25-.112.25-.25v-3c0-.414.336-.75.75-.75h3c.138 0 .25-.112.25-.25v-1c0-.138-.112-.25-.25-.25h-3c-.414 0-.75-.336-.75-.75v-3c0-.138-.112-.25-.25-.25h-1c-.138 0-.25.112-.25.25v3c0 .414-.336.75-.75.75z"/><path d="m30.864 11.5c-.827 0-1.5-.673-1.5-1.5s.673-1.5 1.5-1.5 1.5.673 1.5 1.5-.673 1.5-1.5 1.5zm0-2c-.276 0-.5.225-.5.5s.224.5.5.5.5-.225.5-.5-.224-.5-.5-.5z" fill="#a4afc1"/></svg>