<svg id="effect" height="512" viewBox="0 0 36 36" width="512" xmlns="http://www.w3.org/2000/svg"><path d="m27.417 3.914c-6.915.129-11.732-3.365-15.064-3.302s-10.296 2.109-10.009 17.44 9.744 17.404 13.41 17.336c17.163-.321 23.911-31.703 11.663-31.474z" fill="#efefef"/><path d="m27.5 29.5h-19c-1.105 0-2-.895-2-2v-19c0-1.105.895-2 2-2h19c1.105 0 2 .895 2 2v19c0 1.105-.895 2-2 2z" fill="#f3f3f1"/><path d="m17 9.5h2c.552 0 1 .448 1 1v5.5h5.5c.552 0 1 .448 1 1v2c0 .552-.448 1-1 1h-5.5v5.5c0 .552-.448 1-1 1h-2c-.552 0-1-.448-1-1v-5.5h-5.5c-.552 0-1-.448-1-1v-2c0-.552.448-1 1-1h5.5v-5.5c0-.552.448-1 1-1z" fill="#2fdf84"/><path d="m12.5 20h-2c-.55 0-1-.45-1-1v-2c0-.55.45-1 1-1h2c-.55 0-1 .45-1 1v2c0 .55.45 1 1 1z" fill="#00b871"/><path d="m10.5 29.5h-2c-1.1 0-2-.9-2-2v-19c0-1.1.9-2 2-2h2c-1.1 0-2 .9-2 2v19c0 1.1.9 2 2 2z" fill="#d5dbe1"/><path d="m27.5 30.25h-19c-1.517 0-2.75-1.233-2.75-2.75v-19c0-1.517 1.233-2.75 2.75-2.75h19c1.517 0 2.75 1.233 2.75 2.75v19c0 1.517-1.233 2.75-2.75 2.75zm-19-23c-.689 0-1.25.561-1.25 1.25v19c0 .689.561 1.25 1.25 1.25h19c.689 0 1.25-.561 1.25-1.25v-19c0-.689-.561-1.25-1.25-1.25z"/><path d="m19 27.25h-2c-.965 0-1.75-.785-1.75-1.75v-4.75h-4.75c-.965 0-1.75-.785-1.75-1.75v-2c0-.965.785-1.75 1.75-1.75h4.75v-4.75c0-.965.785-1.75 1.75-1.75h2c.965 0 1.75.785 1.75 1.75v4.75h4.75c.965 0 1.75.785 1.75 1.75v2c0 .965-.785 1.75-1.75 1.75h-4.75v4.75c0 .965-.785 1.75-1.75 1.75zm-8.5-10.5c-.138 0-.25.112-.25.25v2c0 .138.112.25.25.25h5.5c.414 0 .75.336.75.75v5.5c0 .138.112.25.25.25h2c.138 0 .25-.112.25-.25v-5.5c0-.414.336-.75.75-.75h5.5c.138 0 .25-.112.25-.25v-2c0-.138-.112-.25-.25-.25h-5.5c-.414 0-.75-.336-.75-.75v-5.5c0-.138-.112-.25-.25-.25h-2c-.138 0-.25.112-.25.25v5.5c0 .414-.336.75-.75.75z"/><g fill="#a4afc1"><path d="m6.102 2.848h2v1h-2z" transform="matrix(.707 -.707 .707 .707 -.288 6.003)"/><path d="m2.036 6.914h2v1h-2z" transform="matrix(.707 -.707 .707 .707 -4.353 4.318)"/><path d="m2.536 2.172h1v2h-1z" transform="matrix(.707 -.707 .707 .707 -1.353 3.075)"/></g></svg>