<svg id="effect" height="512" viewBox="0 0 36 36" width="512" xmlns="http://www.w3.org/2000/svg"><path d="m8.114 5.564c-1.805 6.677-6.504 10.327-7.374 13.545s-.847 10.475 13.955 14.477 19.432-4.501 20.388-8.041c4.481-16.572-23.772-31.807-26.969-19.981z" fill="#efefef"/><path d="m27.5 11.5h-19c-1.105 0-2 .895-2 2v12c0 1.105.895 2 2 2h3 13 3c1.105 0 2-.895 2-2v-12c0-1.105-.895-2-2-2z" fill="#f3f3f1"/><path d="m17.5 14.5h1c.552 0 1 .448 1 1v3h3c.552 0 1 .448 1 1v1c0 .552-.448 1-1 1h-3v3c0 .552-.448 1-1 1h-1c-.552 0-1-.448-1-1v-3h-3c-.552 0-1-.448-1-1v-1c0-.552.448-1 1-1h3v-3c0-.552.448-1 1-1z" fill="#2fdf84"/><path d="m15.5 21.5h-2c-.55 0-1-.45-1-1v-1c0-.55.45-1 1-1h2c-.55 0-1 .45-1 1v1c0 .55.45 1 1 1z" fill="#00b871"/><path d="m10.5 27.5h-2c-1.1 0-2-.9-2-2v-12c0-1.1.9-2 2-2h2c-1.1 0-2 .9-2 2v12c0 1.1.9 2 2 2z" fill="#d5dbe1"/><path d="m27.5 28.25h-19c-1.517 0-2.75-1.233-2.75-2.75v-12c0-1.517 1.233-2.75 2.75-2.75h19c1.517 0 2.75 1.233 2.75 2.75v12c0 1.517-1.233 2.75-2.75 2.75zm-19-16c-.689 0-1.25.561-1.25 1.25v12c0 .689.561 1.25 1.25 1.25h19c.689 0 1.25-.561 1.25-1.25v-12c0-.689-.561-1.25-1.25-1.25z"/><path d="m22.25 11.5h-1.5v-2c0-.138-.112-.25-.25-.25h-5c-.138 0-.25.112-.25.25v2h-1.5v-2c0-.965.785-1.75 1.75-1.75h5c.965 0 1.75.785 1.75 1.75z"/><path d="m18.5 26.25h-1c-.965 0-1.75-.785-1.75-1.75v-2.25h-2.25c-.965 0-1.75-.785-1.75-1.75v-1c0-.965.785-1.75 1.75-1.75h2.25v-2.25c0-.965.785-1.75 1.75-1.75h1c.965 0 1.75.785 1.75 1.75v2.25h2.25c.965 0 1.75.785 1.75 1.75v1c0 .965-.785 1.75-1.75 1.75h-2.25v2.25c0 .965-.785 1.75-1.75 1.75zm-5-7c-.138 0-.25.112-.25.25v1c0 .138.112.25.25.25h3c.414 0 .75.336.75.75v3c0 .138.112.25.25.25h1c.138 0 .25-.112.25-.25v-3c0-.414.336-.75.75-.75h3c.138 0 .25-.112.25-.25v-1c0-.138-.112-.25-.25-.25h-3c-.414 0-.75-.336-.75-.75v-3c0-.138-.112-.25-.25-.25h-1c-.138 0-.25.112-.25.25v3c0 .414-.336.75-.75.75z"/><g fill="#a4afc1"><path d="m4.727 8.033h2v1h-2z" transform="matrix(.707 -.707 .707 .707 -4.357 6.549)"/><path d="m8.793 3.967h2v1h-2z" transform="matrix(.707 -.707 .707 .707 -.29 8.233)"/><path d="m5.05 3.467h1v2h-1z" transform="matrix(.707 -.707 .707 .707 -1.533 5.233)"/></g></svg>