<svg id="effect" height="512" viewBox="0 0 36 36" width="512" xmlns="http://www.w3.org/2000/svg"><path d="m7.678 5.564c-1.805 6.677-6.504 10.327-7.374 13.545s-.847 10.475 13.955 14.477 19.432-4.501 20.388-8.041c4.481-16.572-23.772-31.807-26.969-19.981z" fill="#efefef"/><path d="m17.5 12.5h1c.552 0 1 .448 1 1v3h3c.552 0 1 .448 1 1v1c0 .552-.448 1-1 1h-3v3c0 .552-.448 1-1 1h-1c-.552 0-1-.448-1-1v-3h-3c-.552 0-1-.448-1-1v-1c0-.552.448-1 1-1h3v-3c0-.552.448-1 1-1z" fill="#2fdf84"/><path d="m15.5 19.5h-2c-.55 0-1-.45-1-1v-1c0-.55.45-1 1-1h2c-.55 0-1 .45-1 1v1c0 .55.45 1 1 1z" fill="#00b871"/><path d="m18.5 24.25h-1c-.965 0-1.75-.785-1.75-1.75v-2.25h-2.25c-.965 0-1.75-.785-1.75-1.75v-1c0-.965.785-1.75 1.75-1.75h2.25v-2.25c0-.965.785-1.75 1.75-1.75h1c.965 0 1.75.785 1.75 1.75v2.25h2.25c.965 0 1.75.785 1.75 1.75v1c0 .965-.785 1.75-1.75 1.75h-2.25v2.25c0 .965-.785 1.75-1.75 1.75zm-5-7c-.138 0-.25.112-.25.25v1c0 .138.112.25.25.25h3c.414 0 .75.336.75.75v3c0 .138.112.25.25.25h1c.138 0 .25-.112.25-.25v-3c0-.414.336-.75.75-.75h3c.138 0 .25-.112.25-.25v-1c0-.138-.112-.25-.25-.25h-3c-.414 0-.75-.336-.75-.75v-3c0-.138-.112-.25-.25-.25h-1c-.138 0-.25.112-.25.25v3c0 .414-.336.75-.75.75z"/><path d="m27.5 12.25h-3.75v-1.5h3v-3h1.5v3.75c0 .414-.336.75-.75.75z"/><path d="m18 30.25c-6.755 0-12.25-5.495-12.25-12.25s5.495-12.25 12.25-12.25c3.879 0 7.563 1.868 9.855 4.997l-1.211.887c-2.009-2.745-5.241-4.384-8.644-4.384-5.928 0-10.75 4.822-10.75 10.75s4.822 10.75 10.75 10.75 10.75-4.822 10.75-10.75c0-.5-.03-.956-.092-1.395l1.484-.21c.072.509.107 1.034.107 1.605.001 6.755-5.494 12.25-12.249 12.25z"/><g fill="#a4afc1"><path d="m9.533 3.68h2v1h-2z" transform="matrix(.707 -.707 .707 .707 .129 8.673)"/><path d="m5.467 7.746h2v1h-2z" transform="matrix(.707 -.707 .707 .707 -3.937 6.988)"/><path d="m5.967 3.004h1v2h-1z" transform="matrix(.707 -.707 .707 .707 -.937 5.744)"/></g></svg>