<svg id="effect" height="512" viewBox="0 0 36 36" width="512" xmlns="http://www.w3.org/2000/svg"><path d="m8.377 4.167c6.917 0 11.667-3.583 15-3.583s10.333 1.916 10.333 17.249-9.417 17.583-13.083 17.583c-17.167.001-24.5-31.249-12.25-31.249z" fill="#efefef"/><path d="m7.5 13.5 4.561 14.597c.261.835 1.034 1.403 1.909 1.403h5.53l-6-21z" fill="#f3f3f1"/><path d="m12 6.5h-5.5l1.82 6.32 4.44-3.7z" fill="#2fdf84"/><path d="m24.5 21.5h-7.25l2.25 8h5c.552 0 1-.448 1-1v-6c0-.552-.448-1-1-1z" fill="#2fdf84"/><path d="m28.5 22.5h-2.75v6h2.75c.552 0 1-.448 1-1v-4c0-.552-.448-1-1-1z" fill="#f3f3f1"/><path d="m9.93 11.48-1.61 1.34-1.82-6.32h2z" fill="#00b871"/><path d="m21.5 29.5h-2l-2.25-8h2z" fill="#00b871"/><path d="m15.97 29.5h-2c-.87 0-1.65-.57-1.91-1.4l-4.56-14.6 6-5 .38 1.35-4.38 3.65 4.56 14.6c.26.83 1.04 1.4 1.91 1.4z" fill="#d5dbe1"/><path d="m25.75 22.5h2v6h-2z" fill="#d5dbe1"/><path d="m19.5 30.25h-5.529c-1.21 0-2.265-.775-2.625-1.93l-4.562-14.596c-.091-.29.003-.605.235-.8l6-5c.195-.163.46-.215.701-.141.242.075.431.267.5.511l6 21c.065.227.02.47-.122.657-.141.189-.363.299-.598.299zm-11.135-16.495 4.412 14.118c.164.524.644.877 1.193.877h4.535l-5.41-18.937z"/><path d="m8.75 15.75h7v1.5h-7z"/><path d="m9.75 19.75h7v1.5h-7z"/><path d="m7.6 13.028-1.82-6.32c-.066-.227-.021-.471.12-.659s.365-.299.6-.299h5.5c.334 0 .627.221.721.541l.76 2.62-1.441.418-.603-2.079h-3.94l1.545 5.362z"/><path d="m24.5 30.25h-5v-1.5h5c.138 0 .25-.112.25-.25v-6c0-.138-.112-.25-.25-.25h-7.25v-1.5h7.25c.965 0 1.75.785 1.75 1.75v6c0 .965-.785 1.75-1.75 1.75z"/><path d="m28.5 29.25h-2.75v-1.5h2.75c.138 0 .25-.112.25-.25v-4c0-.138-.112-.25-.25-.25h-2.75v-1.5h2.75c.965 0 1.75.785 1.75 1.75v4c0 .965-.785 1.75-1.75 1.75z"/><g fill="#a4afc1"><path d="m26.201 12.231h1v2h-1z" transform="matrix(.707 -.707 .707 .707 -1.538 22.746)"/><path d="m22.136 8.165h1v2h-1z" transform="matrix(.707 -.707 .707 .707 .149 18.69)"/><path d="m25.878 8.665h2v1h-2z" transform="matrix(.707 -.707 .707 .707 1.392 21.69)"/></g></svg>