<svg id="effect" height="512" viewBox="0 0 36 36" width="512" xmlns="http://www.w3.org/2000/svg"><path d="m27.417 3.914c-6.915.129-11.732-3.365-15.064-3.302s-10.296 2.109-10.009 17.44 9.744 17.404 13.41 17.336c17.163-.321 23.911-31.703 11.663-31.474z" fill="#efefef"/><path d="m20.293 19.707-6.293 6.293c-1.105 1.105-2.895 1.105-4 0-1.105-1.105-1.105-2.895 0-4l6.293-6.293c.391-.391 1.024-.391 1.414 0l2.586 2.586c.39.39.39 1.024 0 1.414z" fill="#f3f3f1"/><g fill="#2fdf84"><path d="m22.75 13.25c-.552-.552-1.448-.552-2 0l-2.75 2.75 2 2 2.75-2.75c.552-.552.552-1.448 0-2z"/><circle cx="27" cy="9" r="2.5"/><circle cx="25" cy="17" r="2.5"/><circle cx="19" cy="11" r="2.5"/></g><path d="m28 11.29c-.31.14-.65.21-1 .21-1.38 0-2.5-1.12-2.5-2.5s1.12-2.5 2.5-2.5c.35 0 .69.07 1 .21-.88.38-1.5 1.26-1.5 2.29s.62 1.91 1.5 2.29z" fill="#00b871"/><path d="m26 19.29c-.31.14-.65.21-1 .21-1.38 0-2.5-1.12-2.5-2.5s1.12-2.5 2.5-2.5c.35 0 .69.07 1 .21-.88.38-1.5 1.26-1.5 2.29s.62 1.91 1.5 2.29z" fill="#00b871"/><path d="m20 13.29c-.31.14-.65.21-1 .21-1.38 0-2.5-1.12-2.5-2.5s1.12-2.5 2.5-2.5c.35 0 .69.07 1 .21-.88.38-1.5 1.26-1.5 2.29s.62 1.91 1.5 2.29z" fill="#00b871"/><path d="m20 16 1 1-1 1-2-2 2.75-2.75c.55-.55 1.45-.55 2 0z" fill="#00b871"/><path d="m12 26c.29.29.63.5 1 .64-1 .38-2.19.17-3-.64-.55-.55-.82-1.28-.82-2s.27-1.45.82-2l6.29-6.29c.39-.39 1.03-.39 1.42 0l.29.29-6 6c-.55.55-.82 1.28-.82 2s.27 1.45.82 2z" fill="#d5dbe1"/><path d="m5.025 27h6.45v1.5h-6.45z" transform="matrix(.707 -.707 .707 .707 -17.206 13.961)"/><path d="m12 27.577c-.916 0-1.833-.35-2.53-1.047-1.396-1.396-1.396-3.665 0-5.061l6.293-6.293c.682-.682 1.793-.682 2.475 0l2.586 2.586c.683.683.683 1.792 0 2.475l-6.294 6.293c-.697.698-1.614 1.047-2.53 1.047zm5-11.413c-.064 0-.128.024-.177.073l-6.293 6.293c-.811.811-.811 2.129 0 2.939s2.129.811 2.939 0l6.293-6.293c.098-.098.098-.256 0-.354l-2.586-2.586c-.048-.048-.112-.072-.176-.072z"/><path d="m22.284 11.375h3.182v1.5h-3.182z" transform="matrix(.707 -.707 .707 .707 -1.581 20.434)"/><path d="m20.53 18.53-1.06-1.06 2.75-2.75c.126-.126.194-.293.194-.47s-.068-.344-.194-.47c-.252-.252-.688-.252-.939 0l-2.75 2.75-1.061-1.06 2.75-2.75c.844-.844 2.217-.844 3.061 0s.844 2.217 0 3.061z"/><path d="m27 12.25c-1.792 0-3.25-1.458-3.25-3.25s1.458-3.25 3.25-3.25 3.25 1.458 3.25 3.25-1.458 3.25-3.25 3.25zm0-5c-.965 0-1.75.785-1.75 1.75s.785 1.75 1.75 1.75 1.75-.785 1.75-1.75-.785-1.75-1.75-1.75z"/><path d="m25 20.25c-1.792 0-3.25-1.458-3.25-3.25s1.458-3.25 3.25-3.25 3.25 1.458 3.25 3.25-1.458 3.25-3.25 3.25zm0-5c-.965 0-1.75.785-1.75 1.75s.785 1.75 1.75 1.75 1.75-.785 1.75-1.75-.785-1.75-1.75-1.75z"/><path d="m19 14.25c-1.792 0-3.25-1.458-3.25-3.25s1.458-3.25 3.25-3.25 3.25 1.458 3.25 3.25-1.458 3.25-3.25 3.25zm0-5c-.965 0-1.75.785-1.75 1.75s.785 1.75 1.75 1.75 1.75-.785 1.75-1.75-.785-1.75-1.75-1.75z"/><path d="m9.5 10c-.827 0-1.5-.673-1.5-1.5s.673-1.5 1.5-1.5 1.5.673 1.5 1.5-.673 1.5-1.5 1.5zm0-2c-.275 0-.5.225-.5.5s.225.5.5.5.5-.225.5-.5-.225-.5-.5-.5z" fill="#a4afc1"/></svg>