<svg id="effect" height="512" viewBox="0 0 36 36" width="512" xmlns="http://www.w3.org/2000/svg"><path d="m1.003 14.311c3.253 6.104 2.324 11.981 3.891 14.923s6.551 8.218 20.083 1.008 11.09-16.579 9.365-19.815c-8.072-15.151-39.1-6.927-33.339 3.884z" fill="#efefef"/><circle cx="18.125" cy="18" fill="#f3f3f1" r="11.5"/><path d="m19 29.46c-.33.03-.66.04-1 .04-6.35 0-11.5-5.15-11.5-11.5s5.15-11.5 11.5-11.5c.34 0 .67.01 1 .04-5.88.51-10.5 5.45-10.5 11.46s4.62 10.95 10.5 11.46z" fill="#d5dbe1"/><path d="m22 18 5.556-5.556c.781-.781.781-2.047 0-2.828l-1.172-1.172c-.781-.781-2.047-.781-2.828 0l-5.556 5.556-5.556-5.556c-.781-.781-2.047-.781-2.828 0l-1.172 1.172c-.781.781-.781 2.047 0 2.828l5.556 5.556-5.556 5.556c-.781.781-.781 2.047 0 2.828l1.172 1.172c.781.781 2.047.781 2.828 0l5.556-5.556 5.556 5.556c.781.781 2.047.781 2.828 0l1.172-1.172c.781-.781.781-2.047 0-2.828z" fill="#2fdf84"/><circle cx="18" cy="18" fill="#f3f3f1" r="5.5"/><g fill="#00b871"><path d="m13.722 20.278-.17-1.83-5.112 5.112c-.78.78-.78 2.04 0 2.82l1.18 1.18c.65.65 1.65.76 2.41.31-.15-.08-.28-.18-.41-.31l-1.18-1.18c-.78-.78-.78-2.04 0-2.82z"/><path d="m10.44 12.44c-.78-.78-.78-2.04 0-2.82l1.18-1.18c.13-.13.26-.23.41-.31-.76-.45-1.76-.34-2.41.31l-1.18 1.18c-.78.78-.78 2.04 0 2.82l5.02 5.02-.205-2.205z"/><path d="m25.97 8.13c-.76-.45-1.76-.34-2.41.31l-4.411 4.411 1.663.337 4.748-4.748c.13-.13.26-.23.41-.31z"/><path d="m25.56 27.56-4.94-4.94-1.471.529 4.411 4.411c.65.65 1.65.76 2.41.31-.15-.08-.28-.18-.41-.31z"/></g><path d="m19 23.41c-.32.06-.66.09-1 .09-3.04 0-5.5-2.46-5.5-5.5s2.46-5.5 5.5-5.5c.34 0 .68.03 1 .09-2.56.47-4.5 2.71-4.5 5.41s1.94 4.94 4.5 5.41z" fill="#d5dbe1"/><path d="m18 30.25c-2.213 0-4.38-.597-6.266-1.727l.771-1.287c3.305 1.98 7.684 1.98 10.988 0l.771 1.287c-1.884 1.13-4.051 1.727-6.264 1.727z"/><path d="m23.494 8.764c-3.305-1.98-7.684-1.98-10.988 0l-.771-1.287c3.771-2.259 8.76-2.259 12.531 0z"/><path d="m28.523 24.265-1.287-.771c.99-1.653 1.514-3.553 1.514-5.495s-.523-3.842-1.514-5.495l1.287-.771c1.13 1.885 1.727 4.052 1.727 6.265s-.597 4.382-1.727 6.267z"/><path d="m7.477 24.265c-1.13-1.885-1.727-4.052-1.727-6.265s.597-4.38 1.727-6.265l1.287.771c-.991 1.652-1.514 3.552-1.514 5.494s.523 3.842 1.514 5.495z"/><path d="m18 24.25c-3.446 0-6.25-2.804-6.25-6.25s2.804-6.25 6.25-6.25 6.25 2.804 6.25 6.25-2.804 6.25-6.25 6.25zm0-11c-2.619 0-4.75 2.131-4.75 4.75s2.131 4.75 4.75 4.75 4.75-2.131 4.75-4.75-2.131-4.75-4.75-4.75z"/><path d="m24.97 28.892c-.734 0-1.425-.286-1.944-.806l-3.916-3.916 1.061-1.061 3.916 3.916c.473.473 1.295.472 1.768 0l1.172-1.172c.236-.236.366-.55.366-.884s-.13-.648-.366-.884l-3.916-3.916 1.061-1.061 3.916 3.916c1.072 1.072 1.072 2.817 0 3.889l-1.172 1.171c-.52.521-1.211.808-1.946.808z"/><path d="m12.08 17.14-4.166-4.166c-1.072-1.072-1.072-2.817 0-3.889l1.172-1.171c1.036-1.039 2.849-1.041 3.889 0l4.166 4.166-1.061 1.06-4.166-4.166c-.473-.473-1.295-.472-1.768 0l-1.172 1.172c-.487.487-.487 1.281 0 1.768l4.166 4.166z"/><path d="m11.03 28.892c-.735 0-1.426-.286-1.944-.806l-1.172-1.171c-1.072-1.072-1.072-2.817 0-3.889l3.916-3.916 1.061 1.061-3.916 3.916c-.236.236-.366.55-.366.884 0 .333.13.647.366.884l1.172 1.171c.473.473 1.295.473 1.768 0l3.916-3.916 1.061 1.061-3.916 3.916c-.521.518-1.211.805-1.946.805z"/><path d="m24.17 16.89-1.061-1.061 3.916-3.916c.236-.236.366-.55.366-.884 0-.333-.13-.647-.366-.884l-1.172-1.171c-.473-.473-1.295-.473-1.768 0l-3.915 3.916-1.061-1.061 3.916-3.916c1.04-1.04 2.853-1.039 3.889 0l1.172 1.171c1.072 1.072 1.072 2.817 0 3.889z"/><path d="m29.5 6.974c-.827 0-1.5-.673-1.5-1.5s.673-1.5 1.5-1.5 1.5.673 1.5 1.5-.673 1.5-1.5 1.5zm0-2c-.275 0-.5.224-.5.5s.225.5.5.5.5-.224.5-.5-.225-.5-.5-.5z" fill="#a4afc1"/></svg>