<svg id="effect" height="512" viewBox="0 0 36 36" width="512" xmlns="http://www.w3.org/2000/svg"><path d="m4.167 27.623c0-6.917-3.583-11.667-3.583-15s1.916-10.333 17.249-10.333 17.583 9.417 17.583 13.083c.001 17.167-31.249 24.5-31.249 12.25z" fill="#efefef"/><path d="m25.5 16.5c-2.209 0-4-1.791-4-4v-5c0-.552.448-1 1-1h6c.552 0 1 .448 1 1v5c0 2.209-1.791 4-4 4z" fill="#2fdf84"/><path d="m21.5 25.5v4h-15v-4c0-1.66 1.34-3 3-3h9c1.66 0 3 1.34 3 3z" fill="#f3f3f1"/><path d="m14.605 13.506c-1.343 1.593-3.032 1.723-4.568 1.63-.011.122-.037.239-.037.364 0 2.209 1.791 4 4 4s4-1.791 4-4c0-.205-.031-.402-.06-.599-1.282-.211-2.481-.763-3.335-1.395z" fill="#f3f3f1"/><path d="m14 11.5c-2.084 0-3.776 1.6-3.963 3.636 1.536.093 3.225-.036 4.568-1.63.855.632 2.054 1.184 3.335 1.395-.291-1.923-1.936-3.401-3.94-3.401z" fill="#2fdf84"/><path d="m26.5 16.37c-.32.09-.65.13-1 .13-2.21 0-4-1.79-4-4v-5c0-.55.45-1 1-1h2c-.55 0-1 .45-1 1v5c0 1.86 1.27 3.43 3 3.87z" fill="#00b871"/><path d="m11.5 22.5c-1.66 0-3 1.34-3 3v4h-2v-4c0-1.66 1.34-3 3-3z" fill="#d5dbe1"/><path d="m14 11.5c-2.085 0-3.777 1.599-3.963 3.636.652.04 1.332.04 2.002-.093.19-1.654 1.376-3.01 2.961-3.413-.32-.09-.65-.13-1-.13z" fill="#00b871"/><path d="m10.037 15.136c-.011.122-.037.239-.037.364 0 2.21 1.79 4 4 4 .35 0 .68-.04 1-.13-1.73-.44-3-2.01-3-3.87 0-.156.021-.306.039-.457-.67.132-1.35.132-2.002.093z" fill="#d5dbe1"/><path d="m21.5 30.25h-15c-.414 0-.75-.336-.75-.75v-4c0-2.067 1.683-3.75 3.75-3.75h9c2.067 0 3.75 1.683 3.75 3.75v4c0 .414-.336.75-.75.75zm-14.25-1.5h13.5v-3.25c0-1.24-1.01-2.25-2.25-2.25h-9c-1.24 0-2.25 1.01-2.25 2.25z"/><path d="m14 20.25c-2.619 0-4.75-2.131-4.75-4.75s2.131-4.75 4.75-4.75 4.75 2.131 4.75 4.75-2.131 4.75-4.75 4.75zm0-8c-1.792 0-3.25 1.458-3.25 3.25s1.458 3.25 3.25 3.25 3.25-1.458 3.25-3.25-1.458-3.25-3.25-3.25z"/><path d="m17.395 15.834c-1.155 0-2.017-.7-2.523-1.264-2.277 1.62-4.882 1.188-5.001 1.168l.257-1.478c.024.003 2.521.4 4.362-1.311.167-.155.397-.229.622-.191.226.033.424.168.538.366.035.058.904 1.491 2.154 1.151l.393 1.447c-.282.078-.55.112-.802.112z"/><path d="m25.5 17.25c-2.619 0-4.75-2.131-4.75-4.75v-5c0-.965.785-1.75 1.75-1.75h6c.965 0 1.75.785 1.75 1.75v5c0 2.619-2.131 4.75-4.75 4.75zm-3-10c-.138 0-.25.112-.25.25v5c0 1.792 1.458 3.25 3.25 3.25s3.25-1.458 3.25-3.25v-5c0-.138-.112-.25-.25-.25z"/><path d="m23.5 27.25h-2v-1.5h2c.689 0 1.25-.561 1.25-1.25v-8h1.5v8c0 1.517-1.233 2.75-2.75 2.75z"/><path d="m24.75 8.75h1.5v4.5h-1.5z"/><path d="m23.25 10.25h4.5v1.5h-4.5z"/><path d="m32.5 5.625c-.827 0-1.5-.673-1.5-1.5s.673-1.5 1.5-1.5 1.5.673 1.5 1.5-.673 1.5-1.5 1.5zm0-2c-.275 0-.5.225-.5.5s.225.5.5.5.5-.225.5-.5-.225-.5-.5-.5z" fill="#a4afc1"/></svg>