<svg id="effect" height="512" viewBox="0 0 36 36" width="512" xmlns="http://www.w3.org/2000/svg"><path d="m8.114 5.564c-1.805 6.677-6.504 10.327-7.374 13.545s-.847 10.475 13.955 14.477 19.432-4.501 20.388-8.041c4.481-16.572-23.772-31.807-26.969-19.981z" fill="#efefef"/><path d="m23.5 12c0 3.04-2.46 5.5-5.5 5.5s-5.5-2.46-5.5-5.5c0-.17.01-.34.03-.51l.22.01s4.69.16 6.25-2c0 0 1.85 2.12 4.47 1.99.02.17.03.34.03.51z" fill="#f3f3f1"/><path d="m23.47 11.49c-2.62.13-4.47-1.99-4.47-1.99-1.56 2.16-6.25 2-6.25 2l-.22-.01c.25-2.8 2.6-4.99 5.47-4.99s5.22 2.19 5.47 4.99z" fill="#2fdf84"/><path d="m27.5 24.5v4c0 .55-.45 1-1 1h-6c0-2.21-1.79-4-4-4h-3.39l.89 4h-4.5c-.55 0-1-.45-1-1v-4c0-2.04 1.53-3.73 3.51-3.97.16-.02.32-.03.49-.03h11c2.21 0 4 1.79 4 4z" fill="#f3f3f1"/><path d="m20.5 29.5h-6.5l-.89-4h3.39c2.21 0 4 1.79 4 4z" fill="#2fdf84"/><path d="m19 6.59c-2.37.44-4.21 2.39-4.46 4.82-1.02.12-1.79.09-1.79.09l-.22-.01c.25-2.8 2.6-4.99 5.47-4.99.34 0 .68.03 1 .09z" fill="#00b871"/><path d="m16 29.5h-2l-.89-4h2z" fill="#00b871"/><path d="m14.5 12c0-.11-.109-.355-.183-.563-.907.086-1.567.063-1.567.063l-.22-.01c-.02.17-.03.34-.03.51 0 3.04 2.46 5.5 5.5 5.5.34 0 .68-.03 1-.09-2.56-.47-4.5-2.71-4.5-5.41z" fill="#d5dbe1"/><path d="m14.5 20.5c-.17 0-.33.01-.49.03-1.98.24-3.51 1.93-3.51 3.97v4c0 .55.45 1 1 1h-2c-.55 0-1-.45-1-1v-4c0-2.04 1.53-3.73 3.51-3.97.16-.02.32-.03.49-.03z" fill="#d5dbe1"/><path d="m18 18.25c-3.446 0-6.25-2.804-6.25-6.25s2.804-6.25 6.25-6.25 6.25 2.804 6.25 6.25-2.804 6.25-6.25 6.25zm0-11c-2.619 0-4.75 2.131-4.75 4.75s2.131 4.75 4.75 4.75 4.75-2.131 4.75-4.75-2.131-4.75-4.75-4.75z"/><path d="m12.975 12.253c-.138 0-.226-.003-.25-.003l.049-1.5c1.19.049 4.532-.19 5.618-1.69.134-.185.345-.299.573-.309.231-.013.449.084.599.256.014.016 1.567 1.743 3.68 1.743h.004l.002 1.5c-.002 0-.004 0-.006 0-1.922 0-3.429-1.016-4.215-1.685-1.811 1.571-5.114 1.688-6.054 1.688z"/><path d="m26.5 30.25h-17c-.965 0-1.75-.785-1.75-1.75v-4c0-2.619 2.131-4.75 4.75-4.75h11c2.619 0 4.75 2.131 4.75 4.75v4c0 .965-.785 1.75-1.75 1.75zm-14-9c-1.792 0-3.25 1.458-3.25 3.25v4c0 .138.112.25.25.25h17c.138 0 .25-.112.25-.25v-4c0-1.792-1.458-3.25-3.25-3.25z"/><path d="m20.5 30.25h-7v-1.5h6.163c-.339-1.432-1.628-2.5-3.163-2.5h-5v-1.5h5c2.619 0 4.75 2.131 4.75 4.75 0 .414-.336.75-.75.75z"/><path d="m12.25 20.39h1.5v9.22h-1.5z" transform="matrix(.976 -.217 .217 .976 -5.114 3.415)"/><path d="m15.45 22.25h5.099v1.5h-5.099z" transform="matrix(.197 -.981 .981 .197 -8.09 36.127)"/><g fill="#a4afc1"><path d="m32.209 6.199h1v2h-1z" transform="matrix(.707 -.707 .707 .707 4.49 25.237)"/><path d="m28.143 2.133h1v2h-1z" transform="matrix(.707 -.707 .707 .707 6.174 21.171)"/><path d="m31.886 2.633h2v1h-2z" transform="matrix(.707 -.707 .707 .707 7.417 24.171)"/></g></svg>