<svg id="effect" height="512" viewBox="0 0 36 36" width="512" xmlns="http://www.w3.org/2000/svg"><path d="m27.417 3.914c-6.915.129-11.732-3.365-15.064-3.302s-10.296 2.109-10.009 17.44 9.744 17.404 13.41 17.336c17.163-.321 23.911-31.703 11.663-31.474z" fill="#efefef"/><path d="m27.5 29.5h-19c-1.105 0-2-.895-2-2v-19c0-1.105.895-2 2-2h19c1.105 0 2 .895 2 2v19c0 1.105-.895 2-2 2z" fill="#f3f3f1"/><circle cx="15.5" cy="20.5" fill="#2fdf84" r="6"/><path d="m10.5 29.5h-2c-1.1 0-2-.9-2-2v-19c0-1.1.9-2 2-2h2c-1.1 0-2 .9-2 2v19c0 1.1.9 2 2 2z" fill="#d5dbe1"/><path d="m16.5 26.41c-.32.06-.66.09-1 .09-3.31 0-6-2.69-6-6s2.69-6 6-6c.34 0 .68.03 1 .09-2.84.47-5 2.94-5 5.91s2.16 5.44 5 5.91z" fill="#00b871"/><path d="m27.5 30.25h-19c-1.517 0-2.75-1.233-2.75-2.75v-19c0-1.517 1.233-2.75 2.75-2.75h19c1.517 0 2.75 1.233 2.75 2.75v19c0 1.517-1.233 2.75-2.75 2.75zm-19-23c-.689 0-1.25.561-1.25 1.25v19c0 .689.561 1.25 1.25 1.25h19c.689 0 1.25-.561 1.25-1.25v-19c0-.689-.561-1.25-1.25-1.25z"/><path d="m15.5 27.25c-3.722 0-6.75-3.028-6.75-6.75s3.028-6.75 6.75-6.75 6.75 3.028 6.75 6.75-3.028 6.75-6.75 6.75zm0-12c-2.895 0-5.25 2.355-5.25 5.25s2.355 5.25 5.25 5.25 5.25-2.355 5.25-5.25-2.355-5.25-5.25-5.25z"/><path d="m27.25 16.25h-1.5v-6h-6v-1.5h6.75c.414 0 .75.336.75.75z"/><path d="m18.352 12.125h9.546v1.5h-9.546z" transform="matrix(.707 -.707 .707 .707 -2.331 20.123)"/><path d="m3.417 6.328c-.827 0-1.5-.673-1.5-1.5s.673-1.5 1.5-1.5 1.5.673 1.5 1.5-.673 1.5-1.5 1.5zm0-2c-.276 0-.5.224-.5.5s.224.5.5.5.5-.224.5-.5-.225-.5-.5-.5z" fill="#a4afc1"/></svg>