<svg id="effect" height="512" viewBox="0 0 36 36" width="512" xmlns="http://www.w3.org/2000/svg"><path d="m7.678 5.564c-1.805 6.677-6.504 10.327-7.374 13.545s-.847 10.475 13.955 14.477 19.432-4.501 20.388-8.041c4.481-16.572-23.772-31.807-26.969-19.981z" fill="#efefef"/><path d="m24.753 23.908c-4.502.771-9.003.771-13.505 0-1.162-.199-1.938-1.259-1.707-2.366l1.247-5.96c.232-1.108 1.359-1.784 2.515-1.549 3.132.638 6.264.638 9.396 0 1.156-.236 2.283.441 2.515 1.549l1.247 5.96c.23 1.107-.547 2.167-1.708 2.366z" fill="#f3f3f1"/><path d="m19 24.47c-2.58.07-5.17-.12-7.75-.56-1.16-.2-1.94-1.26-1.71-2.37l1.25-5.96c.23-1.11 1.36-1.78 2.51-1.55.23.05.47.09.7.13-.6.24-1.07.75-1.21 1.42l-1.25 5.96c-.23 1.11.55 2.17 1.71 2.37 1.92.33 3.83.52 5.75.56z" fill="#d5dbe1"/><path d="m18 25.234c-2.299 0-4.597-.195-6.88-.586-.777-.133-1.471-.574-1.902-1.209-.414-.608-.561-1.336-.411-2.05l1.246-5.96c.313-1.493 1.836-2.451 3.398-2.13 3.02.615 6.078.615 9.098 0 1.561-.316 3.086.638 3.398 2.13l1.246 5.96c.149.713.003 1.441-.411 2.05-.432.635-1.125 1.076-1.902 1.209-2.283.391-4.581.586-6.88.586zm6.753-1.326h.01zm-11.906-9.171c-.638 0-1.201.405-1.325.999l-1.246 5.959c-.065.312-.001.631.183.899.204.3.538.509.916.574 4.396.753 8.855.753 13.252 0 .379-.065.712-.274.916-.574.184-.269.248-.588.183-.899l-1.246-5.96c-.144-.687-.873-1.123-1.631-.967-3.215.656-6.479.656-9.695 0-.105-.021-.207-.031-.307-.031z"/><path d="m9.366 21.64-1.5-.64c-1.287-.555-2.116-1.814-2.116-3.21 0-.131.011-.275.022-.406.146-1.166.843-2.161 1.865-2.69 1.021-.53 2.233-.523 3.245.015l.244.133-.715 1.318-.239-.13c-.579-.308-1.253-.311-1.846-.004s-.98.861-1.063 1.519c-.004.06-.013.157-.013.245 0 .796.474 1.515 1.207 1.831l1.497.639z"/><path d="m26.634 21.64-.588-1.38 1.5-.64c.73-.315 1.204-1.034 1.204-1.83 0-.088-.009-.185-.017-.273-.08-.63-.468-1.184-1.061-1.491-.593-.308-1.268-.304-1.851.007l-.234.127-.715-1.318.239-.13c1.017-.54 2.229-.547 3.25-.018 1.022.529 1.719 1.525 1.862 2.663.015.159.025.303.025.434 0 1.396-.829 2.655-2.113 3.209z"/><path d="m17.25 16.75h1.5v5.5h-1.5z"/><path d="m15.25 18.75h5.5v1.5h-5.5z"/><g fill="#a4afc1"><path d="m29.886 7.75h2v1h-2z"/><path d="m24.136 7.75h2v1h-2z"/><path d="m27.636 4.25h1v2h-1z"/><path d="m27.636 10.25h1v2h-1z"/></g></svg>