<svg id="effect" height="512" viewBox="0 0 36 36" width="512" xmlns="http://www.w3.org/2000/svg"><path d="m34.928 20.591c-3.693-5.848-3.199-11.778-4.979-14.596s-7.138-7.714-20.103.473-9.84 17.35-7.882 20.45c9.166 14.515 39.504 4.031 32.964-6.327z" fill="#efefef"/><path d="m6.5 19.56c0 1.1.9 2 2 2 .08 0 .16 0 .24-.01l-.24-3.99c-1.1 0-2 .9-2 2z" fill="#f3f3f1"/><path d="m27.5 17.56-.24 3.99c.08.01.16.01.24.01 1.1 0 2-.9 2-2s-.9-2-2-2z" fill="#f3f3f1"/><path d="m27.5 13.99v1.48l-4.78-.51c-1.36-.15-2.68-.53-3.91-1.12-1.22-.58-2.34-1.37-3.31-2.34-1.28 1.92-3.27 3.25-5.54 3.71l-1.46.29c0-.85 0-1.51 0-1.51 0-5.35 5.21-7.49 9.5-7.49s9.5 2.14 9.5 7.49z" fill="#2fdf84"/><path d="m27.5 15.47v3.87c0 .76-.08 1.5-.24 2.21-.83 3.6-4.01 7.95-9.26 7.95-4.8 0-8.3-3.8-9.26-7.95-.16-.71-.24-1.45-.24-2.21v-3.84l1.46-.29c2.27-.46 4.26-1.79 5.54-3.71.97.97 2.09 1.76 3.31 2.34 1.23.59 2.55.97 3.91 1.12z" fill="#f3f3f1"/><path d="m19 6.55c-4.06.3-8.5 2.5-8.5 7.44v1.09c-.18.05-.36.09-.54.13l-1.46.29c0-.85 0-1.51 0-1.51 0-5.35 5.21-7.49 9.5-7.49.33 0 .66.01 1 .05z" fill="#00b871"/><path d="m10.74 21.55c-.16-.71-.24-1.45-.24-2.21v-4.267c-.179.048-.357.1-.54.137l-1.46.29v3.84c0 .76.08 1.5.24 2.21.96 4.15 4.46 7.95 9.26 7.95.34 0 .67-.02 1-.06-4.28-.48-7.37-4.03-8.26-7.89z" fill="#d5dbe1"/><path d="m8.5 22.31c-1.516 0-2.75-1.233-2.75-2.75s1.234-2.75 2.75-2.75v1.5c-.689 0-1.25.561-1.25 1.25 0 .708.584 1.257 1.306 1.25.031 0 .062 0 .093-.004l.182 1.488c-.11.014-.221.016-.331.016z"/><path d="m27.5 22.31c-.11 0-.221-.002-.331-.016l.182-1.488c.05.006.101.004.149.004.689 0 1.25-.561 1.25-1.25s-.561-1.25-1.25-1.25v-1.5c1.516 0 2.75 1.233 2.75 2.75s-1.234 2.75-2.75 2.75z"/><path d="m19.665 25.671c-1.12-.561-2.209-.561-3.329 0l-.671-1.342c1.55-.775 3.121-.775 4.671 0z"/><path d="m18 30.25c-5.512 0-9.042-4.423-9.991-8.531-.172-.765-.259-1.564-.259-2.379v-5.35c0-5.661 5.313-8.24 10.25-8.24s10.25 2.579 10.25 8.24v5.35c0 .815-.087 1.614-.259 2.375-.949 4.112-4.479 8.535-9.991 8.535zm0-23c-4.214 0-8.75 2.109-8.75 6.74v5.35c0 .704.075 1.393.222 2.045.818 3.546 3.836 7.365 8.528 7.365s7.71-3.819 8.529-7.369c.146-.648.221-1.337.221-2.041v-5.35c0-4.631-4.536-6.74-8.75-6.74z"/><path d="m27.669 16.246-5.032-.544c-2.601-.281-5.067-1.366-7.033-3.079-1.384 1.715-3.305 2.882-5.493 3.319l-1.464.293-.294-1.471 1.464-.293c2.083-.417 3.88-1.62 5.059-3.388.125-.187.327-.309.55-.33.221-.029.445.057.604.216 1.814 1.814 4.218 2.965 6.769 3.24l5.032.544z"/><path d="m12.75 16.336h1.5v4.328h-1.5z" transform="matrix(.707 -.707 .707 .707 -9.127 14.965)"/><path d="m11.336 17.75h4.328v1.5h-4.328z" transform="matrix(.707 -.707 .707 .707 -9.127 14.965)"/><path d="m21.75 16.336h1.5v4.328h-1.5z" transform="matrix(.707 -.707 .707 .707 -6.491 21.328)"/><path d="m20.336 17.75h4.328v1.5h-4.328z" transform="matrix(.707 -.707 .707 .707 -6.491 21.328)"/><path d="m20.55 27.1c-.862-.646-1.3-1.354-1.3-2.1s.438-1.453 1.3-2.1l.9 1.199c-.452.339-.7.658-.7.9s.249.562.7.9z"/><path d="m15.45 27.1-.9-1.199c.452-.339.7-.658.7-.9s-.249-.562-.7-.9l.9-1.199c.862.646 1.3 1.354 1.3 2.1s-.437 1.451-1.3 2.098z"/><path d="m29.595 9.499c-.384 0-.768-.146-1.061-.438-.584-.585-.584-1.536 0-2.121.586-.584 1.537-.586 2.122 0 .585.585.585 1.536 0 2.121-.293.293-.677.438-1.061.438zm0-1.999c-.128 0-.256.049-.354.146-.194.195-.194.512 0 .707s.512.195.707 0 .195-.512 0-.707c-.097-.097-.225-.146-.353-.146z" fill="#a4afc1"/></svg>