<svg id="effect" height="512" viewBox="0 0 36 36" width="512" xmlns="http://www.w3.org/2000/svg"><path d="m8.377 31.833c6.917 0 11.667 3.583 15 3.583s10.333-1.916 10.333-17.249-9.417-17.584-13.083-17.584c-17.167 0-24.5 31.25-12.25 31.25z" fill="#efefef"/><path d="m29.438 13.514-2.561 10.386c-.294 1.192-1.542 1.903-2.677 1.473-4.131-1.567-8.262-1.567-12.394-.002-1.137.431-2.388-.282-2.683-1.476l-2.56-10.382c-.271-1.101.372-2.219 1.446-2.537 6.661-1.97 13.322-1.97 19.983 0 1.074.32 1.717 1.437 1.446 2.538z" fill="#f3f3f1"/><path d="m17.5 12.5h1c.552 0 1 .448 1 1v2h2c.552 0 1 .448 1 1v1c0 .552-.448 1-1 1h-2v2c0 .552-.448 1-1 1h-1c-.552 0-1-.448-1-1v-2h-2c-.552 0-1-.448-1-1v-1c0-.552.448-1 1-1h2v-2c0-.552.448-1 1-1z" fill="#2fdf84"/><path d="m16.5 18.5h-2c-.55 0-1-.45-1-1v-1c0-.55.45-1 1-1h2c-.55 0-1 .45-1 1v1c0 .55.45 1 1 1z" fill="#00b871"/><path d="m12.17 25.25c-.12.03-.24.07-.36.12-1.14.43-2.39-.28-2.69-1.47l-2.56-10.39c-.27-1.1.37-2.21 1.45-2.53 3.66-1.08 7.33-1.57 10.99-1.46-3 .08-5.99.58-8.99 1.46-1.08.32-1.72 1.43-1.45 2.53l2.56 10.39c.15.6.55 1.08 1.05 1.35z" fill="#d5dbe1"/><path d="m24.884 26.249c-.322 0-.645-.058-.95-.174-3.936-1.492-7.926-1.493-11.863-.001-.722.274-1.535.223-2.228-.142-.724-.38-1.252-1.056-1.449-1.855l-2.56-10.383c-.368-1.492.494-3.001 1.961-3.435 6.771-2.003 13.637-2.002 20.409 0 1.468.434 2.33 1.943 1.961 3.435l-2.561 10.386c-.197.798-.724 1.474-1.447 1.854-.398.209-.836.315-1.273.315zm-6.884-2.797c2.16 0 4.32.407 6.465 1.22.325.123.679.1.995-.067.343-.18.594-.502.688-.884l2.562-10.386c.175-.712-.233-1.431-.931-1.637-6.488-1.92-13.069-1.92-19.558 0-.698.206-1.106.925-.931 1.637l2.561 10.382c.095.383.346.706.69.887.317.167.674.19.999.068 2.143-.814 4.302-1.22 6.46-1.22z"/><path d="m18.5 22.25h-1c-.965 0-1.75-.785-1.75-1.75v-1.25h-1.25c-.965 0-1.75-.785-1.75-1.75v-1c0-.965.785-1.75 1.75-1.75h1.25v-1.25c0-.965.785-1.75 1.75-1.75h1c.965 0 1.75.785 1.75 1.75v1.25h1.25c.965 0 1.75.785 1.75 1.75v1c0 .965-.785 1.75-1.75 1.75h-1.25v1.25c0 .965-.785 1.75-1.75 1.75zm-4-6c-.138 0-.25.112-.25.25v1c0 .138.112.25.25.25h2c.414 0 .75.336.75.75v2c0 .138.112.25.25.25h1c.138 0 .25-.112.25-.25v-2c0-.414.336-.75.75-.75h2c.138 0 .25-.112.25-.25v-1c0-.138-.112-.25-.25-.25h-2c-.414 0-.75-.336-.75-.75v-2c0-.138-.112-.25-.25-.25h-1c-.138 0-.25.112-.25.25v2c0 .414-.336.75-.75.75z"/><path d="m30.25 8.5c-.827 0-1.5-.673-1.5-1.5s.673-1.5 1.5-1.5 1.5.673 1.5 1.5-.673 1.5-1.5 1.5zm0-2c-.276 0-.5.224-.5.5s.224.5.5.5.5-.224.5-.5-.224-.5-.5-.5z" fill="#a4afc1"/></svg>