<svg id="effect" height="512" viewBox="0 0 36 36" width="512" xmlns="http://www.w3.org/2000/svg"><path d="m8.377 4.167c6.917 0 11.667-3.583 15-3.583s10.333 1.916 10.333 17.249-9.417 17.583-13.083 17.583c-17.167.001-24.5-31.249-12.25-31.249z" fill="#efefef"/><path d="m20.5 9c0-1.381-1.119-2.5-2.5-2.5s-2.5 1.119-2.5 2.5c0 .083.004.166.012.247l-.002.003 1.983 20.25h1.018l1.979-20.25-.002-.003c.008-.081.012-.164.012-.247z" fill="#2fdf84"/><path d="m28.99 11.68-3.15-1.71c-1.36-.74-3.17-.59-4.33.35l-1.22 1-.4 4c2.98.61 6.03-.37 9.11-2.09.67-.37.67-1.18-.01-1.55z" fill="#f3f3f1"/><path d="m14.49 10.32c-1.16-.94-2.97-1.09-4.33-.35l-3.15 1.71c-.68.37-.68 1.18-.01 1.55 3.08 1.72 6.13 2.7 9.11 2.09l-.4-4z" fill="#f3f3f1"/><path d="m17.51 9.25 1.49 15.24-.49 5.01h-1.02l-1.98-20.25c-.01-.08-.01-.17-.01-.25 0-1.38 1.12-2.5 2.5-2.5.35 0 .69.07 1 .21-.88.38-1.5 1.26-1.5 2.29 0 .08 0 .17.01.25z" fill="#00b871"/><path d="m22.29 11.32-.4 4c.27.05.54.1.82.13-.94.1-1.89.06-2.82-.13l.4-4 1.22-1c.92-.74 2.24-.99 3.43-.69-.52.12-1.02.36-1.43.69z" fill="#d5dbe1"/><path d="m15.29 15.45c-2.72.29-5.49-.66-8.29-2.22-.67-.37-.67-1.18.01-1.55l3.15-1.71c.88-.48 1.94-.58 2.9-.34-.31.07-.62.18-.9.34l-3.15 1.71c-.68.37-.68 1.18-.01 1.55 2.12 1.18 4.21 2.01 6.29 2.22z" fill="#d5dbe1"/><path d="m17.676 27.84h1.829v1.499h-1.829z" transform="matrix(.098 -.995 .995 .098 -11.69 44.278)"/><path d="m17.487 22.575h3.246v1.499h-3.246z" transform="matrix(.098 -.995 .995 .098 -5.981 40.048)"/><path d="m20.286 19.043-1.492-.146.944-9.667c.001-.019.002-.037.004-.056.005-.056.008-.115.008-.174 0-.965-.785-1.75-1.75-1.75s-1.75.785-1.75 1.75c0 .059.003.118.008.175.002.019.003.038.004.057l.935 9.545-1.492.146-.94-9.6c-.003-.022-.004-.044-.004-.066-.008-.085-.011-.171-.011-.257 0-1.792 1.458-3.25 3.25-3.25s3.25 1.458 3.25 3.25c0 .087-.003.173-.01.258 0 .021-.001.043-.004.064z"/><path d="m16.13 21.602h1.499v3.286h-1.499z" transform="matrix(.995 -.098 .098 .995 -2.186 1.756)"/><path d="m16.661 27.636h1.499v1.869h-1.499z" transform="matrix(.995 -.096 .096 .995 -2.667 1.807)"/><path d="m21.734 16.256c-.679 0-1.342-.067-1.995-.201l.301-1.47c2.49.51 5.224-.127 8.595-2.01.086-.047.116-.097.116-.117 0-.021-.032-.072-.119-.119l-3.149-1.709c-1.096-.597-2.567-.482-3.501.273l-1.216.997-.951-1.16 1.22-1c1.41-1.142 3.532-1.316 5.164-.428l3.149 1.709c.564.307.901.842.903 1.432.002.589-.33 1.125-.889 1.433-2.855 1.595-5.33 2.37-7.628 2.37z"/><path d="m14.267 16.256c-2.299 0-4.774-.775-7.632-2.371-.556-.307-.888-.843-.886-1.432.002-.59.339-1.125.902-1.432l3.151-1.71c1.631-.888 3.753-.714 5.159.426l1.224 1.002-.951 1.16-1.22-1c-.929-.752-2.401-.869-3.496-.271l-3.151 1.71c-.086.047-.118.098-.118.119s.03.07.113.116c3.373 1.883 6.104 2.521 8.598 2.011l.301 1.47c-.654.134-1.317.202-1.994.202z"/><path d="m23.89 21.178-.6-1.375c.9-.393 1.46-.893 1.46-1.303 0-.14-.072-.298-.216-.47l1.152-.96c.374.449.563.93.563 1.43.001 1.062-.837 2.013-2.359 2.678z"/><path d="m14.452 27.606c-1.692-.676-2.702-1.837-2.702-3.106 0-.553.193-1.105.558-1.597l1.205.894c-.175.235-.263.471-.263.703 0 .623.674 1.28 1.759 1.714z"/><path d="m18 28.25v-1.5c2.799 0 4.75-1.186 4.75-2.25s-1.951-2.25-4.75-2.25c-.459 0-.906-.021-1.343-.052-3.437-.234-6.907-1.468-6.907-3.698 0-.5.189-.981.563-1.43l1.152.96c-.144.172-.216.33-.216.47 0 .747 1.963 1.96 5.511 2.202.406.028.818.048 1.24.048 3.505 0 6.25 1.647 6.25 3.75s-2.745 3.75-6.25 3.75z"/><g fill="#a4afc1"><path d="m5.661 4.934h2v1h-2z" transform="matrix(.707 -.707 .707 .707 -1.891 6.302)"/><path d="m1.596 9h2v1h-2z" transform="matrix(.707 -.707 .707 .707 -5.957 4.618)"/><path d="m2.096 4.257h1v2h-1z" transform="matrix(.707 -.707 .707 .707 -2.957 3.375)"/><path d="m6.338 8.5h1v2h-1z" transform="matrix(.707 -.707 .707 .707 -4.715 7.622)"/></g></svg>