<svg id="effect" height="512" viewBox="0 0 36 36" width="512" xmlns="http://www.w3.org/2000/svg"><path d="m11.532 34.802c6.645-1.919 12.203.206 15.405-.719s9.396-4.708 5.142-19.44-13.924-14.28-17.447-13.263c-16.493 4.763-14.869 36.821-3.1 33.422z" fill="#efefef"/><path d="m9.829 7.38-2.449 2.449c-1.173 1.173-1.173 3.075 0 4.249l14.543 14.542c1.173 1.173 3.075 1.173 4.249 0l2.449-2.449c1.173-1.173 1.173-3.075 0-4.249l-14.544-14.542c-1.173-1.173-3.075-1.173-4.248 0z" fill="#f3f3f1"/><path d="m28.62 9.83-2.45-2.45c-1.17-1.17-3.07-1.17-4.25 0l-3.92 3.92 6.7 6.7 3.92-3.92c1.17-1.18 1.17-3.08 0-4.25z" fill="#2fdf84"/><path d="m7.38 21.92c-1.17 1.18-1.17 3.08 0 4.25l2.45 2.45c1.17 1.17 3.07 1.17 4.25 0l3.92-3.92-6.7-6.7z" fill="#2fdf84"/><path d="m25.7 17-1 1-6.7-6.7 3.92-3.92c.85-.84 2.08-1.08 3.13-.7-.41.14-.8.38-1.13.7l-3.92 3.92z" fill="#00b871"/><path d="m12.95 29.32c-1.06.38-2.28.14-3.12-.7l-2.45-2.45c-1.17-1.17-1.17-3.07 0-4.25l3.92-3.92 1 1-2.92 2.92c-1.17 1.18-1.17 3.08 0 4.25l2.45 2.45c.33.32.71.56 1.12.7z" fill="#00b871"/><path d="m25.05 29.32c-1.05.38-2.28.14-3.13-.7l-14.54-14.54c-1.17-1.18-1.17-3.08 0-4.25l2.45-2.45c.84-.84 2.06-1.08 3.12-.7-.41.14-.79.38-1.12.7l-2.45 2.45c-1.17 1.17-1.17 3.07 0 4.25l14.54 14.54c.33.32.72.56 1.13.7z" fill="#d5dbe1"/><path d="m24.047 30.25c-1.003 0-1.945-.391-2.654-1.1l-14.543-14.543c-.709-.709-1.1-1.651-1.1-2.654s.391-1.945 1.1-2.654l2.449-2.449c1.418-1.418 3.891-1.418 5.309 0l14.542 14.543c.709.709 1.1 1.651 1.1 2.654s-.391 1.945-1.1 2.654l-2.449 2.449c-.709.709-1.651 1.1-2.654 1.1zm-12.094-23c-.603 0-1.168.234-1.594.66l-2.449 2.449c-.426.426-.66.991-.66 1.594s.234 1.168.66 1.594l14.543 14.543c.852.852 2.336.852 3.188 0l2.449-2.449c.426-.426.66-.991.66-1.594s-.234-1.168-.66-1.594l-14.543-14.543c-.426-.426-.991-.66-1.594-.66z"/><path d="m25.23 18.53-1.06-1.06 3.92-3.92c.875-.882.876-2.313 0-3.189l-2.45-2.45c-.877-.877-2.309-.873-3.191.002l-3.919 3.917-1.06-1.06 3.92-3.92c1.471-1.458 3.852-1.46 5.311 0l2.45 2.45c1.458 1.458 1.459 3.84.002 5.309z"/><path d="m11.95 30.244c-.961 0-1.921-.364-2.65-1.094l-2.45-2.45c-1.458-1.458-1.459-3.84-.002-5.309l3.922-3.922 1.061 1.061-3.92 3.92c-.875.882-.876 2.313 0 3.189l2.45 2.45c.877.877 2.309.873 3.191-.002l3.918-3.918 1.061 1.061-3.92 3.92c-.736.73-1.699 1.094-2.661 1.094z"/><path d="m15.836 17.25h4.328v1.5h-4.328z" transform="matrix(.707 -.707 .707 .707 -7.456 18)"/><path d="m12.836 14.25h4.328v1.5h-4.328z" transform="matrix(.707 -.707 .707 .707 -6.213 15)"/><path d="m18.836 20.25h4.328v1.5h-4.328z" transform="matrix(.707 -.707 .707 .707 -8.699 21)"/><g fill="#a4afc1"><path d="m4.393 7.336h2v1h-2z" transform="matrix(.707 -.707 .707 .707 -3.961 6.109)"/><path d="m8.46 3.27h2v1h-2z" transform="matrix(.707 -.707 .707 .707 .105 7.793)"/><path d="m4.717 2.77h1v2h-1z" transform="matrix(.707 -.707 .707 .707 -1.138 4.793)"/></g></svg>