<svg id="effect" height="512" viewBox="0 0 36 36" width="512" xmlns="http://www.w3.org/2000/svg"><path d="m34.904 20.355c-3.782-5.791-3.38-11.727-5.203-14.518s-7.256-7.603-20.093.782-9.572 17.5-7.566 20.569c9.388 14.372 39.561 3.423 32.862-6.833z" fill="#efefef"/><path d="m29.5 9.5v2h-23v-2c0-1.1.9-2 2-2h19c1.1 0 2 .9 2 2z" fill="#2fdf84"/><path d="m29.5 11.5v15c0 1.1-.9 2-2 2h-19c-1.1 0-2-.9-2-2v-15z" fill="#f3f3f1"/><path d="m10.5 7.5c-1.1 0-2 .9-2 2v2h-2v-2c0-1.1.9-2 2-2z" fill="#00b871"/><path d="m10.5 28.5h-2c-1.1 0-2-.9-2-2v-15h2v15c0 1.1.9 2 2 2z" fill="#d5dbe1"/><path d="m27.5 29.25h-19c-1.517 0-2.75-1.233-2.75-2.75v-17c0-1.517 1.233-2.75 2.75-2.75h19c1.517 0 2.75 1.233 2.75 2.75v17c0 1.517-1.233 2.75-2.75 2.75zm-19-21c-.689 0-1.25.561-1.25 1.25v17c0 .689.561 1.25 1.25 1.25h19c.689 0 1.25-.561 1.25-1.25v-17c0-.689-.561-1.25-1.25-1.25z"/><path d="m6.5 10.75h23v1.5h-23z"/><path d="m16 24.25c-.283 0-.544-.16-.671-.415l-1.793-3.585h-2.786v-1.5h3.25c.284 0 .544.161.671.415l1.276 2.554 2.363-5.514c.115-.269.376-.446.667-.454h.022c.283 0 .544.16.671.415l2.793 5.585h2.786v1.5h-3.249c-.284 0-.544-.161-.671-.415l-2.276-4.554-2.363 5.514c-.115.269-.376.446-.667.454-.008 0-.016 0-.023 0z"/><path d="m32.623 4.417c-.827 0-1.5-.673-1.5-1.5s.673-1.5 1.5-1.5 1.5.673 1.5 1.5-.673 1.5-1.5 1.5zm0-2c-.275 0-.5.224-.5.5s.225.5.5.5.5-.224.5-.5-.225-.5-.5-.5z" fill="#a4afc1"/></svg>