<svg id="effect" height="512" viewBox="0 0 36 36" width="512" xmlns="http://www.w3.org/2000/svg"><path d="m4.167 27.623c0-6.917-3.583-11.667-3.583-15s1.916-10.333 17.249-10.333 17.583 9.417 17.583 13.083c.001 17.167-31.249 24.5-31.249 12.25z" fill="#efefef"/><path d="m29.5 8.5v14c0 1.1-.9 2-2 2h-12l-5 5v-5h-2c-1.1 0-2-.9-2-2v-14c0-1.1.9-2 2-2h19c1.1 0 2 .9 2 2z" fill="#f3f3f1"/><path d="m10.5 24.5h-2c-1.1 0-2-.9-2-2v-14c0-1.1.9-2 2-2h2c-1.1 0-2 .9-2 2v14c0 1.1.9 2 2 2z" fill="#d5dbe1"/><path d="m12.5 24.5v3l-2 2v-5z" fill="#d5dbe1"/><path d="m10.5 30.25c-.097 0-.194-.019-.287-.057-.28-.116-.463-.39-.463-.693v-4.25h-1.25c-1.517 0-2.75-1.233-2.75-2.75v-14c0-1.517 1.233-2.75 2.75-2.75h19c1.517 0 2.75 1.233 2.75 2.75v14c0 1.517-1.233 2.75-2.75 2.75h-11.689l-4.78 4.78c-.144.144-.336.22-.531.22zm-2-23c-.689 0-1.25.561-1.25 1.25v14c0 .689.561 1.25 1.25 1.25h2c.414 0 .75.336.75.75v3.189l3.72-3.72c.141-.141.331-.22.53-.22h12c.689 0 1.25-.561 1.25-1.25v-14c0-.689-.561-1.25-1.25-1.25h-19z"/><path d="m16 20.25c-.283 0-.544-.16-.671-.415l-1.793-3.585h-2.786v-1.5h3.25c.284 0 .544.161.671.415l1.276 2.554 2.363-5.514c.115-.269.376-.446.667-.454.345-.012.563.153.693.414l2.793 5.585h2.786v1.5h-3.249c-.284 0-.544-.161-.671-.415l-2.276-4.554-2.363 5.514c-.115.269-.376.446-.667.454-.008.001-.016.001-.023.001z"/><g fill="#a4afc1"><path d="m6.793 3.149h2v1h-2z" transform="matrix(.707 -.707 .707 .707 -.298 6.579)"/><path d="m2.727 7.215h2v1h-2z" transform="matrix(.707 -.707 .707 .707 -4.364 4.895)"/><path d="m3.227 2.472h1v2h-1z" transform="matrix(.707 -.707 .707 .707 -1.364 3.654)"/></g></svg>