<svg id="effect" height="512" viewBox="0 0 36 36" width="512" xmlns="http://www.w3.org/2000/svg"><path d="m13.411 34.999c6.298-2.859 12.105-1.559 15.14-2.936 3.035-1.378 8.617-6.016 2.28-19.978s-15.841-12.12-19.18-10.605c-15.632 7.095-9.395 38.582 1.76 33.519z" fill="#efefef"/><path d="m24.5 9.5h-2-9-2c-1.1 0-2 .9-2 2v16c0 1.1.9 2 2 2h13c1.105 0 2-.895 2-2v-16c0-1.1-.9-2-2-2z" fill="#f3f3f1"/><path d="m22.5 8.5v2c0 .552-.448 1-1 1h-7c-.552 0-1-.448-1-1v-2h2.5c0-1.1.9-2 2-2s2 .9 2 2z" fill="#2fdf84"/><path d="m16.5 11.5h-2c-.55 0-1-.45-1-1v-2h2v2c0 .55.45 1 1 1z" fill="#00b871"/><path d="m13.5 29.5h-2c-1.1 0-2-.9-2-2v-16c0-1.1.9-2 2-2h2c-1.1 0-2 .9-2 2v16c0 1.1.9 2 2 2z" fill="#d5dbe1"/><path d="m24.5 30.25h-13c-1.517 0-2.75-1.233-2.75-2.75v-16c0-1.517 1.233-2.75 2.75-2.75h2v1.5h-2c-.689 0-1.25.561-1.25 1.25v16c0 .689.561 1.25 1.25 1.25h13c.689 0 1.25-.561 1.25-1.25v-16c0-.689-.561-1.25-1.25-1.25h-2v-1.5h2c1.517 0 2.75 1.233 2.75 2.75v16c0 1.517-1.233 2.75-2.75 2.75z"/><path d="m21.5 12.25h-7c-.965 0-1.75-.785-1.75-1.75v-2c0-.414.336-.75.75-.75h1.854c.328-1.153 1.39-2 2.646-2s2.318.847 2.646 2h1.854c.414 0 .75.336.75.75v2c0 .965-.785 1.75-1.75 1.75zm-7.25-3v1.25c0 .138.112.25.25.25h7c.138 0 .25-.112.25-.25v-1.25h-1.75c-.414 0-.75-.336-.75-.75 0-.689-.561-1.25-1.25-1.25s-1.25.561-1.25 1.25c0 .414-.336.75-.75.75z"/><path d="m16 24.25c-.283 0-.544-.16-.671-.415l-1.793-3.585h-2.786v-1.5h3.25c.284 0 .544.161.671.415l1.276 2.554 2.363-5.514c.115-.269.376-.446.667-.454h.022c.283 0 .544.16.671.415l2.793 5.585h2.786v1.5h-3.249c-.284 0-.544-.161-.671-.415l-2.276-4.554-2.363 5.514c-.115.269-.376.446-.667.454-.008 0-.016 0-.023 0z"/><g fill="#a4afc1"><path d="m10.616 4.305h2v1h-2z" transform="matrix(.707 -.707 .707 .707 .004 9.621)"/><path d="m6.551 8.371h2v1h-2z" transform="matrix(.707 -.707 .707 .707 -4.061 7.938)"/><path d="m7.051 3.629h1v2h-1z" transform="matrix(.707 -.707 .707 .707 -1.062 6.693)"/></g></svg>