<svg id="effect" height="512" viewBox="0 0 36 36" width="512" xmlns="http://www.w3.org/2000/svg"><path d="m34.928 20.591c-3.693-5.848-3.199-11.778-4.979-14.596s-7.138-7.714-20.103.473-9.84 17.35-7.882 20.45c9.166 14.515 39.504 4.031 32.964-6.327z" fill="#efefef"/><path d="m29.5 23.5v2c0 .55-.45 1-1 1h-21c-.55 0-1-.45-1-1v-2z" fill="#2fdf84"/><path d="m29.5 11.5v12h-23v-12c0-.55.45-1 1-1h21c.55 0 1 .45 1 1z" fill="#f3f3f1"/><path d="m20 26.5s0 1.5 1.5 3h-7c1.5-1.5 1.48-3 1.48-3z" fill="#2fdf84"/><path d="m9.5 26.5h-2c-.55 0-1-.45-1-1v-2h2v2c0 .55.45 1 1 1z" fill="#00b871"/><path d="m17.98 26.5c0 .08-.02 1.54-1.48 3h-2c1.46-1.46 1.48-2.92 1.48-3z" fill="#00b871"/><path d="m9.5 10.5c-.55 0-1 .45-1 1v12h-2v-12c0-.55.45-1 1-1z" fill="#d5dbe1"/><path d="m28.5 27.25h-21c-.965 0-1.75-.785-1.75-1.75v-14c0-.965.785-1.75 1.75-1.75h21c.965 0 1.75.785 1.75 1.75v14c0 .965-.785 1.75-1.75 1.75zm-21-16c-.138 0-.25.112-.25.25v14c0 .138.112.25.25.25h21c.138 0 .25-.112.25-.25v-14c0-.138-.112-.25-.25-.25z"/><path d="m21.5 30.25h-7c-.303 0-.577-.183-.693-.463s-.052-.603.163-.817c1.234-1.234 1.26-2.418 1.26-2.468.004-.411.339-.751.75-.751h4.02c.412 0 .746.332.75.743.001.064.05 1.247 1.28 2.477.214.214.279.537.163.817s-.39.462-.693.462zm-5.474-1.5h3.945c-.339-.575-.519-1.101-.613-1.5h-2.728c-.093.4-.269.926-.604 1.5z"/><path d="m6.5 22.75h23v1.5h-23z"/><path d="m16 21.25c-.284 0-.543-.16-.671-.415l-1.792-3.585h-2.787v-1.5h3.25c.284 0 .544.161.671.415l1.277 2.554 2.363-5.514c.115-.269.375-.446.667-.454.276-.019.562.153.693.414l2.792 5.585h2.787v1.5h-3.25c-.284 0-.544-.161-.671-.415l-2.277-4.554-2.363 5.514c-.115.269-.375.446-.667.454-.007.001-.015.001-.022.001z"/><g fill="#a4afc1"><path d="m8.033 4.305h2v1h-2z" transform="matrix(.707 -.707 .707 .707 -.752 7.795)"/><path d="m3.967 8.371h2v1h-2z" transform="matrix(.707 -.707 .707 .707 -4.818 6.111)"/><path d="m4.467 3.628h1v2h-1z" transform="matrix(.707 -.707 .707 .707 -1.818 4.868)"/></g></svg>