<svg id="effect" height="512" viewBox="0 0 36 36" width="512" xmlns="http://www.w3.org/2000/svg"><path d="m4.167 27.623c0-6.917-3.583-11.667-3.583-15s1.916-10.333 17.249-10.333 17.583 9.417 17.583 13.083c.001 17.167-31.249 24.5-31.249 12.25z" fill="#efefef"/><path d="m24.5 29.5h-13c-1.105 0-2-.895-2-2v-19c0-1.105.895-2 2-2h13c1.105 0 2 .895 2 2v19c0 1.105-.895 2-2 2z" fill="#f3f3f1"/><path d="m13.5 29.5h-2c-1.1 0-2-.9-2-2v-19c0-1.1.9-2 2-2h2c-1.1 0-2 .9-2 2v19c0 1.1.9 2 2 2z" fill="#d5dbe1"/><path d="m24.5 30.25h-13c-1.517 0-2.75-1.233-2.75-2.75v-19c0-1.517 1.233-2.75 2.75-2.75h13c1.517 0 2.75 1.233 2.75 2.75v19c0 1.517-1.233 2.75-2.75 2.75zm-13-23c-.689 0-1.25.561-1.25 1.25v19c0 .689.561 1.25 1.25 1.25h13c.689 0 1.25-.561 1.25-1.25v-19c0-.689-.561-1.25-1.25-1.25z"/><path d="m16 21.25c-.283 0-.544-.16-.671-.415l-1.793-3.585h-2.786v-1.5h3.25c.284 0 .544.161.671.415l1.276 2.554 2.363-5.514c.115-.269.376-.446.667-.454h.022c.283 0 .544.16.671.415l2.793 5.585h2.786v1.5h-3.249c-.284 0-.544-.161-.671-.415l-2.276-4.554-2.363 5.514c-.115.269-.376.446-.667.454-.008 0-.016 0-.023 0z"/><path d="m32 14.25c-.827 0-1.5-.673-1.5-1.5s.673-1.5 1.5-1.5 1.5.673 1.5 1.5-.673 1.5-1.5 1.5zm0-2c-.275 0-.5.224-.5.5s.225.5.5.5.5-.224.5-.5-.225-.5-.5-.5z" fill="#a4afc1"/></svg>