<svg id="effect" height="512" viewBox="0 0 36 36" width="512" xmlns="http://www.w3.org/2000/svg"><path d="m8.114 5.564c-1.805 6.677-6.504 10.327-7.374 13.545s-.847 10.475 13.955 14.477 19.432-4.501 20.388-8.041c4.481-16.572-23.772-31.807-26.969-19.981z" fill="#efefef"/><path d="m27.5 13v11.5h-19v-11.5c0-.83.67-1.5 1.5-1.5h16c.83 0 1.5.67 1.5 1.5z" fill="#f3f3f1"/><path d="m12 11.5c-.83 0-1.5.67-1.5 1.5v11.5h-2v-11.5c0-.83.67-1.5 1.5-1.5z" fill="#d5dbe1"/><path d="m5.75 23.75h24.5v1.5h-24.5z"/><path d="m28.25 24.5h-1.5v-11.5c0-.414-.336-.75-.75-.75h-16c-.414 0-.75.336-.75.75v11.5h-1.5v-11.5c0-1.241 1.009-2.25 2.25-2.25h16c1.241 0 2.25 1.009 2.25 2.25z"/><path d="m16 22.25c-.284 0-.543-.16-.671-.415l-1.792-3.585h-2.787v-1.5h3.25c.284 0 .544.161.671.415l1.277 2.554 2.363-5.514c.115-.269.375-.446.667-.454.284-.029.562.153.693.414l2.792 5.585h2.787v1.5h-3.25c-.284 0-.544-.161-.671-.415l-2.277-4.554-2.363 5.514c-.115.269-.375.446-.667.454-.007.001-.015.001-.022.001z"/><path d="m30 9c-.827 0-1.5-.673-1.5-1.5s.673-1.5 1.5-1.5 1.5.673 1.5 1.5-.673 1.5-1.5 1.5zm0-2c-.276 0-.5.224-.5.5s.224.5.5.5.5-.224.5-.5-.224-.5-.5-.5z" fill="#a4afc1"/></svg>