<svg id="effect" height="512" viewBox="0 0 36 36" width="512" xmlns="http://www.w3.org/2000/svg"><path d="m27.417 3.914c-6.915.129-11.732-3.365-15.064-3.302s-10.296 2.109-10.009 17.44 9.744 17.404 13.41 17.336c17.163-.321 23.911-31.703 11.663-31.474z" fill="#efefef"/><path d="m22.5 8.5v17h-15v-17c0-1.1.9-2 2-2h11c1.1 0 2 .9 2 2z" fill="#f3f3f1"/><path d="m22.5 25.5v2c0 1.1-.9 2-2 2h-11c-1.1 0-2-.9-2-2v-2z" fill="#2fdf84"/><path d="m11.5 29.5h-2c-1.1 0-2-.9-2-2v-2h2v2c0 1.1.9 2 2 2z" fill="#00b871"/><path d="m11.5 6.5c-1.1 0-2 .9-2 2v17h-2v-17c0-1.1.9-2 2-2z" fill="#d5dbe1"/><path d="m7.5 24.75h15v1.5h-15z"/><path d="m20.5 30.25h-11c-1.517 0-2.75-1.233-2.75-2.75v-19c0-1.517 1.233-2.75 2.75-2.75h11c1.517 0 2.75 1.233 2.75 2.75v2h-1.5v-2c0-.689-.561-1.25-1.25-1.25h-11c-.689 0-1.25.561-1.25 1.25v19c0 .689.561 1.25 1.25 1.25h11c.689 0 1.25-.561 1.25-1.25v-5h1.5v5c0 1.517-1.233 2.75-2.75 2.75z"/><path d="m19.5 21.25c-.284 0-.543-.16-.671-.415l-1.792-3.585h-3.287v-1.5h3.75c.284 0 .544.161.671.415l1.277 2.554 2.363-5.514c.115-.269.375-.446.667-.454.279-.019.562.153.693.414l2.792 5.585h3.287v1.5h-3.75c-.284 0-.544-.161-.671-.415l-2.277-4.554-2.363 5.514c-.115.269-.375.446-.667.454-.007.001-.015.001-.022.001z"/><path d="m27.5 8c-.827 0-1.5-.673-1.5-1.5s.673-1.5 1.5-1.5 1.5.673 1.5 1.5-.673 1.5-1.5 1.5zm0-2c-.276 0-.5.224-.5.5s.224.5.5.5.5-.224.5-.5-.224-.5-.5-.5z" fill="#a4afc1"/></svg>