<svg id="effect" height="512" viewBox="0 0 36 36" width="512" xmlns="http://www.w3.org/2000/svg"><path d="m3.442 23.883c6.061 3.333 8.497 8.761 11.417 10.367 2.921 1.606 9.978 3.299 17.366-10.137s.221-19.945-2.992-21.712c-15.042-8.27-36.525 15.58-25.791 21.482z" fill="#efefef"/><path d="m29.5 11.5v13c0 .55-.45 1-1 1h-21c-.55 0-1-.45-1-1v-13c0-.55.45-1 1-1h21c.55 0 1 .45 1 1z" fill="#f3f3f1"/><path d="m16.5 25.5h3v4h-3z" fill="#2fdf84"/><path d="m16.5 25.5h2v4h-2z" fill="#00b871"/><path d="m9.5 25.5h-2c-.55 0-1-.45-1-1v-13c0-.55.45-1 1-1h2c-.55 0-1 .45-1 1v13c0 .55.45 1 1 1z" fill="#d5dbe1"/><path d="m28.5 26.25h-21c-.965 0-1.75-.785-1.75-1.75v-13c0-.965.785-1.75 1.75-1.75h21c.965 0 1.75.785 1.75 1.75v13c0 .965-.785 1.75-1.75 1.75zm-21-15c-.138 0-.25.112-.25.25v13c0 .138.112.25.25.25h21c.138 0 .25-.112.25-.25v-13c0-.138-.112-.25-.25-.25z"/><path d="m12.75 28.75h10.5v1.5h-10.5z"/><path d="m15.75 25.5h1.5v4h-1.5z"/><path d="m18.75 25.5h1.5v4h-1.5z"/><path d="m16 22.25c-.284 0-.543-.16-.671-.415l-1.792-3.585h-2.787v-1.5h3.25c.284 0 .544.161.671.415l1.277 2.554 2.363-5.514c.115-.269.375-.446.667-.454.29-.029.562.153.693.414l2.792 5.585h2.787v1.5h-3.25c-.284 0-.544-.161-.671-.415l-2.277-4.554-2.363 5.514c-.115.269-.375.446-.667.454-.007.001-.015.001-.022.001z"/><g fill="#a4afc1"><path d="m25.207 3.221h1v2h-1z" transform="matrix(.707 -.707 .707 .707 4.542 19.41)"/><path d="m29.273 7.287h1v2h-1z" transform="matrix(.707 -.707 .707 .707 2.86 23.48)"/><path d="m28.773 3.544h2v1h-2z" transform="matrix(.707 -.707 .707 .707 5.86 22.237)"/></g></svg>