<svg id="effect" height="512" viewBox="0 0 36 36" width="512" xmlns="http://www.w3.org/2000/svg"><path d="m8.114 5.564c-1.805 6.677-6.504 10.327-7.374 13.545s-.847 10.475 13.955 14.477 19.432-4.501 20.388-8.041c4.481-16.572-23.772-31.807-26.969-19.981z" fill="#efefef"/><path d="m29.5 10.5v13h-23v-13c0-1.1.9-2 2-2h19c1.1 0 2 .9 2 2z" fill="#f3f3f1"/><path d="m29.5 23.5v2c0 1.1-.9 2-2 2h-19c-1.1 0-2-.9-2-2v-2z" fill="#2fdf84"/><path d="m10.5 27.5h-2c-1.1 0-2-.9-2-2v-2h2v2c0 1.1.9 2 2 2z" fill="#00b871"/><path d="m10.5 8.5c-1.1 0-2 .9-2 2v13h-2v-13c0-1.1.9-2 2-2z" fill="#d5dbe1"/><path d="m27.5 28.25h-19c-1.517 0-2.75-1.233-2.75-2.75v-15c0-1.517 1.233-2.75 2.75-2.75h19c1.517 0 2.75 1.233 2.75 2.75v15c0 1.517-1.233 2.75-2.75 2.75zm-19-19c-.689 0-1.25.561-1.25 1.25v15c0 .689.561 1.25 1.25 1.25h19c.689 0 1.25-.561 1.25-1.25v-15c0-.689-.561-1.25-1.25-1.25z"/><path d="m6.5 22.75h23v1.5h-23z"/><path d="m15.5 21.25c-.284 0-.543-.16-.671-.415l-2.292-4.585h-3.037v-1.5h3.5c.284 0 .544.161.671.415l1.789 3.579 3.354-7.548c.121-.272.425-.434.69-.445.298.002.567.181.685.455l2.805 6.545h3.506v1.5h-4c-.3 0-.571-.179-.689-.455l-2.323-5.42-3.302 7.43c-.118.265-.378.438-.668.445-.007-.001-.013-.001-.018-.001z"/><path d="m30.875 5.705c-.827 0-1.5-.673-1.5-1.5s.673-1.5 1.5-1.5 1.5.673 1.5 1.5-.673 1.5-1.5 1.5zm0-2c-.276 0-.5.224-.5.5s.224.5.5.5.5-.224.5-.5-.224-.5-.5-.5z" fill="#a4afc1"/></svg>