<svg id="effect" height="512" viewBox="0 0 36 36" width="512" xmlns="http://www.w3.org/2000/svg"><path d="m1.063 15.31c3.655 5.872 3.123 11.798 4.885 14.628s7.088 7.76 20.105-.343 9.951-17.286 8.014-20.399c-9.072-14.574-39.477-4.285-33.004 6.114z" fill="#efefef"/><path d="m11.5 19.61-.18.71-1.54 6.06-.28 1.12h-3v-9c3.29 0 5 1.11 5 1.11z" fill="#2fdf84"/><path d="m29.5 25.5s-7.5 4-10.5 4c-2.39 0-7.31-2.22-9.22-3.12l1.54-6.06 9.65 2.33c.9.21 1.53 1.02 1.53 1.94v.5c1.54-.44 3.18-1.09 4.5-1.09 2 0 2.5 1.5 2.5 1.5z" fill="#f3f3f1"/><path d="m8.5 18.65v8.85h-2v-9c.75 0 1.42.06 2 .15z" fill="#00b871"/><path d="m19.97 29.4c-.36.06-.68.1-.97.1-2.39 0-7.31-2.22-9.22-3.12l1.54-6.06 1.88.45-1.42 5.61c1.67.79 5.63 2.58 8.19 3.02z" fill="#d5dbe1"/><path d="m9.5 28.25h-3c-.414 0-.75-.336-.75-.75v-9c0-.414.336-.75.75-.75 3.475 0 5.332 1.186 5.41 1.236.269.175.396.501.316.813l-2 7.886c-.083.332-.383.565-.726.565zm-2.25-1.5h1.666l1.71-6.74c-.587-.256-1.725-.645-3.376-.739z"/><path d="m19 30.25c-2.405 0-7.009-2-9.539-3.191l.639-1.357c4.112 1.938 7.356 3.049 8.9 3.049 2.071 0 6.959-2.277 9.412-3.529-.269-.239-.71-.471-1.412-.471-.885 0-2.036.364-3.149.715-1.222.386-2.485.785-3.601.785-2.107 0-4.889-1.002-5.006-1.045l.512-1.41c.026.01 2.652.955 4.494.955.885 0 2.036-.364 3.149-.715 1.222-.386 2.485-.785 3.601-.785 2.512 0 3.185 1.931 3.212 2.013.115.347-.036.727-.359.899-.313.166-7.702 4.087-10.853 4.087z"/><path d="m23.25 25.09h-1.5v-.5c0-.582-.391-1.079-.95-1.209l-9.655-2.332.352-1.458 9.649 2.33c1.237.288 2.104 1.386 2.104 2.669z"/><path d="m21 14.25c-.283 0-.544-.16-.671-.415l-1.793-3.585h-2.786v-1.5h3.25c.284 0 .544.161.671.415l1.276 2.554 2.363-5.514c.115-.269.376-.446.667-.454.34-.021.563.154.693.414l2.793 5.585h2.786v1.5h-3.249c-.284 0-.544-.161-.671-.415l-2.276-4.554-2.363 5.514c-.115.269-.376.446-.667.454-.008.001-.016.001-.023.001z"/><g fill="#a4afc1"><path d="m9.336 4.055h2v1h-2z" transform="matrix(.707 -.707 .707 .707 -.194 8.643)"/><path d="m5.269 8.121h2v1h-2z" transform="matrix(.707 -.707 .707 .707 -4.26 6.958)"/><path d="m5.77 3.379h1v2h-1z" transform="matrix(.707 -.707 .707 .707 -1.26 5.714)"/></g></svg>