<svg id="effect" height="512" viewBox="0 0 36 36" width="512" xmlns="http://www.w3.org/2000/svg"><path d="m34.904 20.355c-3.782-5.791-3.38-11.727-5.203-14.518s-7.256-7.603-20.093.782-9.572 17.5-7.566 20.569c9.388 14.372 39.561 3.423 32.862-6.833z" fill="#efefef"/><path d="m20.5 6.5h-11c-1.105 0-2 .895-2 2v19c0 1.105.895 2 2 2h11c1.105 0 2-.895 2-2v-1-17-1c0-1.105-.895-2-2-2z" fill="#f3f3f1"/><path d="m12 7.5c0 .552.448 1 1 1h4c.552 0 1-.448 1-1s.448-1 1-1h-8c.552 0 1 .448 1 1z" fill="#2fdf84"/><path d="m15 8.5h-2c-.55 0-1-.45-1-1s-.45-1-1-1h2c.55 0 1 .45 1 1s.45 1 1 1z" fill="#00b871"/><path d="m11.5 29.5h-2c-1.1 0-2-.9-2-2v-19c0-1.1.9-2 2-2h2c-1.1 0-2 .9-2 2v19c0 1.1.9 2 2 2z" fill="#d5dbe1"/><path d="m20.5 30.25h-11c-1.517 0-2.75-1.233-2.75-2.75v-19c0-1.517 1.233-2.75 2.75-2.75h11c1.517 0 2.75 1.233 2.75 2.75v3h-1.5v-3c0-.689-.561-1.25-1.25-1.25h-11c-.689 0-1.25.561-1.25 1.25v19c0 .689.561 1.25 1.25 1.25h11c.689 0 1.25-.561 1.25-1.25v-4h1.5v4c0 1.517-1.233 2.75-2.75 2.75z"/><path d="m17 9.25h-4c-.965 0-1.75-.785-1.75-1.75 0-.138-.112-.25-.25-.25h-1v-1.5h1c.965 0 1.75.785 1.75 1.75 0 .138.112.25.25.25h4c.138 0 .25-.112.25-.25 0-.965.785-1.75 1.75-1.75h1v1.5h-1c-.138 0-.25.112-.25.25 0 .965-.785 1.75-1.75 1.75z"/><path d="m19.5 22.25c-.284 0-.543-.16-.671-.415l-1.792-3.585h-3.287v-1.5h3.75c.284 0 .544.161.671.415l1.277 2.554 2.363-5.514c.115-.269.375-.446.667-.454.293-.029.562.153.693.414l2.792 5.585h3.287v1.5h-3.75c-.284 0-.544-.161-.671-.415l-2.277-4.554-2.363 5.514c-.115.269-.375.446-.667.454-.007.001-.015.001-.022.001z"/><g fill="#a4afc1"><path d="m25.967 4.513h1v2h-1z" transform="matrix(.707 -.707 .707 .707 3.857 20.334)"/><path d="m30.033 8.578h1v2h-1z" transform="matrix(.707 -.707 .707 .707 2.17 24.396)"/><path d="m29.533 4.836h2v1h-2z" transform="matrix(.707 -.707 .707 .707 5.17 23.153)"/></g></svg>