<svg id="effect" height="512" viewBox="0 0 36 36" width="512" xmlns="http://www.w3.org/2000/svg"><path d="m8.377 31.833c6.917 0 11.667 3.583 15 3.583s10.333-1.916 10.333-17.249-9.417-17.584-13.083-17.584c-17.167 0-24.5 31.25-12.25 31.25z" fill="#efefef"/><path d="m22.5 12.5v11c0 1.1-.9 2-2 2h-10c-1.1 0-2-.9-2-2v-11c0-1.1.9-2 2-2h10c1.1 0 2 .9 2 2z" fill="#f3f3f1"/><path d="m20.09 7.4c-.05-.51-.48-.9-.99-.9h-7.2c-.51 0-.94.39-.99.9l-.31 3.1 9.798.022z" fill="#2fdf84"/><path d="m10.6 25.5.31 3.1c.05.51.48.9.99.9h7.2c.51 0 .94-.39.99-.9l.313-3.093z" fill="#2fdf84"/><path d="m13.9 6.5c-.51 0-.94.39-.99.9l-.31 3.1h-2l.31-3.1c.05-.51.48-.9.99-.9z" fill="#00b871"/><path d="m13.9 29.5h-2c-.51 0-.94-.39-.99-.9l-.31-3.1h2l.31 3.1c.05.51.48.9.99.9z" fill="#00b871"/><path d="m12.5 25.5h-2c-1.1 0-2-.9-2-2v-11c0-1.1.9-2 2-2h2c-1.1 0-2 .9-2 2v11c0 1.1.9 2 2 2z" fill="#d5dbe1"/><path d="m20.5 26.25h-10c-1.517 0-2.75-1.233-2.75-2.75v-11c0-1.517 1.233-2.75 2.75-2.75h10c1.517 0 2.75 1.233 2.75 2.75h-1.5c0-.689-.561-1.25-1.25-1.25h-10c-.689 0-1.25.561-1.25 1.25v11c0 .689.561 1.25 1.25 1.25h10c.689 0 1.25-.561 1.25-1.25h1.5c0 1.517-1.233 2.75-2.75 2.75z"/><path d="m19.654 10.575-.31-3.1c-.013-.127-.12-.225-.244-.225h-7.2c-.124 0-.231.098-.243.223l-.311 3.102-1.492-.149.31-3.1c.087-.898.834-1.576 1.736-1.576h7.2c.902 0 1.648.678 1.736 1.577l.31 3.098z"/><path d="m19.1 30.25h-7.2c-.902 0-1.648-.678-1.736-1.577l-.31-3.099 1.492-.148.31 3.1c.013.127.12.225.244.225h7.2c.124 0 .231-.098.243-.224l.311-3.101 1.492.148-.31 3.1c-.087.898-.834 1.576-1.736 1.576z"/><path d="m19 23.25c-.284 0-.543-.16-.671-.415l-1.792-3.585h-2.787v-1.5h3.25c.284 0 .544.161.671.415l1.277 2.553 2.363-5.513c.115-.269.375-.446.667-.454.274-.026.562.153.693.414l2.792 5.585h2.787v1.5h-3.25c-.284 0-.544-.16-.671-.415l-2.277-4.553-2.363 5.514c-.115.268-.375.445-.667.454-.007 0-.015 0-.022 0z"/><path d="m5.5 32.139c-.827 0-1.5-.673-1.5-1.5s.673-1.5 1.5-1.5 1.5.673 1.5 1.5-.673 1.5-1.5 1.5zm0-2c-.276 0-.5.225-.5.5s.224.5.5.5.5-.225.5-.5-.224-.5-.5-.5z" fill="#a4afc1"/></svg>