<svg id="effect" height="512" viewBox="0 0 36 36" width="512" xmlns="http://www.w3.org/2000/svg"><path d="m8.377 4.167c6.917 0 11.667-3.583 15-3.583s10.333 1.916 10.333 17.249-9.417 17.583-13.083 17.583c-17.167.001-24.5-31.249-12.25-31.249z" fill="#efefef"/><path d="m27.5 11.5h-19c-1.105 0-2 .895-2 2v12c0 1.105.895 2 2 2h3 13 3c1.105 0 2-.895 2-2v-12c0-1.105-.895-2-2-2z" fill="#f3f3f1"/><path d="m10.5 26.5h-2c-1.1 0-2-.9-2-2v-12c0-1.1.9-2 2-2h2c-1.1 0-2 .9-2 2v12c0 1.1.9 2 2 2z" fill="#d5dbe1"/><path d="m27.5 28.25h-19c-1.517 0-2.75-1.233-2.75-2.75v-12c0-1.517 1.233-2.75 2.75-2.75h19c1.517 0 2.75 1.233 2.75 2.75v12c0 1.517-1.233 2.75-2.75 2.75zm-19-16c-.689 0-1.25.561-1.25 1.25v12c0 .689.561 1.25 1.25 1.25h19c.689 0 1.25-.561 1.25-1.25v-12c0-.689-.561-1.25-1.25-1.25z"/><path d="m22.25 11.5h-1.5v-2c0-.138-.112-.25-.25-.25h-5c-.138 0-.25.112-.25.25v2h-1.5v-2c0-.965.785-1.75 1.75-1.75h5c.965 0 1.75.785 1.75 1.75z"/><path d="m16 23.25c-.283 0-.544-.16-.671-.415l-1.793-3.585h-2.786v-1.5h3.25c.284 0 .544.161.671.415l1.276 2.554 2.363-5.514c.115-.269.376-.446.667-.454.345-.009.563.154.693.414l2.793 5.585h2.786v1.5h-3.249c-.284 0-.544-.161-.671-.415l-2.276-4.554-2.363 5.514c-.115.269-.376.446-.667.454-.008.001-.016.001-.023.001z"/><g fill="#a4afc1"><path d="m9.707 5.305h2v1h-2z" transform="matrix(.707 -.707 .707 .707 -.969 9.271)"/><path d="m5.642 9.371h2v1h-2z" transform="matrix(.707 -.707 .707 .707 -5.035 7.588)"/><path d="m6.142 4.629h1v2h-1z" transform="matrix(.707 -.707 .707 .707 -2.035 6.343)"/></g></svg>