<svg id="effect" height="512" viewBox="0 0 36 36" width="512" xmlns="http://www.w3.org/2000/svg"><path d="m8.114 5.564c-1.805 6.677-6.504 10.327-7.374 13.545s-.847 10.475 13.955 14.477 19.432-4.501 20.388-8.041c4.481-16.572-23.772-31.807-26.969-19.981z" fill="#efefef"/><circle cx="15" cy="11" fill="#2fdf84" r="4.5"/><path d="m23.44 22.5v4h-6-4.94-6v-4c0-1.06.42-2.03 1.09-2.75.56-.59 1.29-1 2.11-1.17.13-.03.26-.05.39-.06.12-.01.23-.02.35-.02h9c.14 0 .27.01.41.02.13.01.26.03.39.06.82.17 1.55.58 2.11 1.17.67.72 1.09 1.69 1.09 2.75z" fill="#f3f3f1"/><path d="m22.38 19.73-.03.02c-.56-.59-1.29-1-2.11-1.17.83.14 1.58.56 2.14 1.15z" fill="#2fdf84"/><path d="m7.56 19.73c.56-.59 1.31-1.01 2.14-1.15-.82.17-1.55.58-2.11 1.17z" fill="#2fdf84"/><path d="m16 15.39c-.32.07-.66.11-1 .11-2.49 0-4.5-2.01-4.5-4.5s2.01-4.5 4.5-4.5c.34 0 .68.04 1 .11-2.01.45-3.5 2.24-3.5 4.39s1.49 3.94 3.5 4.39z" fill="#00b871"/><path d="m12.44 18.5c-.12 0-.23.01-.35.02-.13.01-.26.03-.39.06-.82.17-1.55.58-2.11 1.17-.67.72-1.09 1.69-1.09 2.75v4h-2v-4c0-1.06.42-2.03 1.09-2.75.56-.59 1.29-1 2.11-1.17.13-.03.26-.05.39-.06.12-.01.23-.02.35-.02z" fill="#d5dbe1"/><path d="m15 16.25c-2.895 0-5.25-2.355-5.25-5.25s2.355-5.25 5.25-5.25 5.25 2.355 5.25 5.25-2.355 5.25-5.25 5.25zm0-9c-2.068 0-3.75 1.682-3.75 3.75s1.682 3.75 3.75 3.75 3.75-1.682 3.75-3.75-1.682-3.75-3.75-3.75z"/><path d="m12.5 27.25h-6c-.414 0-.75-.336-.75-.75v-4c0-2.619 2.131-4.75 4.75-4.75h9c1.295 0 2.543.534 3.424 1.465l-1.089 1.031c-.6-.633-1.451-.996-2.335-.996h-9c-1.792 0-3.25 1.458-3.25 3.25v3.25h5.25z"/><path d="m20.5 30.25c-.284 0-.543-.16-.671-.415l-1.792-3.585h-3.287v-1.5h3.75c.284 0 .544.16.671.415l1.277 2.553 2.363-5.514c.115-.268.375-.445.667-.454.282-.002.562.153.693.415l2.792 5.585h3.287v1.5h-3.75c-.284 0-.544-.16-.671-.415l-2.277-4.553-2.363 5.514c-.115.268-.375.445-.667.454-.007 0-.015 0-.022 0z"/><g fill="#a4afc1"><path d="m30.945 8.533h1v2h-1z" transform="matrix(.707 -.707 .707 .707 2.469 25.027)"/><path d="m26.879 4.467h1v2h-1z" transform="matrix(.707 -.707 .707 .707 4.153 20.961)"/><path d="m30.621 4.967h2v1h-2z" transform="matrix(.707 -.707 .707 .707 5.396 23.961)"/></g></svg>