<svg id="effect" height="512" viewBox="0 0 36 36" width="512" xmlns="http://www.w3.org/2000/svg"><path d="m27.417 3.914c-6.915.129-11.732-3.365-15.064-3.302s-10.296 2.109-10.009 17.44 9.744 17.404 13.41 17.336c17.163-.321 23.911-31.703 11.663-31.474z" fill="#efefef"/><path d="m29.5 9.5v2h-23v-2c0-1.1.9-2 2-2h19c1.1 0 2 .9 2 2z" fill="#2fdf84"/><path d="m29.5 11.5v15c0 1.1-.9 2-2 2h-19c-1.1 0-2-.9-2-2v-15z" fill="#f3f3f1"/><path d="m10.5 7.5h-2c-1.1 0-2 .9-2 2v2h2v-2c0-1.1.9-2 2-2z" fill="#00b871"/><path d="m10.5 28.5c-1.1 0-2-.9-2-2v-15h-2v15c0 1.1.9 2 2 2z" fill="#d5dbe1"/><path d="m27.5 29.25h-19c-1.517 0-2.75-1.233-2.75-2.75v-17c0-1.517 1.233-2.75 2.75-2.75h19c1.517 0 2.75 1.233 2.75 2.75v17c0 1.517-1.233 2.75-2.75 2.75zm-19-21c-.689 0-1.25.561-1.25 1.25v17c0 .689.561 1.25 1.25 1.25h19c.689 0 1.25-.561 1.25-1.25v-17c0-.689-.561-1.25-1.25-1.25z"/><path d="m6.5 10.75h23v1.5h-23z"/><path d="m21.551 27.101c-1.35-1.009-2.541-1.948-3.553-2.851-1.094.979-2.32 1.927-3.547 2.85l-.902-1.2c1.165-.875 2.327-1.772 3.356-2.683-1.32-1.333-2.212-2.614-2.609-3.965-.577-1.964.361-4.161 2.182-5.111.998-.521 2.052-.52 3.048.003 1.823.956 2.76 3.155 2.179 5.115-.406 1.371-1.367 2.687-2.615 3.953.962.852 2.093 1.741 3.358 2.687zm-3.55-11.851c-.273 0-.546.074-.829.222-1.198.625-1.815 2.068-1.436 3.359.321 1.091 1.109 2.194 2.265 3.357 1.102-1.111 1.936-2.234 2.267-3.354.381-1.287-.237-2.731-1.437-3.361-.283-.149-.557-.223-.83-.223z"/><path d="m4.335 6.053c-.827 0-1.5-.673-1.5-1.5s.673-1.5 1.5-1.5 1.5.673 1.5 1.5-.672 1.5-1.5 1.5zm0-2c-.276 0-.5.225-.5.5s.224.5.5.5.5-.225.5-.5-.224-.5-.5-.5z" fill="#a4afc1"/></svg>