<svg id="effect" height="512" viewBox="0 0 36 36" width="512" xmlns="http://www.w3.org/2000/svg"><path d="m1.063 15.31c3.655 5.872 3.123 11.798 4.885 14.628s7.088 7.76 20.105-.343 9.951-17.286 8.014-20.399c-9.072-14.574-39.477-4.285-33.004 6.114z" fill="#efefef"/><path d="m29.595 8.5v14c0 1.1-.9 2-2 2h-12l-5 5v-5h-2c-1.1 0-2-.9-2-2v-14c0-1.1.9-2 2-2h19c1.1 0 2 .9 2 2z" fill="#f3f3f1"/><path d="m10.595 24.5h-2c-1.1 0-2-.9-2-2v-14c0-1.1.9-2 2-2h2c-1.1 0-2 .9-2 2v14c0 1.1.9 2 2 2z" fill="#d5dbe1"/><path d="m10.5 30.25c-.097 0-.194-.019-.287-.057-.28-.116-.463-.39-.463-.693v-4.25h-1.25c-1.517 0-2.75-1.233-2.75-2.75v-14c0-1.517 1.233-2.75 2.75-2.75h19c1.517 0 2.75 1.233 2.75 2.75v14c0 1.517-1.233 2.75-2.75 2.75h-11.689l-4.78 4.78c-.144.144-.336.22-.531.22zm-2-23c-.689 0-1.25.561-1.25 1.25v14c0 .689.561 1.25 1.25 1.25h2c.414 0 .75.336.75.75v3.189l3.72-3.72c.141-.141.331-.22.53-.22h12c.689 0 1.25-.561 1.25-1.25v-14c0-.689-.561-1.25-1.25-1.25h-19z"/><path d="m21.551 22.101c-1.35-1.009-2.541-1.948-3.553-2.851-1.094.979-2.32 1.927-3.547 2.85l-.902-1.2c1.165-.875 2.328-1.772 3.357-2.683-1.32-1.333-2.213-2.614-2.609-3.965-.577-1.964.361-4.161 2.183-5.111.998-.521 2.052-.52 3.048.003 1.823.956 2.76 3.155 2.179 5.115-.405 1.371-1.367 2.687-2.615 3.952.963.853 2.094 1.742 3.358 2.688zm-3.55-11.851c-.272 0-.545.074-.828.222-1.197.625-1.815 2.069-1.437 3.359.32 1.091 1.109 2.193 2.265 3.357 1.102-1.111 1.936-2.234 2.268-3.354.381-1.287-.237-2.731-1.438-3.361-.283-.149-.557-.223-.83-.223z"/><path d="m4.167 6.804c-.827 0-1.5-.673-1.5-1.5s.673-1.5 1.5-1.5 1.5.673 1.5 1.5-.673 1.5-1.5 1.5zm0-2c-.275 0-.5.225-.5.5s.225.5.5.5.5-.225.5-.5-.225-.5-.5-.5z" fill="#a4afc1"/></svg>