<svg id="effect" height="512" viewBox="0 0 36 36" width="512" xmlns="http://www.w3.org/2000/svg"><path d="m34.904 20.355c-3.782-5.791-3.38-11.727-5.203-14.518s-7.256-7.603-20.093.782-9.572 17.5-7.566 20.569c9.388 14.372 39.561 3.423 32.862-6.833z" fill="#efefef"/><path d="m24.5 9.5h-2-9-2c-1.1 0-2 .9-2 2v16c0 1.1.9 2 2 2h13c1.105 0 2-.895 2-2v-16c0-1.1-.9-2-2-2z" fill="#f3f3f1"/><path d="m22.5 8.5v2c0 .552-.448 1-1 1h-7c-.552 0-1-.448-1-1v-2h2.5c0-1.1.9-2 2-2s2 .9 2 2z" fill="#2fdf84"/><path d="m16.5 11.5h-2c-.55 0-1-.45-1-1v-2h2v2c0 .55.45 1 1 1z" fill="#00b871"/><path d="m13.5 29.5h-2c-1.1 0-2-.9-2-2v-16c0-1.1.9-2 2-2h2c-1.1 0-2 .9-2 2v16c0 1.1.9 2 2 2z" fill="#d5dbe1"/><path d="m24.5 30.25h-13c-1.517 0-2.75-1.233-2.75-2.75v-16c0-1.517 1.233-2.75 2.75-2.75h2v1.5h-2c-.689 0-1.25.561-1.25 1.25v16c0 .689.561 1.25 1.25 1.25h13c.689 0 1.25-.561 1.25-1.25v-16c0-.689-.561-1.25-1.25-1.25h-2v-1.5h2c1.517 0 2.75 1.233 2.75 2.75v16c0 1.517-1.233 2.75-2.75 2.75z"/><path d="m21.5 12.25h-7c-.965 0-1.75-.785-1.75-1.75v-2c0-.414.336-.75.75-.75h1.854c.327-1.153 1.39-2 2.646-2s2.319.847 2.646 2h1.854c.414 0 .75.336.75.75v2c0 .965-.785 1.75-1.75 1.75zm-7.25-3v1.25c0 .138.112.25.25.25h7c.138 0 .25-.112.25-.25v-1.25h-1.75c-.414 0-.75-.336-.75-.75 0-.689-.561-1.25-1.25-1.25s-1.25.561-1.25 1.25c0 .414-.336.75-.75.75z"/><path d="m21.551 27.101c-1.35-1.009-2.541-1.948-3.553-2.851-1.094.979-2.32 1.927-3.547 2.85l-.902-1.2c1.165-.875 2.327-1.772 3.356-2.683-1.32-1.333-2.212-2.614-2.609-3.965-.577-1.964.361-4.161 2.182-5.111.998-.521 2.052-.52 3.048.003 1.823.956 2.76 3.155 2.179 5.115-.406 1.371-1.367 2.687-2.615 3.953.962.852 2.093 1.741 3.358 2.687zm-3.55-11.851c-.273 0-.546.074-.829.222-1.198.625-1.815 2.068-1.436 3.359.321 1.091 1.109 2.194 2.265 3.357 1.102-1.111 1.936-2.234 2.267-3.354.381-1.287-.237-2.731-1.437-3.361-.283-.149-.557-.223-.83-.223z"/><path d="m6.331 19.079c-.827 0-1.5-.673-1.5-1.5s.673-1.5 1.5-1.5 1.5.673 1.5 1.5-.673 1.5-1.5 1.5zm0-2c-.276 0-.5.225-.5.5s.224.5.5.5.5-.225.5-.5-.224-.5-.5-.5z" fill="#a4afc1"/></svg>