<svg id="effect" height="512" viewBox="0 0 36 36" width="512" xmlns="http://www.w3.org/2000/svg"><path d="m34.904 20.355c-3.782-5.791-3.38-11.727-5.203-14.518s-7.256-7.603-20.093.782-9.572 17.5-7.566 20.569c9.388 14.372 39.561 3.423 32.862-6.833z" fill="#efefef"/><path d="m29.5 23.5v2c0 .55-.45 1-1 1h-21c-.55 0-1-.45-1-1v-2z" fill="#2fdf84"/><path d="m29.5 11.5v12h-23v-12c0-.55.45-1 1-1h21c.55 0 1 .45 1 1z" fill="#f3f3f1"/><path d="m20 26.5s0 1.5 1.5 3h-7c1.5-1.5 1.48-3 1.48-3z" fill="#2fdf84"/><path d="m9.5 26.5h-2c-.55 0-1-.45-1-1v-2h2v2c0 .55.45 1 1 1z" fill="#00b871"/><path d="m17.98 26.5c0 .08-.02 1.54-1.48 3h-2c1.46-1.46 1.48-2.92 1.48-3z" fill="#00b871"/><path d="m9.5 10.5c-.55 0-1 .45-1 1v12h-2v-12c0-.55.45-1 1-1z" fill="#d5dbe1"/><path d="m28.5 27.25h-21c-.965 0-1.75-.785-1.75-1.75v-14c0-.965.785-1.75 1.75-1.75h4v1.5h-4c-.138 0-.25.112-.25.25v14c0 .138.112.25.25.25h21c.138 0 .25-.112.25-.25v-14c0-.138-.112-.25-.25-.25h-4v-1.5h4c.965 0 1.75.785 1.75 1.75v14c0 .965-.785 1.75-1.75 1.75z"/><path d="m21.5 30.25h-7c-.304 0-.577-.183-.693-.463-.115-.28-.052-.603.163-.817 1.233-1.234 1.26-2.419 1.261-2.469.004-.411.339-.751.75-.751h4.019c.412 0 .746.332.75.743.002.063.05 1.246 1.28 2.477.215.215.278.537.163.817-.116.28-.389.463-.693.463zm-5.474-1.5h3.944c-.339-.575-.519-1.102-.613-1.5h-2.727c-.093.4-.269.926-.604 1.5z"/><path d="m6.5 22.75h23v1.5h-23z"/><path d="m21.551 19.101c-1.35-1.009-2.541-1.948-3.553-2.851-1.094.979-2.32 1.927-3.547 2.85l-.902-1.2c1.165-.875 2.328-1.772 3.357-2.683-1.32-1.333-2.213-2.614-2.609-3.965-.577-1.964.361-4.161 2.183-5.111.998-.521 2.052-.52 3.048.003 1.823.956 2.76 3.155 2.179 5.115-.405 1.371-1.367 2.687-2.615 3.952.963.853 2.094 1.742 3.358 2.688zm-3.55-11.851c-.272 0-.545.074-.828.222-1.197.625-1.815 2.069-1.437 3.359.32 1.091 1.109 2.193 2.265 3.357 1.102-1.111 1.936-2.234 2.268-3.354.381-1.287-.237-2.731-1.438-3.361-.283-.149-.557-.223-.83-.223z"/><g fill="#a4afc1"><path d="m32.326 6.106h1v2h-1z" transform="matrix(.707 -.707 .707 .707 4.584 25.283)"/><path d="m28.261 2.04h1v2h-1z" transform="matrix(.707 -.707 .707 .707 6.274 21.227)"/><path d="m32.003 2.54h2v1h-2z" transform="matrix(.707 -.707 .707 .707 7.517 24.227)"/></g></svg>