<svg id="effect" height="512" viewBox="0 0 36 36" width="512" xmlns="http://www.w3.org/2000/svg"><path d="m3.442 23.883c6.061 3.333 8.497 8.761 11.417 10.367 2.921 1.606 9.978 3.299 17.366-10.137s.221-19.945-2.992-21.712c-15.042-8.27-36.525 15.58-25.791 21.482z" fill="#efefef"/><path d="m24.5 29.5h-13c-1.105 0-2-.895-2-2v-19c0-1.105.895-2 2-2h13c1.105 0 2 .895 2 2v19c0 1.105-.895 2-2 2z" fill="#f3f3f1"/><path d="m13.5 29.5h-2c-1.1 0-2-.9-2-2v-19c0-1.1.9-2 2-2h2c-1.1 0-2 .9-2 2v19c0 1.1.9 2 2 2z" fill="#d5dbe1"/><path d="m24.5 30.25h-13c-1.517 0-2.75-1.233-2.75-2.75v-19c0-1.517 1.233-2.75 2.75-2.75h13c1.517 0 2.75 1.233 2.75 2.75v19c0 1.517-1.233 2.75-2.75 2.75zm-13-23c-.689 0-1.25.561-1.25 1.25v19c0 .689.561 1.25 1.25 1.25h13c.689 0 1.25-.561 1.25-1.25v-19c0-.689-.561-1.25-1.25-1.25z"/><path d="m21.551 25.101c-1.35-1.009-2.541-1.948-3.553-2.851-1.094.979-2.32 1.927-3.547 2.85l-.902-1.2c1.165-.875 2.327-1.772 3.356-2.683-1.32-1.333-2.212-2.614-2.609-3.965-.577-1.964.361-4.161 2.182-5.111.998-.521 2.052-.52 3.048.003 1.823.956 2.76 3.155 2.179 5.115-.406 1.371-1.367 2.687-2.615 3.953.962.852 2.093 1.741 3.358 2.687zm-3.55-11.851c-.273 0-.546.074-.829.222-1.198.625-1.815 2.068-1.436 3.359.321 1.091 1.109 2.194 2.265 3.357 1.102-1.111 1.936-2.234 2.267-3.354.381-1.287-.237-2.731-1.437-3.361-.283-.149-.557-.223-.83-.223z"/><g fill="#a4afc1"><path d="m1.785 6.357h2v1h-2z" transform="matrix(.707 -.707 .707 .707 -4.033 3.978)"/><path d="m5.851 2.292h2v1h-2z" transform="matrix(.707 -.707 .707 .707 .033 5.662)"/><path d="m2.109 1.792h1v2h-1z" transform="matrix(.707 -.707 .707 .707 -1.21 2.663)"/></g></svg>