<svg id="effect" height="512" viewBox="0 0 36 36" width="512" xmlns="http://www.w3.org/2000/svg"><path d="m4.167 27.623c0-6.917-3.583-11.667-3.583-15s1.916-10.333 17.249-10.333 17.583 9.417 17.583 13.083c.001 17.167-31.249 24.5-31.249 12.25z" fill="#efefef"/><path d="m27.5 15v11.5h-19v-11.5c0-.83.67-1.5 1.5-1.5h16c.83 0 1.5.67 1.5 1.5z" fill="#f3f3f1"/><path d="m12 13.5c-.83 0-1.5.67-1.5 1.5v11.5h-2v-11.5c0-.83.67-1.5 1.5-1.5z" fill="#d5dbe1"/><path d="m5.75 25.75h24.5v1.5h-24.5z"/><path d="m28.25 26.5h-1.5v-11.5c0-.413-.337-.75-.75-.75h-1.5v-1.5h1.5c1.24 0 2.25 1.01 2.25 2.25z"/><path d="m9.25 26.5h-1.5v-11.5c0-1.24 1.01-2.25 2.25-2.25h1.5v1.5h-1.5c-.413 0-.75.337-.75.75z"/><path d="m21.551 22.101c-1.35-1.009-2.541-1.948-3.553-2.851-1.094.979-2.32 1.927-3.547 2.85l-.902-1.2c1.165-.875 2.328-1.772 3.357-2.683-1.32-1.333-2.213-2.614-2.609-3.965-.577-1.964.361-4.161 2.183-5.111.998-.521 2.052-.52 3.048.003 1.823.956 2.76 3.155 2.179 5.115-.405 1.371-1.367 2.687-2.615 3.952.963.853 2.094 1.742 3.358 2.688zm-3.55-11.851c-.272 0-.545.074-.828.222-1.197.625-1.815 2.069-1.437 3.359.32 1.091 1.109 2.193 2.265 3.357 1.102-1.111 1.936-2.234 2.268-3.354.381-1.287-.237-2.731-1.438-3.361-.283-.149-.557-.223-.83-.223z"/><path d="m27.5 6.958c-.827 0-1.5-.673-1.5-1.5s.673-1.5 1.5-1.5 1.5.673 1.5 1.5-.673 1.5-1.5 1.5zm0-2c-.275 0-.5.225-.5.5s.225.5.5.5.5-.225.5-.5-.225-.5-.5-.5z" fill="#a4afc1"/></svg>