<svg id="effect" height="512" viewBox="0 0 36 36" width="512" xmlns="http://www.w3.org/2000/svg"><path d="m7.678 5.564c-1.805 6.677-6.504 10.327-7.374 13.545s-.847 10.475 13.955 14.477 19.432-4.501 20.388-8.041c4.481-16.572-23.772-31.807-26.969-19.981z" fill="#efefef"/><path d="m23.5 8.5v17h-15v-17c0-1.1.9-2 2-2h11c1.1 0 2 .9 2 2z" fill="#f3f3f1"/><path d="m23.5 25.5v2c0 1.1-.9 2-2 2h-11c-1.1 0-2-.9-2-2v-2z" fill="#2fdf84"/><path d="m12.5 29.5h-2c-1.1 0-2-.9-2-2v-2h2v2c0 1.1.9 2 2 2z" fill="#00b871"/><path d="m12.5 6.5c-1.1 0-2 .9-2 2v17h-2v-17c0-1.1.9-2 2-2z" fill="#d5dbe1"/><path d="m8.5 24.75h15v1.5h-15z"/><path d="m21.5 30.25h-11c-1.517 0-2.75-1.233-2.75-2.75v-19c0-1.517 1.233-2.75 2.75-2.75h11c1.517 0 2.75 1.233 2.75 2.75h-1.5c0-.689-.561-1.25-1.25-1.25h-11c-.689 0-1.25.561-1.25 1.25v19c0 .689.561 1.25 1.25 1.25h11c.689 0 1.25-.561 1.25-1.25v-3h1.5v3c0 1.517-1.233 2.75-2.75 2.75z"/><path d="m27.051 24.101c-1.35-1.009-2.541-1.948-3.553-2.851-1.094.979-2.32 1.927-3.547 2.85l-.902-1.2c1.165-.875 2.328-1.772 3.357-2.683-1.32-1.333-2.213-2.614-2.609-3.965-.577-1.964.361-4.161 2.183-5.111.998-.521 2.052-.52 3.048.003 1.823.956 2.76 3.155 2.179 5.115-.405 1.371-1.367 2.687-2.615 3.952.963.853 2.094 1.742 3.358 2.688zm-3.55-11.851c-.272 0-.545.074-.828.222-1.197.625-1.815 2.069-1.437 3.359.32 1.091 1.109 2.193 2.265 3.357 1.102-1.111 1.936-2.234 2.268-3.354.381-1.287-.237-2.731-1.438-3.361-.283-.149-.557-.223-.83-.223z"/><path d="m31.25 5.563c-.827 0-1.5-.673-1.5-1.5s.673-1.5 1.5-1.5 1.5.673 1.5 1.5-.673 1.5-1.5 1.5zm0-2c-.275 0-.5.225-.5.5s.225.5.5.5.5-.225.5-.5-.225-.5-.5-.5z" fill="#a4afc1"/></svg>