<svg id="effect" height="512" viewBox="0 0 36 36" width="512" xmlns="http://www.w3.org/2000/svg"><path d="m8.377 4.167c6.917 0 11.667-3.583 15-3.583s10.333 1.916 10.333 17.249-9.417 17.583-13.083 17.583c-17.167.001-24.5-31.249-12.25-31.249z" fill="#efefef"/><path d="m29.5 11.5v13c0 .55-.45 1-1 1h-21c-.55 0-1-.45-1-1v-13c0-.55.45-1 1-1h21c.55 0 1 .45 1 1z" fill="#f3f3f1"/><path d="m16.5 25.5h3v4h-3z" fill="#2fdf84"/><path d="m16.5 25.5h2v4h-2z" fill="#00b871"/><path d="m9.5 25.5h-2c-.55 0-1-.45-1-1v-13c0-.55.45-1 1-1h2c-.55 0-1 .45-1 1v13c0 .55.45 1 1 1z" fill="#d5dbe1"/><path d="m28.5 26.25h-21c-.965 0-1.75-.785-1.75-1.75v-13c0-.965.785-1.75 1.75-1.75h4v1.5h-4c-.138 0-.25.112-.25.25v13c0 .138.112.25.25.25h21c.138 0 .25-.112.25-.25v-13c0-.138-.112-.25-.25-.25h-4v-1.5h4c.965 0 1.75.785 1.75 1.75v13c0 .965-.785 1.75-1.75 1.75z"/><path d="m12.75 28.75h10.5v1.5h-10.5z"/><path d="m15.75 25.5h1.5v4h-1.5z"/><path d="m18.75 25.5h1.5v4h-1.5z"/><path d="m21.551 19.101c-1.35-1.009-2.541-1.948-3.553-2.851-1.094.979-2.32 1.927-3.547 2.85l-.902-1.2c1.165-.875 2.328-1.772 3.357-2.683-1.32-1.333-2.213-2.614-2.609-3.965-.577-1.964.361-4.161 2.183-5.111.998-.521 2.052-.52 3.048.003 1.823.956 2.76 3.155 2.179 5.115-.405 1.371-1.367 2.687-2.615 3.952.963.853 2.094 1.742 3.358 2.688zm-3.55-11.851c-.272 0-.545.074-.828.222-1.197.625-1.815 2.069-1.437 3.359.32 1.091 1.109 2.193 2.265 3.357 1.102-1.111 1.936-2.234 2.268-3.354.381-1.287-.237-2.731-1.438-3.361-.283-.149-.557-.223-.83-.223z"/><g fill="#a4afc1"><path d="m32.326 6.106h1v2h-1z" transform="matrix(.707 -.707 .707 .707 4.584 25.283)"/><path d="m28.261 2.04h1v2h-1z" transform="matrix(.707 -.707 .707 .707 6.274 21.227)"/><path d="m32.003 2.54h2v1h-2z" transform="matrix(.707 -.707 .707 .707 7.517 24.227)"/></g></svg>