<svg id="effect" height="512" viewBox="0 0 36 36" width="512" xmlns="http://www.w3.org/2000/svg"><path d="m34.928 20.591c-3.693-5.848-3.199-11.778-4.979-14.596s-7.138-7.714-20.103.473-9.84 17.35-7.882 20.45c9.166 14.515 39.504 4.031 32.964-6.327z" fill="#efefef"/><path d="m11.5 19.61-.18.71-1.54 6.06-.28 1.12h-3v-9c3.29 0 5 1.11 5 1.11z" fill="#2fdf84"/><path d="m29.5 25.5s-7.5 4-10.5 4c-2.39 0-7.31-2.22-9.22-3.12l1.54-6.06 9.65 2.33c.9.21 1.53 1.02 1.53 1.94v.5c1.54-.44 3.18-1.09 4.5-1.09 2 0 2.5 1.5 2.5 1.5z" fill="#f3f3f1"/><path d="m8.5 18.65v8.85h-2v-9c.75 0 1.42.06 2 .15z" fill="#00b871"/><path d="m19.97 29.4c-.36.06-.68.1-.97.1-2.39 0-7.31-2.22-9.22-3.12l1.54-6.06 1.88.45-1.42 5.61c1.67.79 5.63 2.58 8.19 3.02z" fill="#d5dbe1"/><path d="m9.5 28.25h-3c-.414 0-.75-.336-.75-.75v-9c0-.414.336-.75.75-.75 3.475 0 5.333 1.186 5.41 1.236.269.175.396.502.317.813l-2 7.886c-.084.332-.384.565-.727.565zm-2.25-1.5h1.667l1.709-6.74c-.587-.256-1.725-.645-3.376-.738z"/><path d="m19 30.25c-2.409 0-7.011-2-9.54-3.191l.64-1.357c4.11 1.938 7.354 3.049 8.9 3.049 2.072 0 6.959-2.276 9.413-3.529-.269-.239-.71-.471-1.413-.471-.884 0-2.036.363-3.149.715-1.222.386-2.485.785-3.601.785-2.108 0-4.889-1.003-5.006-1.045l.512-1.41c.026.01 2.652.955 4.494.955.884 0 2.036-.363 3.149-.715 1.222-.386 2.485-.785 3.601-.785 2.512 0 3.184 1.931 3.211 2.013.116.347-.036.727-.358.899-.313.166-7.702 4.087-10.853 4.087z"/><path d="m23.25 25.09h-1.5v-.5c0-.581-.391-1.078-.95-1.209l-9.656-2.331.353-1.459 9.65 2.33c1.236.289 2.104 1.387 2.104 2.669v.5z"/><path d="m28.051 19.101c-1.35-1.009-2.541-1.948-3.553-2.851-1.094.979-2.32 1.927-3.547 2.85l-.902-1.2c1.165-.875 2.327-1.772 3.356-2.683-1.32-1.333-2.212-2.614-2.609-3.965-.577-1.964.361-4.161 2.182-5.111.998-.521 2.052-.52 3.048.003 1.823.956 2.76 3.155 2.179 5.115-.406 1.371-1.367 2.687-2.615 3.953.962.852 2.093 1.741 3.358 2.687zm-3.55-11.851c-.273 0-.546.074-.829.222-1.198.625-1.815 2.068-1.436 3.359.321 1.091 1.109 2.194 2.265 3.357 1.102-1.111 1.936-2.234 2.267-3.354.381-1.287-.237-2.731-1.437-3.361-.283-.149-.557-.223-.83-.223z"/><path d="m12.25 12.999c-.384 0-.768-.146-1.061-.438-.585-.585-.585-1.536 0-2.121.585-.584 1.536-.584 2.121 0 .585.585.585 1.536 0 2.121-.292.292-.676.438-1.06.438zm0-1.999c-.128 0-.256.049-.354.146-.195.195-.195.512 0 .707s.512.195.707 0 .195-.512 0-.707c-.097-.097-.225-.146-.353-.146z" fill="#a4afc1"/></svg>