<svg id="effect" height="512" viewBox="0 0 36 36" width="512" xmlns="http://www.w3.org/2000/svg"><path d="m26.982 3.914c-6.916.129-11.732-3.365-15.065-3.302s-10.296 2.109-10.009 17.44 9.744 17.404 13.41 17.336c17.164-.321 23.911-31.703 11.664-31.474z" fill="#efefef"/><path d="m20.5 6.5h-11c-1.105 0-2 .895-2 2v19c0 1.105.895 2 2 2h11c1.105 0 2-.895 2-2v-1-17-1c0-1.105-.895-2-2-2z" fill="#f3f3f1"/><path d="m12 7.5c0 .552.448 1 1 1h4c.552 0 1-.448 1-1s.448-1 1-1h-8c.552 0 1 .448 1 1z" fill="#2fdf84"/><path d="m15 8.5h-2c-.55 0-1-.45-1-1s-.45-1-1-1h2c.55 0 1 .45 1 1s.45 1 1 1z" fill="#00b871"/><path d="m11.5 29.5h-2c-1.1 0-2-.9-2-2v-19c0-1.1.9-2 2-2h2c-1.1 0-2 .9-2 2v19c0 1.1.9 2 2 2z" fill="#d5dbe1"/><path d="m20.5 30.25h-11c-1.517 0-2.75-1.233-2.75-2.75v-19c0-1.517 1.233-2.75 2.75-2.75h11c1.517 0 2.75 1.233 2.75 2.75v2h-1.5v-2c0-.689-.561-1.25-1.25-1.25h-11c-.689 0-1.25.561-1.25 1.25v19c0 .689.561 1.25 1.25 1.25h11c.689 0 1.25-.561 1.25-1.25v-1h1.5v1c0 1.517-1.233 2.75-2.75 2.75z"/><path d="m17 9.25h-4c-.965 0-1.75-.785-1.75-1.75 0-.138-.112-.25-.25-.25h-1v-1.5h1c.965 0 1.75.785 1.75 1.75 0 .138.112.25.25.25h4c.138 0 .25-.112.25-.25 0-.965.785-1.75 1.75-1.75h1v1.5h-1c-.138 0-.25.112-.25.25 0 .965-.785 1.75-1.75 1.75z"/><path d="m27.051 26.101c-1.35-1.009-2.541-1.948-3.553-2.851-1.094.979-2.32 1.927-3.547 2.85l-.902-1.2c1.165-.875 2.328-1.772 3.357-2.683-1.32-1.333-2.213-2.614-2.609-3.965-.577-1.964.361-4.161 2.183-5.111.998-.521 2.052-.52 3.048.003 1.823.956 2.76 3.155 2.179 5.115-.405 1.371-1.367 2.687-2.615 3.952.963.853 2.094 1.742 3.358 2.688zm-3.55-11.851c-.272 0-.545.074-.828.222-1.197.625-1.815 2.069-1.437 3.359.32 1.091 1.109 2.193 2.265 3.357 1.102-1.111 1.936-2.234 2.268-3.354.381-1.287-.237-2.731-1.438-3.361-.283-.149-.557-.223-.83-.223z"/><path d="m4.25 13c-.827 0-1.5-.673-1.5-1.5s.673-1.5 1.5-1.5 1.5.673 1.5 1.5-.673 1.5-1.5 1.5zm0-2c-.275 0-.5.225-.5.5s.225.5.5.5.5-.225.5-.5-.225-.5-.5-.5z" fill="#a4afc1"/></svg>