<svg id="effect" height="512" viewBox="0 0 36 36" width="512" xmlns="http://www.w3.org/2000/svg"><path d="m34.904 20.355c-3.782-5.791-3.38-11.727-5.203-14.518s-7.256-7.603-20.093.782-9.572 17.5-7.566 20.569c9.388 14.372 39.561 3.423 32.862-6.833z" fill="#efefef"/><path d="m22.5 12.5v11c0 1.1-.9 2-2 2h-10c-1.1 0-2-.9-2-2v-11c0-1.1.9-2 2-2h10c1.1 0 2 .9 2 2z" fill="#f3f3f1"/><path d="m20.09 7.4c-.05-.51-.48-.9-.99-.9h-7.2c-.51 0-.94.39-.99.9l-.31 3.1 9.798.022z" fill="#2fdf84"/><path d="m10.6 25.5.31 3.1c.05.51.48.9.99.9h7.2c.51 0 .94-.39.99-.9l.313-3.093z" fill="#2fdf84"/><path d="m13.9 6.5c-.51 0-.94.39-.99.9l-.31 3.1h-2l.31-3.1c.05-.51.48-.9.99-.9z" fill="#00b871"/><path d="m13.9 29.5h-2c-.51 0-.94-.39-.99-.9l-.31-3.1h2l.31 3.1c.05.51.48.9.99.9z" fill="#00b871"/><path d="m12.5 25.5h-2c-1.1 0-2-.9-2-2v-11c0-1.1.9-2 2-2h2c-1.1 0-2 .9-2 2v11c0 1.1.9 2 2 2z" fill="#d5dbe1"/><path d="m17.3 26.25h-6.8c-1.517 0-2.75-1.233-2.75-2.75v-11c0-1.517 1.233-2.75 2.75-2.75h7.45v1.5h-7.45c-.689 0-1.25.561-1.25 1.25v11c0 .689.561 1.25 1.25 1.25h6.8z"/><path d="m11.346 10.575-1.492-.15.311-3.1c.086-.897.833-1.575 1.735-1.575h7.2c.902 0 1.649.678 1.736 1.577l.17 1.678-1.492.15-.17-1.68c-.013-.127-.12-.225-.244-.225h-7.2c-.124 0-.231.098-.244.224z"/><path d="m19.1 30.25h-7.2c-.902 0-1.649-.678-1.736-1.577l-.311-3.098 1.492-.15.311 3.1c.013.128.12.226.244.226h7.2c.124 0 .231-.098.244-.224l.22-2.211 1.492.148-.22 2.21c-.087.898-.834 1.576-1.736 1.576z"/><path d="m27.051 24.101c-1.35-1.009-2.541-1.948-3.553-2.851-1.094.979-2.32 1.927-3.547 2.85l-.902-1.2c1.165-.875 2.328-1.772 3.357-2.683-1.32-1.333-2.213-2.614-2.609-3.965-.577-1.964.361-4.161 2.183-5.111.998-.521 2.052-.52 3.048.003 1.823.956 2.76 3.155 2.179 5.115-.405 1.371-1.367 2.687-2.615 3.952.963.853 2.094 1.742 3.358 2.688zm-3.55-11.851c-.272 0-.545.074-.828.222-1.197.625-1.815 2.069-1.437 3.359.32 1.091 1.109 2.193 2.265 3.357 1.102-1.111 1.936-2.234 2.268-3.354.381-1.287-.237-2.731-1.438-3.361-.283-.149-.557-.223-.83-.223z"/><g fill="#a4afc1"><path d="m6.697 2.294h2v1h-2z" transform="matrix(.707 -.707 .707 .707 .279 6.261)"/><path d="m2.631 6.36h2v1h-2z" transform="matrix(.707 -.707 .707 .707 -3.787 4.577)"/><path d="m3.131 1.617h1v2h-1z" transform="matrix(.707 -.707 .707 .707 -.787 3.334)"/></g></svg>