<svg id="effect" height="512" viewBox="0 0 36 36" width="512" xmlns="http://www.w3.org/2000/svg"><path d="m13.411 34.999c6.298-2.859 12.105-1.559 15.14-2.936 3.035-1.378 8.617-6.016 2.28-19.978s-15.841-12.12-19.18-10.605c-15.632 7.095-9.395 38.582 1.76 33.519z" fill="#efefef"/><circle cx="16" cy="11" fill="#2fdf84" r="4.5"/><path d="m24.44 22.5v4h-6-4.94-6v-4c0-1.06.42-2.03 1.09-2.75.56-.59 1.29-1 2.11-1.17.13-.03.26-.05.39-.06.12-.01.23-.02.35-.02h9c.14 0 .27.01.41.02.13.01.26.03.39.06.82.17 1.55.58 2.11 1.17.67.72 1.09 1.69 1.09 2.75z" fill="#f3f3f1"/><path d="m8.56 19.73c.56-.59 1.31-1.01 2.14-1.15-.82.17-1.55.58-2.11 1.17z" fill="#2fdf84"/><path d="m17 15.39c-.32.07-.66.11-1 .11-2.49 0-4.5-2.01-4.5-4.5s2.01-4.5 4.5-4.5c.34 0 .68.04 1 .11-2.01.45-3.5 2.24-3.5 4.39s1.49 3.94 3.5 4.39z" fill="#00b871"/><path d="m13.44 18.5c-.12 0-.23.01-.35.02-.13.01-.26.03-.39.06-.82.17-1.55.58-2.11 1.17-.67.72-1.09 1.69-1.09 2.75v4h-2v-4c0-1.06.42-2.03 1.09-2.75.56-.59 1.29-1 2.11-1.17.13-.03.26-.05.39-.06.12-.01.23-.02.35-.02z" fill="#d5dbe1"/><path d="m16 16.25c-2.895 0-5.25-2.355-5.25-5.25s2.355-5.25 5.25-5.25 5.25 2.355 5.25 5.25-2.355 5.25-5.25 5.25zm0-9c-2.067 0-3.75 1.683-3.75 3.75s1.683 3.75 3.75 3.75 3.75-1.683 3.75-3.75-1.683-3.75-3.75-3.75z"/><path d="m18.5 27.25h-11c-.414 0-.75-.336-.75-.75v-4c0-2.619 2.131-4.75 4.75-4.75h6.12v1.5h-6.12c-1.792 0-3.25 1.458-3.25 3.25v3.25h10.25z"/><path d="m27.051 30.101c-1.35-1.009-2.541-1.948-3.553-2.851-1.094.979-2.32 1.927-3.547 2.85l-.902-1.2c1.165-.875 2.328-1.772 3.357-2.683-1.32-1.333-2.213-2.614-2.609-3.965-.577-1.964.361-4.161 2.183-5.111.998-.521 2.052-.52 3.048.003 1.823.956 2.76 3.155 2.179 5.115-.405 1.371-1.367 2.687-2.615 3.952.963.853 2.094 1.742 3.358 2.688zm-3.55-11.851c-.272 0-.545.074-.828.222-1.197.625-1.815 2.069-1.437 3.359.32 1.091 1.109 2.193 2.265 3.357 1.102-1.111 1.936-2.234 2.268-3.354.381-1.287-.237-2.731-1.438-3.361-.283-.149-.557-.223-.83-.223z"/><path d="m30.25 5.803c-.384 0-.769-.146-1.061-.438-.585-.585-.585-1.536 0-2.121.584-.584 1.537-.584 2.121 0 .585.585.585 1.536 0 2.121-.291.291-.676.438-1.06.438zm0-1.999c-.128 0-.256.049-.354.146-.195.195-.195.512 0 .707s.512.195.707 0 .195-.512 0-.707c-.097-.097-.225-.146-.353-.146z" fill="#a4afc1"/></svg>