<svg id="effect" height="512" viewBox="0 0 36 36" width="512" xmlns="http://www.w3.org/2000/svg"><path d="m27.417 3.914c-6.915.129-11.732-3.365-15.064-3.302s-10.296 2.109-10.009 17.44 9.744 17.404 13.41 17.336c17.163-.321 23.911-31.703 11.663-31.474z" fill="#efefef"/><path d="m15.5 22.98-.51 1.23c-1.41 3.38-5.1 5.09-8.49 3.93l7-7.22z" fill="#2fdf84"/><path d="m29.5 9.59c0 .96-.42 1.82-1.09 2.38l-12.91 11.01-2-2.06 10.69-13.3c.55-.68 1.38-1.12 2.31-1.12 1.66 0 3 1.38 3 3.09z" fill="#f3f3f1"/><path d="m8.5 28.14c.4.14.8.23 1.2.28-1.05.17-2.14.08-3.2-.28l7-7.22 1 1.03z" fill="#00b871"/><path d="m27.51 6.68c-.52.18-.98.52-1.32.94l-10.69 13.3 1.09 1.13-1.09.93-2-2.06 10.69-13.3c.55-.68 1.38-1.12 2.31-1.12.36 0 .7.06 1.01.18z" fill="#d5dbe1"/><path d="m8.643 29.243c-.795 0-1.6-.129-2.387-.399-.243-.083-.426-.285-.486-.534-.06-.25.013-.513.191-.697l7-7.211c.141-.146.335-.228.538-.228.203 0 .397.082.538.228l2 2.061c.209.215.27.534.154.811l-.509 1.223c-1.221 2.937-4.059 4.746-7.039 4.746zm-.684-1.534c2.65.336 5.242-1.149 6.34-3.79l.319-.767-1.118-1.151z"/><path d="m15.875 18.284h1.5v3.182h-1.5z" transform="matrix(.707 -.707 .707 .707 -9.184 17.577)"/><path d="m15.987 23.555-.974-1.141 12.912-11.012c.524-.447.825-1.107.825-1.812 0-1.291-1.009-2.341-2.25-2.341-.668 0-1.298.307-1.728.841l-10.688 13.304-1.169-.939 10.689-13.304c.715-.89 1.771-1.401 2.896-1.401 2.068 0 3.75 1.723 3.75 3.841 0 1.145-.493 2.221-1.352 2.953z"/><path d="m11.32 9.154c-.827 0-1.5-.673-1.5-1.5s.673-1.5 1.5-1.5 1.5.673 1.5 1.5-.673 1.5-1.5 1.5zm0-2c-.276 0-.5.225-.5.5s.224.5.5.5.5-.225.5-.5-.224-.5-.5-.5z" fill="#a4afc1"/></svg>