<svg id="effect" height="512" viewBox="0 0 36 36" width="512" xmlns="http://www.w3.org/2000/svg"><path d="m34.904 20.355c-3.782-5.791-3.38-11.727-5.203-14.518s-7.256-7.603-20.093.782-9.572 17.5-7.566 20.569c9.388 14.372 39.561 3.423 32.862-6.833z" fill="#efefef"/><path d="m9.5 15.56c-1.1 0-2 .9-2 2s.9 2 2 2c.08 0 .16 0 .24-.01z" fill="#f3f3f1"/><path d="m26.5 15.56c1.1 0 2 .9 2 2s-.9 2-2 2c-.08 0-.16 0-.24-.01z" fill="#f3f3f1"/><path d="m26.5 13.01v2.49l-2.8-.4c-1.36-.2-2.68-.61-3.89-1.22-1.22-.6-2.33-1.4-3.31-2.38-1.28 1.92-3.27 3.25-5.54 3.71l-1.46.29c0-1.22 0-2.49 0-2.49 0-4.65 4.66-6.51 8.5-6.51s8.5 1.86 8.5 6.51z" fill="#2fdf84"/><path d="m23.7 15.1c-1.36-.2-2.68-.61-3.89-1.22-1.22-.6-2.33-1.4-3.31-2.38-1.28 1.92-3.27 3.25-5.54 3.71l-1.46.29v2.17c0 .66.07 1.3.21 1.92.7 2.94 2.91 5.68 6.04 6.59h4.5c3.36-.95 5.42-4 6.04-6.59.14-.62.21-1.26.21-1.92v-2.17z" fill="#f3f3f1"/><path d="m20.91 22.29c-.55-1.1-1.68-1.79-2.91-1.79s-2.36.69-2.91 1.79c-.06.12-.09.25-.09.37 0 .44.36.84.84.84h.33 3.6.39c.62 0 1.03-.65.75-1.21z" fill="#2fdf84"/><path d="m15.57 25.51c-.02-.01-.05-.01-.07-.01-.83 0-1.5.67-1.5 1.5s.67 1.5 1.5 1.5c.16 0 .31-.02.45-.08.44.65 1.2 1.08 2.05 1.08s1.61-.43 2.05-1.08c.14.06.29.08.45.08.83 0 1.5-.67 1.5-1.5s-.67-1.5-1.5-1.5c-.03 0-.06 0-.08.01l-.481-1.573c-.261-.854-1.049-1.437-1.942-1.437-.89 0-1.677.58-1.94 1.431z" fill="#f3f3f1"/><path d="m19 6.55c-3.6.29-7.5 2.21-7.5 6.46v2.07c-.18.05-.36.09-.54.13l-1.46.29c0-1.22 0-2.49 0-2.49 0-4.65 4.66-6.51 8.5-6.51.33 0 .66.01 1 .05z" fill="#00b871"/><path d="m17.09 22.29c-.06.12-.09.25-.09.37 0 .44.36.84.84.84h-2c-.48 0-.84-.4-.84-.84 0-.12.03-.25.09-.37.55-1.1 1.68-1.79 2.91-1.79.34 0 .68.05 1 .16-.82.26-1.51.84-1.91 1.63z" fill="#00b871"/><path d="m11.71 19.59c-.14-.62-.21-1.26-.21-1.92v-2.597c-.179.048-.357.1-.54.137l-1.46.29v2.17c0 .66.07 1.3.21 1.92.629 2.643 2.486 5.112 5.127 6.247l.655-.73c-1.921-1.301-3.264-3.353-3.782-5.517z" fill="#d5dbe1"/><path d="m19 29.29c-.31.14-.65.21-1 .21-.85 0-1.61-.43-2.05-1.08-.14.06-.29.08-.45.08-.83 0-1.5-.67-1.5-1.5s.67-1.5 1.5-1.5c.02 0 .05 0 .07.01l.49-1.58c.26-.85 1.05-1.43 1.94-1.43.36 0 .7.09 1 .27-.44.24-.78.65-.94 1.16l-.49 1.58c-.02-.01-.05-.01-.07-.01-.83 0-1.5.67-1.5 1.5s.67 1.5 1.5 1.5c.16 0 .31-.02.45-.08.26.38.62.68 1.05.87z" fill="#d5dbe1"/><path d="m9.5 20.31c-1.517 0-2.75-1.233-2.75-2.75s1.233-2.75 2.75-2.75v1.5c-.689 0-1.25.561-1.25 1.25 0 .708.598 1.244 1.306 1.25.031 0 .063 0 .094-.004l.182 1.488c-.111.014-.222.016-.332.016z"/><path d="m26.5 20.31c-.11 0-.221-.002-.331-.016l.182-1.488c.05.006.099.004.149.004.689 0 1.25-.561 1.25-1.25s-.561-1.25-1.25-1.25v-1.5c1.517 0 2.75 1.233 2.75 2.75s-1.233 2.75-2.75 2.75z"/><path d="m12.016 24.905c-1.481-1.344-2.56-3.169-3.035-5.14-.153-.684-.23-1.385-.23-2.096v-4.66c0-4.988 4.795-7.26 9.25-7.26s9.25 2.271 9.25 7.26v4.66c0 .711-.077 1.412-.229 2.085-.466 1.937-1.567 3.81-3.024 5.147l-1.014-1.105c1.242-1.141 2.182-2.738 2.577-4.383.125-.554.189-1.145.189-1.744v-4.66c0-3.957-4.018-5.76-7.75-5.76s-7.75 1.803-7.75 5.76v4.66c0 .6.064 1.19.191 1.755.403 1.67 1.321 3.226 2.582 4.369z"/><path d="m26.394 16.242-2.8-.4c-2.58-.367-5.031-1.501-6.99-3.218-1.383 1.714-3.304 2.881-5.491 3.318l-1.465.293-.295-1.471 1.465-.293c2.084-.417 3.881-1.62 5.059-3.388.125-.187.326-.309.55-.33.232-.028.445.057.604.216 1.821 1.821 4.228 3.024 6.775 3.388l2.801.4z"/><path d="m20.16 24.25h-.39v-1.5h.391s.079-.124.079-.125c-.425-.848-1.283-1.375-2.24-1.375s-1.815.527-2.239 1.375c-.011.065.021.125.079.125h.33v1.5h-.33c-.877 0-1.59-.713-1.59-1.59 0-.238.058-.481.168-.703.681-1.362 2.053-2.207 3.582-2.207s2.901.845 3.581 2.205c.248.494.223 1.07-.068 1.541-.291.472-.797.754-1.353.754z"/><path d="m13.835 19.171-.67-1.342.658-.329-.658-.329.67-1.342 2 1c.255.127.415.387.415.671s-.16.544-.415.671z"/><path d="m22.165 19.171-2-1c-.255-.127-.415-.387-.415-.671s.16-.544.415-.671l2-1 .67 1.342-.658.329.658.329z"/><path d="m18 30.25c-.899 0-1.745-.368-2.347-1.005-.05.003-.101.005-.153.005-1.24 0-2.25-1.01-2.25-2.25 0-1.069.751-1.968 1.753-2.194l.338-1.096c.362-1.173 1.43-1.96 2.657-1.96 1.229 0 2.298.79 2.658 1.967l.332 1.087c1.007.224 1.762 1.123 1.762 2.196 0 1.24-1.01 2.25-2.25 2.25-.053 0-.104-.002-.153-.005-.602.637-1.448 1.005-2.347 1.005zm-2.05-2.58c.243 0 .479.118.621.33.635.939 2.223.939 2.857 0 .2-.3.585-.414.918-.269.02.008.063.019.153.019.413 0 .75-.337.75-.75 0-.401-.317-.73-.715-.749-.139.02-.285.003-.418-.055-.199-.088-.351-.259-.415-.468l-.48-1.573c-.165-.541-.657-.905-1.224-.905-.565 0-1.058.362-1.224.902l-.487 1.578c-.064.209-.216.379-.415.466-.132.057-.274.077-.414.055-.394.023-.707.351-.707.749 0 .413.337.75.75.75.091 0 .134-.011.153-.019.097-.042.198-.061.297-.061z"/><g fill="#a4afc1"><path d="m6.697 2.294h2v1h-2z" transform="matrix(.707 -.707 .707 .707 .279 6.261)"/><path d="m2.631 6.36h2v1h-2z" transform="matrix(.707 -.707 .707 .707 -3.787 4.577)"/><path d="m3.131 1.617h1v2h-1z" transform="matrix(.707 -.707 .707 .707 -.787 3.334)"/></g></svg>