<svg id="effect" height="512" viewBox="0 0 36 36" width="512" xmlns="http://www.w3.org/2000/svg"><path d="m27.417 3.914c-6.915.129-11.732-3.365-15.064-3.302s-10.296 2.109-10.009 17.44 9.744 17.404 13.41 17.336c17.163-.321 23.911-31.703 11.663-31.474z" fill="#efefef"/><path d="m29.5 20.5v1h-23v-1c0-1.1.9-2 2-2h19c1.1 0 2 .9 2 2z" fill="#f3f3f1"/><g fill="#2fdf84"><path d="m12.5 21.5h11v8h-11z"/><path d="m10.793 9.207-1.586 1.586c-.391.391-.391 1.024 0 1.414l.793.793 3-3-.793-.793c-.39-.39-1.024-.39-1.414 0z"/><path d="m26.793 10.793-1.586-1.586c-.391-.391-1.024-.391-1.414 0l-.793.793 3 3 .793-.793c.39-.39.39-1.024 0-1.414z"/></g><path d="m12.5 21.5h2v8h-2z" fill="#00b871"/><path d="m10.5 18.5c-1.1 0-2 .9-2 2v1h-2v-1c0-1.1.9-2 2-2z" fill="#d5dbe1"/><path d="m29.5 22.25h-23c-.414 0-.75-.336-.75-.75v-1c0-1.517 1.233-2.75 2.75-2.75h19c1.517 0 2.75 1.233 2.75 2.75v1c0 .414-.336.75-.75.75zm-22.25-1.5h21.5v-.25c0-.689-.561-1.25-1.25-1.25h-19c-.689 0-1.25.561-1.25 1.25z"/><path d="m22.75 21.5h1.5v8h-1.5z"/><path d="m9.5 28.75h17v1.5h-17z"/><path d="m11.75 21.5h1.5v8h-1.5z"/><path d="m7.5 5.025h1.5v6.45h-1.5z" transform="matrix(.707 -.707 .707 .707 -3.417 8.25)"/><path d="m9.47 13.53-.793-.793c-.682-.683-.682-1.792 0-2.475l1.586-1.586c.683-.682 1.792-.682 2.475 0l.792.794-1.06 1.06-.793-.793c-.098-.098-.256-.098-.354 0l-1.586 1.586c-.097.098-.097.256 0 .354l.793.793z"/><path d="m24.525 7.5h6.45v1.5h-6.45z" transform="matrix(.707 -.707 .707 .707 2.294 22.039)"/><path d="m26.53 13.53-1.06-1.06.793-.793c.097-.098.097-.256 0-.354l-1.586-1.586c-.098-.098-.256-.098-.354 0l-.793.793-1.06-1.06.793-.793c.683-.682 1.792-.682 2.475 0l1.586 1.586c.682.683.682 1.792 0 2.475z"/><path d="m7.922 10.75h7.157v1.5h-7.157z" transform="matrix(.707 -.707 .707 .707 -4.764 11.5)"/><path d="m23.75 7.922h1.5v7.157h-1.5z" transform="matrix(.707 -.707 .707 .707 -.956 20.692)"/><path d="m22 3.914c-.827 0-1.5-.673-1.5-1.5s.673-1.5 1.5-1.5 1.5.673 1.5 1.5-.673 1.5-1.5 1.5zm0-2c-.276 0-.5.225-.5.5s.224.5.5.5.5-.225.5-.5-.224-.5-.5-.5z" fill="#a4afc1"/></svg>