<svg id="effect" height="512" viewBox="0 0 36 36" width="512" xmlns="http://www.w3.org/2000/svg"><path d="m8.114 5.564c-1.805 6.677-6.504 10.327-7.374 13.545s-.847 10.475 13.955 14.477 19.432-4.501 20.388-8.041c4.481-16.572-23.772-31.807-26.969-19.981z" fill="#efefef"/><path d="m15.5 23.5h4v4h-4z" fill="#2fdf84"/><path d="m22.5 28.5c0 .55-.45 1-1 1h-8c-.55 0-1-.45-1-1s.45-1 1-1h8c.55 0 1 .45 1 1z" fill="#f3f3f1"/><path d="m29.42 24.53c-.22.64-.82 1.02-1.45 1.02-.32 0-.64-.09-.92-.3l-2.38-1.75h-13.27l-4.48-4.38c-.38-.38-.52-.94-.35-1.45.21-.62.79-.97 1.38-.97.36 0 .72.13 1.01.42l3.46 3.38h13.27l3.2 2.35c.52.39.74 1.06.53 1.68z" fill="#f3f3f1"/><path d="m13 10-.793-.793c-.391-.391-1.024-.391-1.414 0l-1.586 1.586c-.391.391-.391 1.024 0 1.414l.793.793z" fill="#2fdf84"/><path d="m23 10 .793-.793c.391-.391 1.024-.391 1.414 0l1.586 1.586c.391.391.391 1.024 0 1.414l-.793.793z" fill="#2fdf84"/><path d="m15.5 23.5h2v4h-2z" fill="#00b871"/><g fill="#d5dbe1"><path d="m15.5 29.5h-2c-.55 0-1-.45-1-1s.45-1 1-1h2c-.55 0-1 .45-1 1s.45 1 1 1z"/><path d="m13.4 23.5h-2l-4.48-4.38c-.38-.38-.52-.94-.35-1.45.21-.62.79-.97 1.38-.97.35 0 .7.12.98.4-.16.15-.28.34-.36.57-.17.51-.03 1.07.35 1.45z"/><path d="m28.96 25.19c-.27.23-.63.36-.99.36-.32 0-.64-.09-.92-.3l-2.38-1.75h2z"/></g><path d="m18.75 23.5h1.5v4h-1.5z"/><path d="m14.75 23.5h1.5v4h-1.5z"/><path d="m21.5 30.25h-8c-.965 0-1.75-.785-1.75-1.75s.785-1.75 1.75-1.75h8c.965 0 1.75.785 1.75 1.75s-.785 1.75-1.75 1.75zm-8-2c-.138 0-.25.112-.25.25s.112.25.25.25h8c.138 0 .25-.112.25-.25s-.112-.25-.25-.25z"/><path d="m27.971 26.301c-.486 0-.967-.152-1.365-.445l-2.186-1.606h-13.024c-.196 0-.385-.077-.524-.214l-4.473-4.382c-.598-.586-.802-1.438-.534-2.225.241-.71.826-1.239 1.563-1.415.749-.176 1.519.035 2.062.567l3.233 3.168h12.965c.16 0 .315.051.444.146l3.2 2.352c.793.582 1.114 1.595.799 2.521-.233.687-.769 1.207-1.469 1.427-.225.071-.459.106-.691.106zm-16.269-3.551h12.964c.16 0 .315.051.444.146l2.384 1.751c.208.152.468.194.718.117.239-.075.421-.25.499-.479.104-.303-.004-.635-.267-.828l-3.003-2.206h-13.024c-.196 0-.385-.077-.524-.214l-3.453-3.383c-.251-.244-.55-.209-.664-.181-.112.027-.385.123-.492.438-.08.236-.018.493.163.67z"/><path d="m7.5 5.025h1.5v6.45h-1.5z" transform="matrix(.707 -.707 .707 .707 -3.417 8.25)"/><path d="m9.47 13.53-.793-.793c-.683-.683-.683-1.792 0-2.475l1.586-1.586c.682-.682 1.793-.682 2.475 0l.792.794-1.06 1.06-.793-.793c-.098-.098-.256-.098-.354 0l-1.586 1.586c-.098.098-.098.256 0 .354l.793.793z"/><path d="m24.525 7.5h6.45v1.5h-6.45z" transform="matrix(.707 -.707 .707 .707 2.294 22.039)"/><path d="m26.53 13.53-1.06-1.06.793-.793c.098-.098.098-.256 0-.354l-1.586-1.586c-.098-.098-.256-.098-.354 0l-.793.793-1.06-1.06.793-.793c.682-.682 1.793-.682 2.475 0l1.586 1.586c.683.683.683 1.792 0 2.475z"/><path d="m7.922 10.75h7.157v1.5h-7.157z" transform="matrix(.707 -.707 .707 .707 -4.764 11.5)"/><path d="m23.75 7.922h1.5v7.157h-1.5z" transform="matrix(.707 -.707 .707 .707 -.956 20.692)"/><path d="m3.631 13c-.827 0-1.5-.673-1.5-1.5s.673-1.5 1.5-1.5 1.5.673 1.5 1.5-.673 1.5-1.5 1.5zm0-2c-.275 0-.5.225-.5.5s.225.5.5.5.5-.225.5-.5-.225-.5-.5-.5z" fill="#a4afc1"/></svg>