<svg id="effect" height="512" viewBox="0 0 36 36" width="512" xmlns="http://www.w3.org/2000/svg"><path d="m1.003 14.311c3.253 6.104 2.324 11.981 3.891 14.923s6.551 8.218 20.083 1.008 11.09-16.579 9.365-19.815c-8.072-15.151-39.1-6.927-33.339 3.884z" fill="#efefef"/><path d="m22 9-12.586 12.586c-.781.781-.781 2.047 0 2.828l2.172 2.172c.781.781 2.047.781 2.828 0l12.586-12.586z" fill="#f3f3f1"/><path d="m13.59 26.59c.13.13.26.23.41.31-.76.45-1.76.34-2.41-.31l-2.18-2.18c-.78-.78-.78-2.04 0-2.82l12.59-12.59 1 1-11.59 11.59c-.78.78-.78 2.04 0 2.82z" fill="#d5dbe1"/><path d="m23.75 5.093h1.5v12.814h-1.5z" transform="matrix(.707 -.707 .707 .707 -.956 20.692)"/><path d="m4.922 26.75h7.157v1.5h-7.157z" transform="matrix(.707 -.707 .707 .707 -16.956 14.065)"/><path d="m13 27.92c-.704 0-1.408-.268-1.944-.804l-2.172-2.172c-1.072-1.072-1.072-2.816 0-3.889l12.586-12.585 1.06 1.06-12.586 12.586c-.487.487-.487 1.28 0 1.768l2.172 2.172c.488.486 1.279.486 1.768 0l12.586-12.586 1.061 1.061-12.587 12.585c-.536.536-1.24.804-1.944.804z"/><path d="m23.025 9h6.45v1.5h-6.45z" transform="matrix(.707 -.707 .707 .707 .794 21.417)"/><path d="m27.25 5.129h1.5v5.742h-1.5z" transform="matrix(.707 -.707 .707 .707 2.544 22.142)"/><path d="m15.5 21.439h1.5v3.621h-1.5z" transform="matrix(.707 -.707 .707 .707 -11.681 18.3)"/><path d="m18 17.232h1.5v5.035h-1.5z" transform="matrix(.707 -.707 .707 .707 -8.474 19.043)"/><path d="m21.5 15.439h1.5v3.621h-1.5z" transform="matrix(.707 -.707 .707 .707 -5.681 20.786)"/><path d="m25.5 31.521c-.827 0-1.5-.673-1.5-1.5s.673-1.5 1.5-1.5 1.5.673 1.5 1.5-.673 1.5-1.5 1.5zm0-2c-.275 0-.5.225-.5.5s.225.5.5.5.5-.225.5-.5-.225-.5-.5-.5z" fill="#a4afc1"/></svg>