<svg id="effect" height="512" viewBox="0 0 36 36" width="512" xmlns="http://www.w3.org/2000/svg"><path d="m8.377 4.167c6.917 0 11.667-3.583 15-3.583s10.333 1.916 10.333 17.249-9.417 17.583-13.083 17.583c-17.167.001-24.5-31.249-12.25-31.249z" fill="#efefef"/><path d="m17.5 22.5h-7c-1.105 0-2-.895-2-2v-9c0-1.105.895-2 2-2h7c1.105 0 2 .895 2 2v9c0 1.105-.895 2-2 2z" fill="#f3f3f1"/><path d="m14 6.5c-1.381 0-2.5 1.119-2.5 2.5v.5h5v-.5c0-1.381-1.119-2.5-2.5-2.5z" fill="#2fdf84"/><path d="m11.5 24.5c0 .552.448 1 1 1h3c.552 0 1-.448 1-1v-2h-5z" fill="#2fdf84"/><path d="m15 6.71c-.88.38-1.5 1.26-1.5 2.29v.5h-2v-.5c0-1.38 1.12-2.5 2.5-2.5.35 0 .69.07 1 .21z" fill="#00b871"/><path d="m14.5 25.5h-2c-.55 0-1-.45-1-1v-2h2v2c0 .55.45 1 1 1z" fill="#00b871"/><path d="m12.5 22.5h-2c-1.1 0-2-.9-2-2v-9c0-1.1.9-2 2-2h2c-1.1 0-2 .9-2 2v9c0 1.1.9 2 2 2z" fill="#d5dbe1"/><path d="m17.5 23.25h-7c-1.517 0-2.75-1.233-2.75-2.75v-9c0-1.517 1.233-2.75 2.75-2.75h7c1.517 0 2.75 1.233 2.75 2.75v9c0 1.517-1.233 2.75-2.75 2.75zm-7-13c-.689 0-1.25.561-1.25 1.25v9c0 .689.561 1.25 1.25 1.25h7c.689 0 1.25-.561 1.25-1.25v-9c0-.689-.561-1.25-1.25-1.25z"/><path d="m17.25 9.5h-1.5v-.5c0-.965-.785-1.75-1.75-1.75s-1.75.785-1.75 1.75v.5h-1.5v-.5c0-1.792 1.458-3.25 3.25-3.25s3.25 1.458 3.25 3.25z"/><path d="m15.5 26.25h-3c-.965 0-1.75-.785-1.75-1.75v-2h1.5v2c0 .138.112.25.25.25h3c.138 0 .25-.112.25-.25v-2h1.5v2c0 .965-.785 1.75-1.75 1.75z"/><path d="m20.5 30.25h-3.5c-2.067 0-3.75-1.683-3.75-3.75v-1.75h1.5v1.75c0 1.24 1.01 2.25 2.25 2.25h3.5c1.24 0 2.25-1.01 2.25-2.25v-4c0-2.067 1.683-3.75 3.75-3.75h1.75v1.5h-1.75c-1.24 0-2.25 1.01-2.25 2.25v4c0 2.067-1.683 3.75-3.75 3.75z"/><path d="m15.75 13.75h4.5v1.5h-4.5z"/><path d="m16.75 17.75h3.5v1.5h-3.5z"/><path d="m2.833 19c-.827 0-1.5-.673-1.5-1.5s.673-1.5 1.5-1.5 1.5.673 1.5 1.5-.673 1.5-1.5 1.5zm0-2c-.275 0-.5.225-.5.5s.225.5.5.5.5-.225.5-.5-.225-.5-.5-.5z" fill="#a4afc1"/></svg>