<svg id="effect" height="512" viewBox="0 0 36 36" width="512" xmlns="http://www.w3.org/2000/svg"><path d="m8.114 5.564c-1.805 6.677-6.504 10.327-7.374 13.545s-.847 10.475 13.955 14.477 19.432-4.501 20.388-8.041c4.481-16.572-23.772-31.807-26.969-19.981z" fill="#efefef"/><path d="m14.621 15.707 1.086-1.086c.391-.391 1.024-.391 1.414 0l12.086 12.086c.391.391.391 1.024 0 1.414l-1.086 1.086c-.391.391-1.024.391-1.414 0l-12.086-12.086c-.39-.39-.39-1.023 0-1.414z" fill="#f3f3f1"/><path d="m28.42 28.92-.3.29c-.39.39-1.02.39-1.41 0l-12.09-12.09c-.39-.39-.39-1.02 0-1.41l1.09-1.09c.39-.39 1.02-.39 1.41 0l.3.3-.8.79c-.39.39-.39 1.02 0 1.41z" fill="#d5dbe1"/><path d="m15 16.061-3.444-3.444c-.52-.52-.806-1.21-.806-1.944v-2.173c0-.689-.561-1.25-1.25-1.25h-3.75v-1.5h3.75c1.517 0 2.75 1.233 2.75 2.75v2.172c0 .329.133.651.366.884l3.445 3.444z"/><path d="m27.414 30.25c-.467 0-.907-.182-1.237-.513l-12.086-12.086c-.682-.683-.682-1.792 0-2.475l1.086-1.086c.662-.662 1.815-.659 2.475 0l12.085 12.086c.682.683.682 1.792 0 2.475l-1.086 1.086c-.33.33-.769.513-1.237.513zm-12.262-14.013c-.098.098-.098.256 0 .354l12.085 12.086c.128.127.226.127.353 0l1.086-1.086c.097-.098.097-.256 0-.354l-12.085-12.086c-.128-.127-.226-.127-.354 0z"/><g fill="#a4afc1"><path d="m22.727 7.556h1v2h-1z" transform="matrix(.707 -.707 .707 .707 .753 18.93)"/><path d="m26.793 11.621h1v2h-1z" transform="matrix(.707 -.707 .707 .707 -.931 22.996)"/><path d="m26.293 7.879h2v1h-2z" transform="matrix(.707 -.707 .707 .707 2.069 21.753)"/></g></svg>