<svg id="effect" height="512" viewBox="0 0 36 36" width="512" xmlns="http://www.w3.org/2000/svg"><path d="m8.114 5.564c-1.805 6.677-6.504 10.327-7.374 13.545s-.847 10.475 13.955 14.477 19.432-4.501 20.388-8.041c4.481-16.572-23.772-31.807-26.969-19.981z" fill="#efefef"/><path d="m27.5 29.5h-19c-1.105 0-2-.895-2-2v-19c0-1.105.895-2 2-2h19c1.105 0 2 .895 2 2v19c0 1.105-.895 2-2 2z" fill="#f3f3f1"/><circle cx="18.023" cy="15.25" fill="#2fdf84" r="5.498"/><path d="m10.5 29.5h-2c-1.1 0-2-.9-2-2v-19c0-1.1.9-2 2-2h2c-1.1 0-2 .9-2 2v19c0 1.1.9 2 2 2z" fill="#d5dbe1"/><path d="m19 20.41c-.32.06-.66.09-1 .09-3.04 0-5.5-2.46-5.5-5.5s2.46-5.5 5.5-5.5c.34 0 .68.03 1 .09-2.56.47-4.5 2.71-4.5 5.41s1.94 4.94 4.5 5.41z" fill="#00b871"/><path d="m27.5 30.25h-19c-1.517 0-2.75-1.233-2.75-2.75v-19c0-1.517 1.233-2.75 2.75-2.75h19c1.517 0 2.75 1.233 2.75 2.75v19c0 1.517-1.233 2.75-2.75 2.75zm-19-23c-.689 0-1.25.561-1.25 1.25v19c0 .689.561 1.25 1.25 1.25h19c.689 0 1.25-.561 1.25-1.25v-19c0-.689-.561-1.25-1.25-1.25z"/><path d="m18 21.25c-3.446 0-6.25-2.804-6.25-6.25s2.804-6.25 6.25-6.25 6.25 2.804 6.25 6.25-2.804 6.25-6.25 6.25zm0-11c-2.619 0-4.75 2.131-4.75 4.75s2.131 4.75 4.75 4.75 4.75-2.131 4.75-4.75-2.131-4.75-4.75-4.75z"/><path d="m17.25 19.75h1.5v7.5h-1.5z"/><path d="m13.75 22.75h8.5v1.5h-8.5z"/><path d="m28.5 5.006c-.827 0-1.5-.673-1.5-1.5s.673-1.5 1.5-1.5 1.5.673 1.5 1.5-.673 1.5-1.5 1.5zm0-2c-.276 0-.5.224-.5.5s.224.5.5.5.5-.224.5-.5-.224-.5-.5-.5z" fill="#a4afc1"/></svg>