<svg id="effect" height="512" viewBox="0 0 36 36" width="512" xmlns="http://www.w3.org/2000/svg"><path d="m34.904 20.355c-3.782-5.791-3.38-11.727-5.203-14.518s-7.256-7.603-20.093.782-9.572 17.5-7.566 20.569c9.388 14.372 39.561 3.423 32.862-6.833z" fill="#efefef"/><path d="m29.5 8.5v14c0 1.1-.9 2-2 2h-12l-5 5v-5h-2c-1.1 0-2-.9-2-2v-14c0-1.1.9-2 2-2h19c1.1 0 2 .9 2 2z" fill="#f3f3f1"/><g fill="#2fdf84"><path d="m14.943 20.921c2.038 1.017 4.076 1.017 6.114 0 .275-.137.443-.43.443-.737 0-1.933-1.567-3.5-3.5-3.5-1.933 0-3.5 1.567-3.5 3.5 0 .308.168.6.443.737z"/><path d="m17.007 12.305c.214 1.087-.044 2.126-.578 2.32-.533.194-1.14-.53-1.354-1.617s.044-2.126.578-2.32 1.14.529 1.354 1.617z"/><path d="m19.075 12.305c-.214 1.087.044 2.126.578 2.32.533.194 1.14-.53 1.354-1.617s-.044-2.126-.578-2.32c-.533-.194-1.139.529-1.354 1.617z"/><ellipse cx="12.646" cy="15.292" rx="1" ry="1.5" transform="matrix(.866 -.5 .5 .866 -5.952 8.372)"/><ellipse cx="23.354" cy="15.292" rx="1.5" ry="1" transform="matrix(.5 -.866 .866 .5 -1.566 27.871)"/></g><path d="m16.94 20.924c.69.34 1.37.56 2.06.67-1.35.23-2.71 0-4.06-.67-.27-.14-.44-.43-.44-.74 0-.96.39-1.84 1.03-2.47.63-.64 1.51-1.03 2.47-1.03.35 0 .68.05 1 .15-.56.16-1.07.47-1.47.88-.64.63-1.03 1.51-1.03 2.47 0 .31.17.6.44.74z" fill="#00b871"/><path d="m10.5 24.5h-2c-1.1 0-2-.9-2-2v-14c0-1.1.9-2 2-2h2c-1.1 0-2 .9-2 2v14c0 1.1.9 2 2 2z" fill="#d5dbe1"/><path d="m10.5 30.25c-.097 0-.194-.019-.287-.057-.28-.116-.463-.39-.463-.693v-4.25h-1.25c-1.517 0-2.75-1.233-2.75-2.75v-14c0-1.517 1.233-2.75 2.75-2.75h19c1.517 0 2.75 1.233 2.75 2.75v14c0 1.517-1.233 2.75-2.75 2.75h-11.689l-4.78 4.78c-.144.144-.336.22-.531.22zm-2-23c-.689 0-1.25.561-1.25 1.25v14c0 .689.561 1.25 1.25 1.25h2c.414 0 .75.336.75.75v3.189l3.72-3.72c.141-.141.331-.22.53-.22h12c.689 0 1.25-.561 1.25-1.25v-14c0-.689-.561-1.25-1.25-1.25h-19z"/><path d="m18 22.25c-1.134 0-2.267-.281-3.392-.842-.521-.261-.858-.813-.858-1.408 0-2.343 1.906-4.25 4.25-4.25s4.25 1.907 4.25 4.25c0 .595-.337 1.147-.858 1.408-1.125.562-2.259.842-3.392.842zm-2.722-2.184c1.832.914 3.611.914 5.443 0 .029-1.582-1.204-2.816-2.721-2.816s-2.75 1.234-2.75 2.75l-.307.737z"/><path d="m16.254 15.222c-.229 0-.458-.062-.674-.183-.586-.33-1.05-1.104-1.24-2.069-.255-1.292.027-2.796 1.057-3.17.359-.131.753-.092 1.108.107.585.331 1.048 1.104 1.238 2.07.255 1.292-.026 2.794-1.058 3.169-.139.05-.285.076-.431.076zm-.391-3.924c-.079.203-.185.706-.052 1.381.101.509.284.821.407.965.077-.206.184-.715.053-1.378 0 0-.001 0-.001-.001-.1-.511-.284-.824-.407-.967z"/><path d="m19.829 15.222c-.146 0-.292-.025-.433-.077-1.029-.374-1.312-1.877-1.058-3.169h.001c.19-.966.654-1.739 1.239-2.069.354-.201.748-.237 1.106-.107 1.031.376 1.313 1.879 1.057 3.171-.189.965-.652 1.739-1.238 2.069-.215.12-.445.182-.674.182zm-.018-2.956c-.125.638-.032 1.134.065 1.365.122-.149.298-.458.395-.952.127-.638.033-1.134-.063-1.365-.124.149-.3.457-.397.952z"/><path d="m12.994 17.25c-.264 0-.538-.065-.805-.197-.437-.216-.827-.596-1.101-1.069-.631-1.093-.459-2.333.391-2.824.851-.489 2.009-.019 2.641 1.073.631 1.093.459 2.333-.391 2.824-.223.128-.474.193-.735.193zm-.606-2.017c.227.392.527.525.61.517.017-.046.049-.376-.177-.767-.227-.392-.529-.531-.611-.517-.016.045-.048.376.178.767z"/><path d="m23.256 17.25c-.261 0-.512-.064-.735-.193-.85-.491-1.021-1.731-.391-2.823.632-1.092 1.792-1.562 2.641-1.074.85.491 1.021 1.731.391 2.824-.273.474-.664.854-1.101 1.069-.267.131-.541.197-.805.197zm.749-2.805c-.048.009-.351.147-.576.538-.226.39-.193.721-.143.787.048-.009.351-.146.576-.537.226-.391.194-.722.143-.788z"/><path d="m31.916 6.661h1v2h-1z" fill="#a4afc1" transform="matrix(.707 -.707 .707 .707 4.083 25.175)"/><path d="m27.85 2.596h1v2h-1z" fill="#a4afc1" transform="matrix(.707 -.707 .707 .707 5.761 21.099)"/><path d="m31.592 3.096h2v1h-2z" fill="#a4afc1" transform="matrix(.707 -.707 .707 .707 7.004 24.099)"/></svg>