<svg id="effect" height="512" viewBox="0 0 36 36" width="512" xmlns="http://www.w3.org/2000/svg"><path d="m8.114 5.564c-1.805 6.677-6.504 10.327-7.374 13.545s-.847 10.475 13.955 14.477 19.432-4.501 20.388-8.041c4.481-16.572-23.772-31.807-26.969-19.981z" fill="#efefef"/><path d="m9.5 15.56c-1.1 0-2 .9-2 2s.9 2 2 2c.08 0 .16 0 .24-.01z" fill="#f3f3f1"/><path d="m26.5 15.56c1.1 0 2 .9 2 2s-.9 2-2 2c-.08 0-.16 0-.24-.01z" fill="#f3f3f1"/><path d="m26.5 13.01v2.49l-2.8-.4c-1.36-.2-2.68-.61-3.89-1.22-1.22-.6-2.33-1.4-3.31-2.38-1.28 1.92-3.27 3.25-5.54 3.71l-1.46.29c0-1.22 0-2.49 0-2.49 0-4.65 4.66-6.51 8.5-6.51s8.5 1.86 8.5 6.51z" fill="#2fdf84"/><path d="m23.7 15.1c-1.36-.2-2.68-.61-3.89-1.22-1.22-.6-2.33-1.4-3.31-2.38-1.28 1.92-3.27 3.25-5.54 3.71l-1.46.29v2.17c0 .66.07 1.3.21 1.92.7 2.94 2.91 5.68 6.04 6.59h4.5c3.36-.95 5.42-4 6.04-6.59.14-.62.21-1.26.21-1.92v-2.17z" fill="#f3f3f1"/><path d="m20.91 22.29c-.55-1.1-1.68-1.79-2.91-1.79s-2.36.69-2.91 1.79c-.06.12-.09.25-.09.37 0 .44.36.84.84.84h.33 3.6.39c.62 0 1.03-.65.75-1.21z" fill="#2fdf84"/><path d="m20.476 27.055-.662-3.089c-.183-.855-.939-1.466-1.814-1.466s-1.631.611-1.814 1.467l-.662 3.089c-.306 1.425-1.566 2.444-3.024 2.444h11c-1.458 0-2.718-1.019-3.024-2.445z" fill="#f3f3f1"/><path d="m19 6.55c-3.6.29-7.5 2.21-7.5 6.46v2.07c-.18.05-.36.09-.54.13l-1.46.29c0-1.22 0-2.49 0-2.49 0-4.65 4.66-6.51 8.5-6.51.33 0 .66.01 1 .05z" fill="#00b871"/><path d="m17.09 22.29c-.06.12-.09.25-.09.37 0 .44.36.84.84.84h-2c-.48 0-.84-.4-.84-.84 0-.12.03-.25.09-.37.55-1.1 1.68-1.79 2.91-1.79.34 0 .68.05 1 .16-.82.26-1.51.84-1.91 1.63z" fill="#00b871"/><path d="m11.71 19.59c-.14-.62-.21-1.26-.21-1.92v-2.597c-.179.048-.357.1-.54.137l-1.46.29v2.17c0 .66.07 1.3.21 1.92.7 2.94 2.91 5.68 6.04 6.59l2.187.06c-3.233-.855-5.51-3.657-6.227-6.65z" fill="#d5dbe1"/><path d="m19 22.8c-.41.26-.71.67-.81 1.17l-.67 3.09c-.3 1.42-1.56 2.44-3.02 2.44h-2c1.46 0 2.72-1.02 3.02-2.44l.67-3.09c.18-.86.94-1.47 1.81-1.47.37 0 .71.11 1 .3z" fill="#d5dbe1"/><path d="m9.5 20.31c-1.516 0-2.75-1.233-2.75-2.75s1.234-2.75 2.75-2.75v1.5c-.689 0-1.25.561-1.25 1.25 0 .708.589 1.244 1.306 1.25.031 0 .062 0 .093-.004l.182 1.488c-.11.014-.221.016-.331.016z"/><path d="m26.5 20.31c-.11 0-.221-.002-.331-.016l.182-1.488c.05.006.101.004.149.004.689 0 1.25-.561 1.25-1.25s-.561-1.25-1.25-1.25v-1.5c1.516 0 2.75 1.233 2.75 2.75s-1.234 2.75-2.75 2.75z"/><path d="m23.041 25.674-.861-1.229c1.635-1.147 2.899-3.028 3.382-5.031.125-.552.189-1.143.189-1.744v-4.66c0-3.957-4.018-5.76-7.75-5.76s-7.75 1.803-7.75 5.76v4.66c0 .602.064 1.192.191 1.755.481 2.02 1.717 3.849 3.387 5.009l-.856 1.232c-1.969-1.369-3.423-3.52-3.991-5.902-.154-.679-.23-1.381-.23-2.094v-4.66c0-4.988 4.795-7.26 9.25-7.26s9.25 2.271 9.25 7.26v4.66c0 .713-.077 1.415-.229 2.085-.569 2.358-2.056 4.567-3.982 5.919z"/><path d="m26.394 16.242-2.8-.4c-2.581-.367-5.032-1.501-6.99-3.218-1.384 1.714-3.305 2.881-5.493 3.318l-1.464.293-.294-1.471 1.464-.293c2.083-.417 3.88-1.62 5.059-3.388.125-.187.327-.309.55-.33.223-.029.445.057.604.216 1.821 1.821 4.228 3.024 6.776 3.388l2.8.4z"/><path d="m13.835 19.171-.671-1.342.658-.329-.658-.329.671-1.342 2 1c.254.127.415.387.415.671s-.161.544-.415.671z"/><path d="m22.165 19.171-2-1c-.254-.127-.415-.387-.415-.671s.161-.544.415-.671l2-1 .671 1.342-.659.329.658.329z"/><path d="m20.16 24.25h-.53v-1.5h.53l.75-.46-.671.336c-.424-.849-1.282-1.376-2.239-1.376s-1.815.527-2.239 1.376c-.011.064.021.124.079.124h.53v1.5h-.53c-.876 0-1.59-.713-1.59-1.59 0-.24.059-.484.169-.705.681-1.36 2.053-2.205 3.581-2.205s2.9.845 3.581 2.204c.248.496.222 1.072-.069 1.542-.291.472-.797.754-1.352.754z"/><path d="m23.5 30.25c-1.8 0-3.38-1.277-3.757-3.037l-.662-3.089c-.108-.507-.563-.874-1.081-.874s-.973.367-1.081.874l-.662 3.089c-.377 1.76-1.957 3.037-3.757 3.037v-1.5c1.097 0 2.061-.778 2.291-1.852l.662-3.089c.256-1.193 1.328-2.06 2.548-2.06s2.292.866 2.548 2.06l.662 3.089c.23 1.073 1.193 1.852 2.291 1.852v1.5z"/><path d="m4 11.481c-.827 0-1.5-.673-1.5-1.5s.673-1.5 1.5-1.5 1.5.673 1.5 1.5-.673 1.5-1.5 1.5zm0-2c-.276 0-.5.225-.5.5s.224.5.5.5.5-.225.5-.5-.224-.5-.5-.5z" fill="#a4afc1"/></svg>