<svg id="effect" height="512" viewBox="0 0 36 36" width="512" xmlns="http://www.w3.org/2000/svg"><path d="m8.114 5.564c-1.805 6.677-6.504 10.327-7.374 13.545s-.847 10.475 13.955 14.477 19.432-4.501 20.388-8.041c4.481-16.572-23.772-31.807-26.969-19.981z" fill="#efefef"/><path d="m24.5 29.5h-13c-1.105 0-2-.895-2-2v-19c0-1.105.895-2 2-2h13c1.105 0 2 .895 2 2v19c0 1.105-.895 2-2 2z" fill="#f3f3f1"/><path d="m23.5 15c0-3.038-2.462-5.5-5.5-5.5s-5.5 2.462-5.5 5.5z" fill="#2fdf84"/><path d="m22.5 26.5h-9c-.552 0-1-.448-1-1v-6c0-.552.448-1 1-1h9c.552 0 1 .448 1 1v6c0 .552-.448 1-1 1z" fill="#2fdf84"/><path d="m19 9.59c-2.56.47-4.5 2.71-4.5 5.41h-2c0-3.04 2.46-5.5 5.5-5.5.34 0 .68.03 1 .09z" fill="#00b871"/><path d="m15.5 26.5h-2c-.55 0-1-.45-1-1v-6c0-.55.45-1 1-1h2c-.55 0-1 .45-1 1v6c0 .55.45 1 1 1z" fill="#00b871"/><path d="m13.5 29.5h-2c-1.1 0-2-.9-2-2v-19c0-1.1.9-2 2-2h2c-1.1 0-2 .9-2 2v19c0 1.1.9 2 2 2z" fill="#d5dbe1"/><path d="m24.5 30.25h-13c-1.517 0-2.75-1.233-2.75-2.75v-19c0-1.517 1.233-2.75 2.75-2.75h13c1.517 0 2.75 1.233 2.75 2.75v19c0 1.517-1.233 2.75-2.75 2.75zm-13-23c-.689 0-1.25.561-1.25 1.25v19c0 .689.561 1.25 1.25 1.25h13c.689 0 1.25-.561 1.25-1.25v-19c0-.689-.561-1.25-1.25-1.25z"/><path d="m17.292 13h2.915v1.5h-2.915z" transform="matrix(.514 -.858 .858 .514 -2.686 22.756)"/><path d="m23.5 15.75h-11c-.414 0-.75-.336-.75-.75 0-3.446 2.804-6.25 6.25-6.25s6.25 2.804 6.25 6.25c0 .414-.336.75-.75.75zm-10.191-1.5h9.382c-.361-2.264-2.327-4-4.691-4s-4.33 1.736-4.691 4z"/><path d="m22.5 27.25h-9c-.965 0-1.75-.785-1.75-1.75v-6c0-.965.785-1.75 1.75-1.75h9c.965 0 1.75.785 1.75 1.75v6c0 .965-.785 1.75-1.75 1.75zm-9-8c-.138 0-.25.112-.25.25v6c0 .138.112.25.25.25h9c.138 0 .25-.112.25-.25v-6c0-.138-.112-.25-.25-.25z"/><path d="m29.5 7c-.827 0-1.5-.673-1.5-1.5s.673-1.5 1.5-1.5 1.5.673 1.5 1.5-.673 1.5-1.5 1.5zm0-2c-.276 0-.5.224-.5.5s.224.5.5.5.5-.224.5-.5-.224-.5-.5-.5z" fill="#a4afc1"/></svg>