<svg id="effect" height="512" viewBox="0 0 36 36" width="512" xmlns="http://www.w3.org/2000/svg"><path d="m27.417 3.914c-6.915.129-11.732-3.365-15.064-3.302s-10.296 2.109-10.009 17.44 9.744 17.404 13.41 17.336c17.163-.321 23.911-31.703 11.663-31.474z" fill="#efefef"/><circle cx="21.5" cy="8.5" fill="#2fdf84" r="2"/><path d="m18.003 17.243 1.003-2.509c.298-.745 1.02-1.234 1.823-1.234 1.325 0 2.269 1.285 1.874 2.549l-1.046 3.346c-.391 1.252-1.551 2.105-2.863 2.105h-3.853c-.861 0-1.625.551-1.897 1.368l-1.088 3.265c-.272.817-1.037 1.368-1.897 1.368h-1.559l2.088-6.265c.544-1.633 2.073-2.735 3.795-2.735h1.763c.818-.001 1.553-.499 1.857-1.258z" fill="#f3f3f1"/><path d="m22.5 10.23c-.29.17-.64.27-1 .27-1.1 0-2-.9-2-2s.9-2 2-2c.36 0 .71.1 1 .27-.6.35-1 .99-1 1.73s.4 1.38 1 1.73z" fill="#00b871"/><path d="m21.5 11.25c-1.517 0-2.75-1.233-2.75-2.75s1.233-2.75 2.75-2.75 2.75 1.233 2.75 2.75-1.233 2.75-2.75 2.75zm0-4c-.689 0-1.25.561-1.25 1.25s.561 1.25 1.25 1.25 1.25-.561 1.25-1.25-.561-1.25-1.25-1.25z"/><path d="m19 30.25c-3.505 0-6.503-2.5-7.128-5.946l1.477-.268c.495 2.731 2.872 4.714 5.651 4.714 3.171 0 5.75-2.58 5.75-5.75 0-2.032-1.092-3.934-2.849-4.963l.758-1.294c2.215 1.297 3.591 3.695 3.591 6.257 0 3.998-3.252 7.25-7.25 7.25z"/><path d="m10.059 28.25h-1.559c-.241 0-.468-.116-.608-.312-.141-.195-.18-.447-.104-.676l2.088-6.265c.648-1.942 2.46-3.248 4.507-3.248h1.763c.515 0 .97-.309 1.161-.786l1.003-2.508c.415-1.037 1.404-1.706 2.52-1.706.873 0 1.67.403 2.187 1.106s.664 1.584.403 2.417l-1.045 3.346c-.492 1.574-1.931 2.631-3.58 2.631h-3.853c-.539 0-1.016.344-1.186.855l-1.088 3.265c-.376 1.125-1.424 1.881-2.609 1.881zm-.519-1.5h.519c.539 0 1.016-.344 1.186-.855l1.088-3.265c.376-1.125 1.424-1.88 2.609-1.88h3.853c.99 0 1.854-.634 2.148-1.579l1.045-3.346c.116-.373.051-.767-.181-1.081-.23-.314-.587-.495-.978-.495-.499 0-.941.3-1.127.763l-1.003 2.508c-.42 1.05-1.423 1.729-2.554 1.729h-1.763c-1.4 0-2.64.893-3.083 2.222z"/><g fill="#a4afc1"><path d="m8.125 8.125h1v2h-1z"/><path d="m8.125 13.875h1v2h-1z"/><path d="m4.625 11.375h2v1h-2z"/><path d="m10.375 11.375h2v1h-2z"/></g></svg>