<svg id="effect" height="512" viewBox="0 0 36 36" width="512" xmlns="http://www.w3.org/2000/svg"><path d="m11.532 34.802c6.645-1.919 12.203.206 15.405-.719s9.396-4.708 5.142-19.44-13.924-14.28-17.447-13.263c-16.493 4.763-14.869 36.821-3.1 33.422z" fill="#efefef"/><path d="m18.5 23.5c0 .34-.03.68-.09 1-.47 2.84-2.94 5-5.91 5-3.31 0-6-2.69-6-6 0-3.28 2.64-5.95 5.91-6h.09c3.31 0 6 2.69 6 6z" fill="#2fdf84"/><circle cx="12.5" cy="23.5" fill="#f3f3f1" r="2"/><path d="m6.5 7.5c0 .552.448 1 1 1h2c.552 0 1-.448 1-1v-1h-3c-.552 0-1 .448-1 1z" fill="#2fdf84"/><circle cx="28" cy="28" fill="#2fdf84" r="1.5"/><path d="m25.5 13.5v11.16c-.24-.11-.5-.16-.77-.16h-6.32c.06-.32.09-.66.09-1 0-3.31-2.69-6-6-6v-6h11c1.1 0 2 .9 2 2z" fill="#f3f3f1"/><path d="m13.5 29.41c-.32.06-.66.09-1 .09-3.31 0-6-2.69-6-6 0-3.28 2.64-5.95 5.91-6h.09c.34 0 .68.03 1 .09-2.84.47-5 2.94-5 5.91s2.16 5.44 5 5.91z" fill="#00b871"/><path d="m9.5 8.5h-2c-.55 0-1-.45-1-1s.45-1 1-1h2c-.55 0-1 .45-1 1s.45 1 1 1z" fill="#00b871"/><path d="m13.5 25.23c-.29.17-.64.27-1 .27-1.1 0-2-.9-2-2s.9-2 2-2c.36 0 .71.1 1 .27-.6.35-1 .99-1 1.73s.4 1.38 1 1.73z" fill="#d5dbe1"/><path d="m20.5 23.5c0 .34-.03.68-.09 1h-2c.06-.32.09-.66.09-1 0-3.31-2.69-6-6-6v-6h2v6c3.31 0 6 2.69 6 6z" fill="#d5dbe1"/><path d="m12.5 30.25c-3.722 0-6.75-3.028-6.75-6.75s3.028-6.75 6.75-6.75 6.75 3.028 6.75 6.75-3.028 6.75-6.75 6.75zm0-12c-2.895 0-5.25 2.355-5.25 5.25s2.355 5.25 5.25 5.25 5.25-2.355 5.25-5.25-2.355-5.25-5.25-5.25z"/><path d="m12.5 26.25c-1.517 0-2.75-1.233-2.75-2.75s1.233-2.75 2.75-2.75 2.75 1.233 2.75 2.75-1.233 2.75-2.75 2.75zm0-4c-.689 0-1.25.561-1.25 1.25s.561 1.25 1.25 1.25 1.25-.561 1.25-1.25-.561-1.25-1.25-1.25z"/><path d="m13.25 17.5h-1.5v-9c0-.408-.196-.771-.5-1 0 .965-.785 1.75-1.75 1.75h-2c-.965 0-1.75-.785-1.75-1.75s.785-1.75 1.75-1.75h3c1.517 0 2.75 1.233 2.75 2.75zm-5.75-10.25c-.138 0-.25.112-.25.25s.112.25.25.25h2c.138 0 .25-.112.25-.25v-.25z"/><path d="m26.724 27.111-.981-1.347c-.234-.322-.611-.514-1.01-.514h-6.233v-1.5h6.232c.877 0 1.708.423 2.223 1.132l.981 1.347z"/><path d="m28 30.25c-1.24 0-2.25-1.009-2.25-2.25s1.01-2.25 2.25-2.25 2.25 1.009 2.25 2.25-1.01 2.25-2.25 2.25zm0-3c-.413 0-.75.336-.75.75s.337.75.75.75.75-.336.75-.75-.337-.75-.75-.75z"/><path d="m26.25 24.5h-1.5v-11c0-.689-.561-1.25-1.25-1.25h-10.75v-1.5h10.75c1.517 0 2.75 1.233 2.75 2.75z"/><path d="m12.75 13.75h12.75v1.5h-12.75z"/><path d="m31.833 13.75c-.827 0-1.5-.673-1.5-1.5s.673-1.5 1.5-1.5 1.5.673 1.5 1.5-.673 1.5-1.5 1.5zm0-2c-.275 0-.5.224-.5.5s.225.5.5.5.5-.224.5-.5-.225-.5-.5-.5z" fill="#a4afc1"/></svg>