<svg id="effect" height="512" viewBox="0 0 36 36" width="512" xmlns="http://www.w3.org/2000/svg"><path d="m34.904 20.355c-3.782-5.791-3.38-11.727-5.203-14.518s-7.256-7.603-20.093.782-9.572 17.5-7.566 20.569c9.388 14.372 39.561 3.423 32.862-6.833z" fill="#efefef"/><path d="m24.5 29.5h-13c-1.105 0-2-.895-2-2v-19c0-1.105.895-2 2-2h13c1.105 0 2 .895 2 2v19c0 1.105-.895 2-2 2z" fill="#f3f3f1"/><path d="m14.423 25.728c2.385 1.029 4.769 1.029 7.154 0 .548-.236.923-.861.923-1.571v-.006c0-1.194-1.006-1.992-1.898-1.507l-2.053 1.115c-.349.19-.748.19-1.097 0l-2.053-1.115c-.893-.485-1.898.314-1.898 1.507v.006c-.001.71.374 1.335.922 1.571z" fill="#2fdf84"/><path d="m19 26.44c-1.52.19-3.05-.05-4.58-.71-.54-.24-.92-.86-.92-1.57v-.01c0-1.19 1.01-1.99 1.9-1.51l.54.3c-.27.29-.44.72-.44 1.21v.01c0 .71.38 1.33.92 1.57.86.37 1.72.6 2.58.71z" fill="#00b871"/><path d="m13.5 29.5h-2c-1.1 0-2-.9-2-2v-19c0-1.1.9-2 2-2h2c-1.1 0-2 .9-2 2v19c0 1.1.9 2 2 2z" fill="#d5dbe1"/><path d="m24.5 30.25h-13c-1.517 0-2.75-1.233-2.75-2.75v-19c0-1.517 1.233-2.75 2.75-2.75h13c1.517 0 2.75 1.233 2.75 2.75v19c0 1.517-1.233 2.75-2.75 2.75zm-13-23c-.689 0-1.25.561-1.25 1.25v19c0 .689.561 1.25 1.25 1.25h13c.689 0 1.25-.561 1.25-1.25v-19c0-.689-.561-1.25-1.25-1.25z"/><path d="m17.25 8.75h1.5v12.5h-1.5z"/><path d="m18 27.249c-1.294 0-2.589-.277-3.875-.833-.835-.36-1.375-1.247-1.375-2.259 0-.905.432-1.721 1.127-2.135.591-.352 1.275-.365 1.879-.037l2.054 1.115c.126.068.255.068.381 0l2.053-1.115c.604-.327 1.288-.313 1.879.037.695.414 1.127 1.23 1.127 2.129 0 1.018-.54 1.905-1.376 2.265-1.285.555-2.58.833-3.874.833zm-3.151-3.999c-.068 0-.136.02-.204.061-.182.108-.395.394-.395.84 0 .406.193.769.47.888 2.207.952 4.353.952 6.56 0 .277-.12.47-.482.47-.882 0-.453-.212-.738-.395-.846-.132-.079-.262-.081-.396-.008l-2.053 1.115c-.576.313-1.236.313-1.813 0l-2.053-1.115c-.064-.035-.128-.053-.191-.053z"/><path d="m22.945 13.261c-1.281 0-3.497-.326-5.467-2.235l1.044-1.077c1.899 1.842 4.066 1.864 4.912 1.792l.133 1.494c-.169.015-.379.026-.622.026z"/><path d="m13.055 13.261c-.244 0-.454-.012-.622-.027l.133-1.494c.846.073 3.012.05 4.912-1.792l1.044 1.077c-1.969 1.911-4.186 2.236-5.467 2.236z"/><path d="m22.945 16.261c-1.281 0-3.497-.326-5.467-2.235l1.044-1.077c1.899 1.842 4.066 1.864 4.912 1.792l.133 1.494c-.169.015-.379.026-.622.026z"/><path d="m13.055 16.261c-.244 0-.454-.012-.622-.027l.133-1.494c.846.073 3.012.05 4.912-1.792l1.044 1.077c-1.969 1.911-4.186 2.236-5.467 2.236z"/><path d="m22.945 19.261c-1.281 0-3.497-.326-5.467-2.235l1.044-1.077c1.899 1.842 4.066 1.864 4.912 1.792l.133 1.494c-.169.015-.379.026-.622.026z"/><path d="m13.055 19.261c-.244 0-.454-.012-.622-.027l.133-1.494c.846.073 3.012.05 4.912-1.792l1.044 1.077c-1.969 1.911-4.186 2.236-5.467 2.236z"/><g fill="#a4afc1"><path d="m6.537 2.178h2v1h-2z" transform="matrix(.707 -.707 .707 .707 .314 6.114)"/><path d="m2.471 6.244h2v1h-2z" transform="matrix(.707 -.707 .707 .707 -3.752 4.43)"/><path d="m2.971 1.501h1v2h-1z" transform="matrix(.707 -.707 .707 .707 -.752 3.187)"/></g></svg>