<svg id="Layer_1" data-name="Layer 1" xmlns="http://www.w3.org/2000/svg" viewBox="0 0 512 512"><defs><style>.cls-1{fill:#d9e4e8;}.cls-2{opacity:0.14;}.cls-3{fill:#17292d;}.cls-4{fill:#fff;}.cls-5{fill:#141f38;}</style></defs><title>speech-bubble-4-filled</title><path class="cls-1" d="M218,397c-41.68,0-81.81-10.89-116-31.51l-6.26-3.77-60.83,32.8A15,15,0,0,1,27,397a14.64,14.64,0,0,1-12.37-7.58c-1.76-3.11-3.12-8.05.39-13.9l31.76-58.86-4.46-6.47C23,282.34,12.82,250.29,12.82,217.54c0-99,92-179.5,205.14-179.5s205.14,80.52,205.14,179.5S331.08,397,218,397Z"/><g class="cls-2"><path class="cls-3" d="M153,339.34a157.25,157.25,0,0,0,14.23,65.24A246,246,0,0,0,218,409.86c120.38,0,218-86.1,218-192.32a171.25,171.25,0,0,0-3.11-32.26,208.42,208.42,0,0,0-87.49-19C239.28,166.25,153,243.9,153,339.34Z"/></g><path class="cls-4" d="M491.31,474a8,8,0,0,1-4.09-1.24l-48.65-26.26-6.26,3.77c-25.79,15.53-56,23.73-87.42,23.73-85.07,0-154.29-60.39-154.29-134.62S259.82,204.71,344.9,204.71s154.28,60.39,154.28,134.62a121.69,121.69,0,0,1-22.06,69.37l-4.46,6.46,25,46.34c1.86,3.12,1.95,5.7.55,8.17a8.3,8.3,0,0,1-6.88,4.29Z"/><path class="cls-5" d="M487.67,416C503.1,393.65,512,367.41,512,339.34c0-51.81-30.29-97.38-76.1-123.67C434.76,110.31,337.63,25.22,218,25.22,97.58,25.22,0,111.32,0,217.54c0,36.62,11.61,70.85,31.74,100L4,368.95c-11.63,19.38,3.92,40.91,23,40.91a26.89,26.89,0,0,0,13.93-4l54.4-29.34A235.57,235.57,0,0,0,197.6,409c28.19,46.29,83.57,77.76,147.29,77.76,34.87,0,67.24-9.44,94-25.56l41.71,22.49a20.63,20.63,0,0,0,10.68,3.07c14.61,0,26.53-16.5,17.61-31.36ZM108.53,354.54,96,347l-12.87,6.94-54.4,29.34-.52.28-.5.3a4.78,4.78,0,0,1-.71.35,2.53,2.53,0,0,1-1.36-1.3,2.72,2.72,0,0,1,.35-.77l.3-.5.28-.52,27.74-51.43,7.46-13.83-8.93-12.92C35,277.2,25.64,247.66,25.64,217.54c0-91.91,86.27-166.68,192.32-166.68,100.53,0,183.28,67.2,191.62,152.49a186,186,0,0,0-64.68-11.46c-92.29,0-167.11,66-167.11,147.45a131.45,131.45,0,0,0,7,42.38A207.85,207.85,0,0,1,108.53,354.54Zm358,46.87-8.93,12.92,7.46,13.83,13.72,25.43L451.1,438.65l-12.87-6.94-12.53,7.54c-23.79,14.32-51.74,21.89-80.81,21.89-78,0-141.46-54.64-141.46-121.8s63.46-121.8,141.46-121.8,141.46,54.64,141.46,121.8A109,109,0,0,1,466.57,401.41Zm-70-55.66a12.82,12.82,0,1,1-12.82-12.82A12.82,12.82,0,0,1,396.61,345.75Zm-38.46,0a12.82,12.82,0,1,1-12.82-12.82A12.82,12.82,0,0,1,358.14,345.75Zm-38.46,0a12.82,12.82,0,1,1-12.82-12.82A12.82,12.82,0,0,1,319.68,345.75Z"/></svg>