<svg id="Calque_1" data-name="Calque 1" xmlns="http://www.w3.org/2000/svg" viewBox="0 0 744.11 754.06"><defs><style>.cls-1{fill:#00b964;stroke:#00b964;stroke-miterlimit:10;}.cls-2{fill:#fff;}</style></defs><title>umoja0</title><path class="cls-1" d="M.5.5H645.77a97.84,97.84,0,0,1,97.84,97.84V753.56a0,0,0,0,1,0,0H103.33A102.83,102.83,0,0,1,.5,650.73V.5a0,0,0,0,1,0,0Z"/><path class="cls-2" d="M824,436.42l.35,213.05C820,732.75,768,803.75,694.33,837a230.42,230.42,0,0,1-187.93.34C434.06,805,382.4,736.3,376,655.24l-.35-215.62c3.15-32.4,31.15-57.76,65.21-57.76s62,25.27,65.19,57.59l.35,198.75c0,50.8,42.24,92,94.35,92,48,0,87.62-34.94,93.58-80.15a91.18,91.18,0,0,0,0-23.65L694,439.53c3.19-32.36,31.16-57.67,65.2-57.67C792.12,381.86,819.39,405.56,824,436.42Z" transform="translate(-227.94 -222.97)"/><path class="cls-2" d="M549.26,548.7,662,478.33V613.64c0,38.14-25.23,69.07-56.36,69.07s-56.36-30.93-56.36-69.07Z" transform="translate(-227.94 -222.97)"/></svg>